SplineFontDB: 3.0
FontName: CheyenneSans-Light
FullName: Cheyenne Sans Light
FamilyName: Cheyenne Sans Light
Weight: Light
Version: 1.000; ttfautohint (v1.8.2)
ItalicAngle: 0
UnderlinePosition: -150
UnderlineWidth: 50
Ascent: 800
Descent: 200
InvalidEm: 0
sfntRevision: 0x00010000
LayerCount: 2
Layer: 0 1 "Back" 1
Layer: 1 1 "Fore" 0
XUID: [1021 788 582120202 16011663]
StyleMap: 0x0040
FSType: 0
OS2Version: 3
OS2_WeightWidthSlopeOnly: 0
OS2_UseTypoMetrics: 0
CreationTime: 1513572760
ModificationTime: 1545430903
PfmFamily: 81
TTFWeight: 300
TTFWidth: 5
LineGap: 0
VLineGap: 0
Panose: 0 0 4 0 0 0 0 0 0 0
OS2TypoAscent: 743
OS2TypoAOffset: 0
OS2TypoDescent: -161
OS2TypoDOffset: 0
OS2TypoLinegap: 0
OS2WinAscent: 822
OS2WinAOffset: 0
OS2WinDescent: 178
OS2WinDOffset: 0
HheadAscent: 822
HheadAOffset: 0
HheadDescent: -178
HheadDOffset: 0
OS2SubXSize: 650
OS2SubYSize: 600
OS2SubXOff: 0
OS2SubYOff: 75
OS2SupXSize: 650
OS2SupYSize: 600
OS2SupXOff: 0
OS2SupYOff: 350
OS2StrikeYSize: 50
OS2StrikeYPos: 310
OS2CapHeight: 723
OS2XHeight: 517
OS2Vendor: 'IMPA'
OS2CodePages: 20000193.00000000
OS2UnicodeRanges: 00000007.00000000.00000000.00000000
Lookup: 1 0 0 "'aalt' Access All Alternates in Latin lookup 0" { "'aalt' Access All Alternates in Latin lookup 0 subtable"  } ['aalt' ('DFLT' <'dflt' > 'latn' <'AZE ' 'CAT ' 'CRT ' 'KAZ ' 'MOL ' 'ROM ' 'TAT ' 'TRK ' 'dflt' > ) ]
Lookup: 3 0 0 "'aalt' Access All Alternates in Latin lookup 1" { "'aalt' Access All Alternates in Latin lookup 1 subtable"  } ['aalt' ('DFLT' <'dflt' > 'latn' <'AZE ' 'CAT ' 'CRT ' 'KAZ ' 'MOL ' 'ROM ' 'TAT ' 'TRK ' 'dflt' > ) ]
Lookup: 6 0 0 "'ccmp' Glyph Composition/Decomposition in Latin lookup 2" { "'ccmp' Glyph Composition/Decomposition in Latin lookup 2 contextual 0"  "'ccmp' Glyph Composition/Decomposition in Latin lookup 2 contextual 1"  } ['ccmp' ('DFLT' <'dflt' > 'latn' <'AZE ' 'CAT ' 'CRT ' 'KAZ ' 'MOL ' 'ROM ' 'TAT ' 'TRK ' 'dflt' > ) ]

StartChar: .notdef
Encoding: 65536 -1 0
Width: 692
Flags: W
LayerCount: 2
Fore
SplineSet
594 805 m 2,0,-1
 594 -133 l 2,1,2
 594 -148 594 -148 586.5 -154.5 c 128,-1,3
 579 -161 579 -161 562 -161 c 2,4,-1
 126 -161 l 2,5,6
 111 -161 111 -161 105 -155.5 c 128,-1,7
 99 -150 99 -150 99 -137 c 2,8,-1
 99 803 l 2,9,10
 99 814 99 814 104 820 c 128,-1,11
 109 826 109 826 118 826 c 2,12,-1
 577 826 l 2,13,14
 594 826 594 826 594 805 c 2,0,-1
540 772.5 m 128,-1,16
 536 777 536 777 529 777 c 2,17,-1
 185 777 l 1,18,-1
 544 -57 l 1,19,-1
 544 760 l 2,20,15
 544 768 544 768 540 772.5 c 128,-1,16
155 -107 m 128,-1,22
 160 -112 160 -112 172 -112 c 2,23,-1
 507 -112 l 1,24,-1
 150 716 l 1,25,-1
 150 -92 l 2,26,21
 150 -102 150 -102 155 -107 c 128,-1,22
EndSplineSet
EndChar

StartChar: exclam
Encoding: 33 33 4
Width: 242
GlyphClass: 2
Flags: W
LayerCount: 2
Fore
SplineSet
145 169 m 1,0,-1
 94 169 l 1,1,-1
 75 723 l 1,2,-1
 164 723 l 1,3,-1
 145 169 l 1,0,-1
165 0 m 1,4,-1
 74 0 l 1,5,-1
 74 102 l 1,6,-1
 165 102 l 1,7,-1
 165 0 l 1,4,-1
EndSplineSet
EndChar

StartChar: quotedbl
Encoding: 34 34 5
Width: 398
GlyphClass: 2
Flags: W
LayerCount: 2
Fore
SplineSet
310 506 m 1,0,-1
 264 506 l 1,1,-1
 238 723 l 1,2,-1
 337 723 l 1,3,-1
 310 506 l 1,0,-1
148 506 m 1,4,-1
 102 506 l 1,5,-1
 76 723 l 1,6,-1
 175 723 l 1,7,-1
 148 506 l 1,4,-1
EndSplineSet
EndChar

StartChar: numbersign
Encoding: 35 35 6
Width: 594
GlyphClass: 2
Flags: W
LayerCount: 2
Fore
SplineSet
440 443 m 1,0,-1
 416 287 l 1,1,-1
 523 287 l 1,2,-1
 523 238 l 1,3,-1
 409 238 l 1,4,-1
 372 -1 l 1,5,-1
 323 6 l 1,6,-1
 358 238 l 1,7,-1
 206 238 l 1,8,-1
 170 -1 l 1,9,-1
 120 6 l 1,10,-1
 156 238 l 1,11,-1
 38 238 l 1,12,-1
 38 287 l 1,13,-1
 163 287 l 1,14,-1
 187 443 l 1,15,-1
 70 443 l 1,16,-1
 70 492 l 1,17,-1
 194 492 l 1,18,-1
 230 724 l 1,19,-1
 279 718 l 1,20,-1
 245 492 l 1,21,-1
 397 492 l 1,22,-1
 432 724 l 1,23,-1
 482 718 l 1,24,-1
 447 492 l 1,25,-1
 555 492 l 1,26,-1
 555 443 l 1,27,-1
 440 443 l 1,0,-1
389 443 m 1,28,-1
 237 443 l 1,29,-1
 214 287 l 1,30,-1
 366 287 l 1,31,-1
 389 443 l 1,28,-1
EndSplineSet
EndChar

StartChar: dollar
Encoding: 36 36 7
Width: 589
GlyphClass: 2
Flags: W
LayerCount: 2
Fore
SplineSet
522.5 83 m 128,-1,1
 497 42 497 42 450.5 18 c 128,-1,2
 404 -6 404 -6 344 -8 c 0,3,4
 334 -8 334 -8 334 -17 c 2,5,-1
 334 -87 l 1,6,-1
 278 -87 l 1,7,-1
 278 -8 l 1,8,9
 192 -7 192 -7 133.5 23 c 128,-1,10
 75 53 75 53 31 115 c 1,11,-1
 80 157 l 1,12,13
 121 107 121 107 166.5 81.5 c 128,-1,14
 212 56 212 56 278 54 c 1,15,-1
 279 326 l 1,16,17
 196 355 196 355 149 384.5 c 128,-1,18
 102 414 102 414 81 450 c 128,-1,19
 60 486 60 486 60 536 c 0,20,21
 60 614 60 614 116.5 666 c 128,-1,22
 173 718 173 718 267 729 c 0,23,24
 278 731 278 731 278 739 c 2,25,-1
 278 797 l 1,26,-1
 333 797 l 1,27,-1
 333 731 l 1,28,29
 394 722 394 722 442.5 698 c 128,-1,30
 491 674 491 674 532 634 c 1,31,-1
 484 586 l 1,32,33
 462 615 462 615 424 636 c 128,-1,34
 386 657 386 657 342 665 c 1,35,-1
 340 665 l 2,36,37
 333 665 333 665 333 658 c 2,38,-1
 333 389 l 1,39,-1
 379 372 l 2,40,41
 463 337 463 337 505.5 290.5 c 128,-1,42
 548 244 548 244 548 176 c 0,43,0
 548 124 548 124 522.5 83 c 128,-1,1
281 667 m 1,44,45
 249 667 249 667 214.5 652.5 c 128,-1,46
 180 638 180 638 156 609 c 128,-1,47
 132 580 132 580 132 539 c 0,48,49
 132 501 132 501 155 474 c 128,-1,50
 178 447 178 447 207 433 c 128,-1,51
 236 419 236 419 278 403 c 1,52,-1
 281 667 l 1,44,45
436.5 88.5 m 128,-1,54
 476 122 476 122 476 172 c 0,55,56
 476 220 476 220 442.5 252 c 128,-1,57
 409 284 409 284 333 312 c 1,58,-1
 333 54 l 1,59,53
 397 55 397 55 436.5 88.5 c 128,-1,54
EndSplineSet
EndChar

StartChar: percent
Encoding: 37 37 8
Width: 894
GlyphClass: 2
Flags: W
LayerCount: 2
Fore
SplineSet
344 678.5 m 128,-1,1
 390 623 390 623 390 527 c 128,-1,2
 390 431 390 431 344 376 c 128,-1,3
 298 321 298 321 225 321 c 0,4,5
 151 321 151 321 104 376 c 128,-1,6
 57 431 57 431 57 527 c 0,7,8
 57 591 57 591 78.5 637.5 c 128,-1,9
 100 684 100 684 138 709 c 128,-1,10
 176 734 176 734 225 734 c 0,11,0
 298 734 298 734 344 678.5 c 128,-1,1
246 -4 m 1,12,-1
 192 -4 l 1,13,-1
 680 731 l 1,14,-1
 732 731 l 1,15,-1
 246 -4 l 1,12,-1
303.5 408.5 m 128,-1,17
 333 453 333 453 333 527 c 0,18,19
 333 600 333 600 303.5 645.5 c 128,-1,20
 274 691 274 691 224 691 c 128,-1,21
 174 691 174 691 144.5 645.5 c 128,-1,22
 115 600 115 600 115 527 c 128,-1,23
 115 454 115 454 144 409 c 128,-1,24
 173 364 173 364 224 364 c 0,25,16
 274 364 274 364 303.5 408.5 c 128,-1,17
789 348 m 128,-1,27
 835 292 835 292 835 197 c 0,28,29
 835 101 835 101 789 45.5 c 128,-1,30
 743 -10 743 -10 669 -10 c 0,31,32
 621 -10 621 -10 583 15 c 128,-1,33
 545 40 545 40 523.5 86.5 c 128,-1,34
 502 133 502 133 502 197 c 0,35,36
 502 260 502 260 523.5 307 c 128,-1,37
 545 354 545 354 583 379 c 128,-1,38
 621 404 621 404 669 404 c 0,39,26
 743 404 743 404 789 348 c 128,-1,27
747 79.5 m 128,-1,41
 777 125 777 125 777 196 c 0,42,43
 777 268 777 268 747 314 c 128,-1,44
 717 360 717 360 668 360 c 0,45,46
 620 360 620 360 590 313.5 c 128,-1,47
 560 267 560 267 560 196 c 128,-1,48
 560 125 560 125 590 79.5 c 128,-1,49
 620 34 620 34 668 34 c 0,50,40
 717 34 717 34 747 79.5 c 128,-1,41
EndSplineSet
EndChar

StartChar: ampersand
Encoding: 38 38 9
Width: 679
GlyphClass: 2
Flags: W
LayerCount: 2
Fore
SplineSet
387.5 715 m 128,-1,1
 431 696 431 696 457 661.5 c 128,-1,2
 483 627 483 627 483 581 c 0,3,4
 483 537 483 537 445.5 486.5 c 128,-1,5
 408 436 408 436 308 384 c 1,6,-1
 483 179 l 1,7,8
 506 207 506 207 527.5 260.5 c 128,-1,9
 549 314 549 314 552 382 c 1,10,-1
 622 382 l 1,11,12
 615 308 615 308 589.5 250.5 c 128,-1,13
 564 193 564 193 521 134 c 1,14,-1
 635 0 l 1,15,-1
 549 0 l 1,16,-1
 476 84 l 1,17,18
 374 -5 374 -5 253 -5 c 0,19,20
 153 -5 153 -5 97 46 c 128,-1,21
 41 97 41 97 41 182 c 0,22,23
 41 251 41 251 81.5 302.5 c 128,-1,24
 122 354 122 354 208 400 c 1,25,26
 162 448 162 448 139.5 490.5 c 128,-1,27
 117 533 117 533 117 579 c 0,28,29
 117 622 117 622 139.5 657.5 c 128,-1,30
 162 693 162 693 202.5 713.5 c 128,-1,31
 243 734 243 734 294 734 c 0,32,0
 344 734 344 734 387.5 715 c 128,-1,1
219 651 m 128,-1,34
 191 623 191 623 191 583 c 0,35,36
 191 546 191 546 212 509 c 128,-1,37
 233 472 233 472 257 446 c 2,38,-1
 274 428 l 1,39,40
 356 474 356 474 385.5 509 c 128,-1,41
 415 544 415 544 415 580 c 0,42,43
 415 631 415 631 380 655.5 c 128,-1,44
 345 680 345 680 296 680 c 0,45,33
 247 679 247 679 219 651 c 128,-1,34
154 279 m 128,-1,47
 120 236 120 236 120 186 c 0,48,49
 120 128 120 128 162.5 92 c 128,-1,50
 205 56 205 56 267 56 c 0,51,52
 312 56 312 56 357.5 76 c 128,-1,53
 403 96 403 96 438 130 c 1,54,-1
 247 354 l 1,55,46
 188 322 188 322 154 279 c 128,-1,47
EndSplineSet
EndChar

StartChar: quotesingle
Encoding: 39 39 10
Width: 245
GlyphClass: 2
Flags: W
LayerCount: 2
Fore
SplineSet
145 506 m 1,0,-1
 99 506 l 1,1,-1
 73 723 l 1,2,-1
 172 723 l 1,3,-1
 145 506 l 1,0,-1
EndSplineSet
EndChar

StartChar: parenleft
Encoding: 40 40 11
Width: 291
GlyphClass: 2
Flags: W
LayerCount: 2
Fore
SplineSet
180.5 505 m 128,-1,1
 149 390 149 390 149 277 c 0,2,3
 149 167 149 167 176 60 c 128,-1,4
 203 -47 203 -47 257 -161 c 1,5,-1
 208 -161 l 1,6,7
 141 -47 141 -47 107.5 55.5 c 128,-1,8
 74 158 74 158 74 278 c 0,9,10
 74 397 74 397 112.5 511.5 c 128,-1,11
 151 626 151 626 217 723 c 1,12,-1
 266 723 l 1,13,0
 212 620 212 620 180.5 505 c 128,-1,1
EndSplineSet
EndChar

StartChar: parenright
Encoding: 41 41 12
Width: 299
GlyphClass: 2
Flags: W
LayerCount: 2
Fore
SplineSet
106.5 505 m 128,-1,1
 138 390 138 390 138 277 c 0,2,3
 138 167 138 167 111 60 c 128,-1,4
 84 -47 84 -47 30 -161 c 1,5,-1
 79 -161 l 1,6,7
 146 -47 146 -47 179.5 55.5 c 128,-1,8
 213 158 213 158 213 278 c 0,9,10
 213 397 213 397 174.5 511.5 c 128,-1,11
 136 626 136 626 70 723 c 1,12,-1
 21 723 l 1,13,0
 75 620 75 620 106.5 505 c 128,-1,1
EndSplineSet
EndChar

StartChar: asterisk
Encoding: 42 42 13
Width: 367
GlyphClass: 2
Flags: W
LayerCount: 2
Fore
SplineSet
187 529 m 1,0,-1
 108 403 l 1,1,-1
 62 435 l 1,2,-1
 153 550 l 1,3,-1
 27 586 l 1,4,-1
 45 635 l 1,5,-1
 165 588 l 1,6,-1
 157 723 l 1,7,-1
 215 723 l 1,8,-1
 207 588 l 1,9,-1
 329 639 l 1,10,-1
 345 591 l 1,11,-1
 222 551 l 1,12,-1
 310 441 l 1,13,-1
 264 407 l 1,14,-1
 187 529 l 1,0,-1
EndSplineSet
EndChar

StartChar: plus
Encoding: 43 43 14
Width: 545
GlyphClass: 2
Flags: W
LayerCount: 2
Fore
SplineSet
480 334 m 1,0,-1
 302 334 l 1,1,-1
 302 155 l 1,2,-1
 243 155 l 1,3,-1
 243 333 l 1,4,-1
 63 333 l 1,5,-1
 63 392 l 1,6,-1
 242 392 l 1,7,-1
 242 572 l 1,8,-1
 301 572 l 1,9,-1
 301 393 l 1,10,-1
 480 393 l 1,11,-1
 480 334 l 1,0,-1
EndSplineSet
EndChar

StartChar: comma
Encoding: 44 44 15
Width: 225
GlyphClass: 2
Flags: W
LayerCount: 2
Fore
SplineSet
96 -1 m 1,0,-1
 55 0 l 1,1,-1
 55 100 l 1,2,-1
 159 100 l 1,3,-1
 159 14 l 1,4,-1
 80 -120 l 1,5,-1
 41 -120 l 1,6,-1
 96 -1 l 1,0,-1
EndSplineSet
Substitution2: "'tnum' Tabular Numbers in Latin lookup 23 subtable" comma.tf
Substitution2: "'aalt' Access All Alternates in Latin lookup 0 subtable" comma.tf
EndChar

StartChar: hyphen
Encoding: 45 45 16
Width: 377
GlyphClass: 2
Flags: W
LayerCount: 2
Fore
SplineSet
311 229 m 1,0,-1
 64 228 l 1,1,-1
 64 288 l 1,2,-1
 311 289 l 1,3,-1
 311 229 l 1,0,-1
EndSplineSet
EndChar

StartChar: period
Encoding: 46 46 17
Width: 212
GlyphClass: 2
Flags: W
LayerCount: 2
Fore
SplineSet
151 0 m 1,0,-1
 58 0 l 1,1,-1
 58 103 l 1,2,-1
 151 103 l 1,3,-1
 151 0 l 1,0,-1
EndSplineSet
Substitution2: "'tnum' Tabular Numbers in Latin lookup 23 subtable" period.tf
Substitution2: "'aalt' Access All Alternates in Latin lookup 0 subtable" period.tf
EndChar

StartChar: slash
Encoding: 47 47 18
Width: 338
GlyphClass: 2
Flags: W
LayerCount: 2
Fore
SplineSet
262 723 m 1,0,-1
 323 723 l 1,1,-1
 74 -46 l 1,2,-1
 13 -46 l 1,3,-1
 262 723 l 1,0,-1
EndSplineSet
Substitution2: "'frac' Diagonal Fractions in Latin lookup 16 subtable" fraction
Substitution2: "'aalt' Access All Alternates in Latin lookup 0 subtable" fraction
EndChar

StartChar: zero
Encoding: 48 48 19
Width: 631
GlyphClass: 2
Flags: W
LayerCount: 2
Fore
SplineSet
453 690.5 m 128,-1,1
 513 648 513 648 547 564.5 c 128,-1,2
 581 481 581 481 581 360 c 0,3,4
 581 240 581 240 547 156.5 c 128,-1,5
 513 73 513 73 453 31.5 c 128,-1,6
 393 -10 393 -10 315 -10 c 0,7,8
 238 -10 238 -10 178 31.5 c 128,-1,9
 118 73 118 73 84.5 155.5 c 128,-1,10
 51 238 51 238 51 358 c 0,11,12
 51 479 51 479 85 563.5 c 128,-1,13
 119 648 119 648 179 690.5 c 128,-1,14
 239 733 239 733 316 733 c 128,-1,0
 393 733 393 733 453 690.5 c 128,-1,1
451.5 130.5 m 128,-1,16
 500 205 500 205 500 360 c 0,17,18
 500 516 500 516 450.5 592 c 128,-1,19
 401 668 401 668 316 668 c 128,-1,20
 231 668 231 668 181 592 c 128,-1,21
 131 516 131 516 131 360 c 0,22,23
 131 206 131 206 180.5 131 c 128,-1,24
 230 56 230 56 317 56 c 0,25,15
 403 56 403 56 451.5 130.5 c 128,-1,16
EndSplineSet
Substitution2: "'onum' Oldstyle Figures in Latin lookup 24 subtable" zero.osf
Substitution2: "'tnum' Tabular Numbers in Latin lookup 23 subtable" zero.tf
Substitution2: "'frac' Diagonal Fractions in Latin lookup 17 subtable" zero.numr
Substitution2: "'dnom' Denominators in Latin lookup 15 subtable" zero.dnom
Substitution2: "'numr' Numerators in Latin lookup 14 subtable" zero.numr
Substitution2: "'sups' Superscript in Latin lookup 13 subtable" uni2070
Substitution2: "'sinf' Scientific Inferiors in Latin lookup 12 subtable" zero.subs
Substitution2: "'subs' Subscript in Latin lookup 11 subtable" zero.subs
AlternateSubs2: "'aalt' Access All Alternates in Latin lookup 1 subtable" zero.subs uni2070 zero.numr zero.dnom zero.tf zero.osf
EndChar

StartChar: one
Encoding: 49 49 20
Width: 377
GlyphClass: 2
Flags: W
LayerCount: 2
Fore
SplineSet
180 634 m 1,0,-1
 37 582 l 1,1,-1
 37 640 l 1,2,-1
 203 723 l 1,3,-1
 257 723 l 1,4,-1
 257 0 l 1,5,-1
 180 0 l 1,6,-1
 180 634 l 1,0,-1
EndSplineSet
Substitution2: "'onum' Oldstyle Figures in Latin lookup 24 subtable" one.osf
Substitution2: "'tnum' Tabular Numbers in Latin lookup 23 subtable" one.tf
Substitution2: "'frac' Diagonal Fractions in Latin lookup 17 subtable" one.numr
Substitution2: "'dnom' Denominators in Latin lookup 15 subtable" one.dnom
Substitution2: "'numr' Numerators in Latin lookup 14 subtable" one.numr
Substitution2: "'sups' Superscript in Latin lookup 13 subtable" uni00B9
Substitution2: "'sinf' Scientific Inferiors in Latin lookup 12 subtable" one.subs
Substitution2: "'subs' Subscript in Latin lookup 11 subtable" one.subs
AlternateSubs2: "'aalt' Access All Alternates in Latin lookup 1 subtable" one.subs uni00B9 one.numr one.dnom one.tf one.osf
EndChar

StartChar: two
Encoding: 50 50 21
Width: 568
GlyphClass: 2
Flags: W
LayerCount: 2
Fore
SplineSet
44 69 m 1,0,-1
 280 301 l 2,1,2
 364 382 364 382 396.5 431 c 128,-1,3
 429 480 429 480 429 532 c 0,4,5
 429 599 429 599 384 632.5 c 128,-1,6
 339 666 339 666 280 666 c 0,7,8
 226 666 226 666 179.5 641.5 c 128,-1,9
 133 617 133 617 105 564 c 1,10,-1
 41 586 l 1,11,12
 73 658 73 658 135 695.5 c 128,-1,13
 197 733 197 733 284 733 c 0,14,15
 348 733 348 733 398 709.5 c 128,-1,16
 448 686 448 686 477 641 c 128,-1,17
 506 596 506 596 506 534 c 0,18,19
 506 491 506 491 491 453.5 c 128,-1,20
 476 416 476 416 443 375 c 128,-1,21
 410 334 410 334 349 272 c 2,22,-1
 144 67 l 1,23,-1
 514 67 l 1,24,-1
 514 0 l 1,25,-1
 44 0 l 1,26,-1
 44 69 l 1,0,-1
EndSplineSet
Substitution2: "'onum' Oldstyle Figures in Latin lookup 24 subtable" two.osf
Substitution2: "'tnum' Tabular Numbers in Latin lookup 23 subtable" two.tf
Substitution2: "'frac' Diagonal Fractions in Latin lookup 17 subtable" two.numr
Substitution2: "'dnom' Denominators in Latin lookup 15 subtable" two.dnom
Substitution2: "'numr' Numerators in Latin lookup 14 subtable" two.numr
Substitution2: "'sups' Superscript in Latin lookup 13 subtable" uni00B2
Substitution2: "'sinf' Scientific Inferiors in Latin lookup 12 subtable" two.subs
Substitution2: "'subs' Subscript in Latin lookup 11 subtable" two.subs
AlternateSubs2: "'aalt' Access All Alternates in Latin lookup 1 subtable" two.subs uni00B2 two.numr two.dnom two.tf two.osf
EndChar

StartChar: three
Encoding: 51 51 22
Width: 624
GlyphClass: 2
Flags: W
LayerCount: 2
Fore
SplineSet
161 700 m 128,-1,1
 227 733 227 733 308 733 c 0,2,3
 379 733 379 733 434 709 c 128,-1,4
 489 685 489 685 519.5 643.5 c 128,-1,5
 550 602 550 602 550 551 c 0,6,7
 550 435 550 435 409 385 c 1,8,9
 485 364 485 364 528.5 315.5 c 128,-1,10
 572 267 572 267 572 199 c 0,11,12
 572 140 572 140 538 92 c 128,-1,13
 504 44 504 44 441.5 17 c 128,-1,14
 379 -10 379 -10 298 -10 c 0,15,16
 207 -10 207 -10 145.5 20 c 128,-1,17
 84 50 84 50 45 121 c 1,18,-1
 110 143 l 1,19,20
 175 55 175 55 299 55 c 0,21,22
 387 55 387 55 438.5 94.5 c 128,-1,23
 490 134 490 134 490 196 c 0,24,25
 490 243 490 243 463 277 c 128,-1,26
 436 311 436 311 392.5 328.5 c 128,-1,27
 349 346 349 346 300 346 c 2,28,-1
 203 346 l 1,29,-1
 203 410 l 1,30,-1
 284 411 l 2,31,32
 335 411 335 411 378 428.5 c 128,-1,33
 421 446 421 446 445.5 477.5 c 128,-1,34
 470 509 470 509 470 547 c 0,35,36
 470 582 470 582 449 609.5 c 128,-1,37
 428 637 428 637 391 653 c 128,-1,38
 354 669 354 669 308 669 c 0,39,40
 248 669 248 669 204.5 647.5 c 128,-1,41
 161 626 161 626 132 581 c 1,42,-1
 69 604 l 1,43,0
 95 667 95 667 161 700 c 128,-1,1
EndSplineSet
Substitution2: "'onum' Oldstyle Figures in Latin lookup 24 subtable" three.osf
Substitution2: "'tnum' Tabular Numbers in Latin lookup 23 subtable" three.tf
Substitution2: "'frac' Diagonal Fractions in Latin lookup 17 subtable" three.numr
Substitution2: "'dnom' Denominators in Latin lookup 15 subtable" three.dnom
Substitution2: "'numr' Numerators in Latin lookup 14 subtable" three.numr
Substitution2: "'sups' Superscript in Latin lookup 13 subtable" uni00B3
Substitution2: "'sinf' Scientific Inferiors in Latin lookup 12 subtable" three.subs
Substitution2: "'subs' Subscript in Latin lookup 11 subtable" three.subs
AlternateSubs2: "'aalt' Access All Alternates in Latin lookup 1 subtable" three.subs uni00B3 three.numr three.dnom three.tf three.osf
EndChar

StartChar: four
Encoding: 52 52 23
Width: 617
GlyphClass: 2
Flags: W
LayerCount: 2
Fore
SplineSet
462 723 m 1,0,-1
 462 261 l 1,1,-1
 575 261 l 1,2,-1
 575 193 l 1,3,-1
 462 193 l 1,4,-1
 462 0 l 1,5,-1
 388 0 l 1,6,-1
 389 193 l 1,7,-1
 48 193 l 1,8,-1
 48 266 l 1,9,-1
 386 723 l 1,10,-1
 462 723 l 1,0,-1
386 261 m 1,11,-1
 386 613 l 1,12,-1
 125 261 l 1,13,-1
 386 261 l 1,11,-1
EndSplineSet
Substitution2: "'onum' Oldstyle Figures in Latin lookup 24 subtable" four.osf
Substitution2: "'tnum' Tabular Numbers in Latin lookup 23 subtable" four.tf
Substitution2: "'frac' Diagonal Fractions in Latin lookup 17 subtable" four.numr
Substitution2: "'dnom' Denominators in Latin lookup 15 subtable" four.dnom
Substitution2: "'numr' Numerators in Latin lookup 14 subtable" four.numr
Substitution2: "'sups' Superscript in Latin lookup 13 subtable" uni2074
Substitution2: "'sinf' Scientific Inferiors in Latin lookup 12 subtable" four.subs
Substitution2: "'subs' Subscript in Latin lookup 11 subtable" four.subs
AlternateSubs2: "'aalt' Access All Alternates in Latin lookup 1 subtable" four.subs uni2074 four.numr four.dnom four.tf four.osf
EndChar

StartChar: five
Encoding: 53 53 24
Width: 641
GlyphClass: 2
Flags: W
LayerCount: 2
Fore
SplineSet
547 723 m 1,0,-1
 541 658 l 1,1,-1
 185 658 l 1,2,-1
 165 402 l 1,3,4
 216 430 216 430 253.5 443 c 128,-1,5
 291 456 291 456 342 456 c 0,6,7
 408 456 408 456 462.5 432.5 c 128,-1,8
 517 409 517 409 549.5 359.5 c 128,-1,9
 582 310 582 310 582 237 c 0,10,11
 582 161 582 161 547 105 c 128,-1,12
 512 49 512 49 449.5 19.5 c 128,-1,13
 387 -10 387 -10 307 -10 c 0,14,15
 232 -10 232 -10 165.5 18.5 c 128,-1,16
 99 47 99 47 52 100 c 1,17,-1
 106 145 l 1,18,19
 154 98 154 98 195 76 c 128,-1,20
 236 54 236 54 297 54 c 0,21,22
 392 54 392 54 446.5 104 c 128,-1,23
 501 154 501 154 501 234 c 0,24,25
 501 312 501 312 453 352 c 128,-1,26
 405 392 405 392 330 392 c 0,27,28
 282 392 282 392 243.5 376.5 c 128,-1,29
 205 361 205 361 157 333 c 0,30,31
 152 329 152 329 149 329 c 0,32,33
 147 329 147 329 145.5 330.5 c 128,-1,34
 144 332 144 332 141 334 c 2,35,-1
 91 363 l 1,36,-1
 120 723 l 1,37,-1
 547 723 l 1,0,-1
EndSplineSet
Substitution2: "'onum' Oldstyle Figures in Latin lookup 24 subtable" five.osf
Substitution2: "'tnum' Tabular Numbers in Latin lookup 23 subtable" five.tf
Substitution2: "'frac' Diagonal Fractions in Latin lookup 17 subtable" five.numr
Substitution2: "'dnom' Denominators in Latin lookup 15 subtable" five.dnom
Substitution2: "'numr' Numerators in Latin lookup 14 subtable" five.numr
Substitution2: "'sups' Superscript in Latin lookup 13 subtable" uni2075
Substitution2: "'sinf' Scientific Inferiors in Latin lookup 12 subtable" five.subs
Substitution2: "'subs' Subscript in Latin lookup 11 subtable" five.subs
AlternateSubs2: "'aalt' Access All Alternates in Latin lookup 1 subtable" five.subs uni2075 five.numr five.dnom five.tf five.osf
EndChar

StartChar: six
Encoding: 54 54 25
Width: 606
GlyphClass: 2
Flags: W
LayerCount: 2
Fore
SplineSet
471.5 697 m 128,-1,1
 527 661 527 661 548 602 c 1,2,-1
 487 577 l 1,3,4
 459 623 459 623 426 646.5 c 128,-1,5
 393 670 393 670 335 670 c 0,6,7
 238 670 238 670 184.5 585 c 128,-1,8
 131 500 131 500 131 339 c 0,9,10
 131 312 131 312 132 298 c 1,11,12
 150 359 150 359 204.5 395 c 128,-1,13
 259 431 259 431 329 431 c 0,14,15
 401 431 401 431 452.5 402.5 c 128,-1,16
 504 374 504 374 530.5 324.5 c 128,-1,17
 557 275 557 275 557 214 c 0,18,19
 557 147 557 147 525.5 96.5 c 128,-1,20
 494 46 494 46 439 18.5 c 128,-1,21
 384 -9 384 -9 315 -9 c 0,22,23
 232 -9 232 -9 172.5 33.5 c 128,-1,24
 113 76 113 76 81 157.5 c 128,-1,25
 49 239 49 239 49 352 c 0,26,27
 49 470 49 470 83 556 c 128,-1,28
 117 642 117 642 181 687.5 c 128,-1,29
 245 733 245 733 334 733 c 0,30,0
 416 733 416 733 471.5 697 c 128,-1,1
198 330 m 128,-1,32
 147 292 147 292 147 229 c 1,33,34
 162 143 162 143 205 98.5 c 128,-1,35
 248 54 248 54 315 54 c 0,36,37
 361 54 361 54 398 74 c 128,-1,38
 435 94 435 94 456.5 129.5 c 128,-1,39
 478 165 478 165 478 210 c 0,40,41
 478 253 478 253 459 289 c 128,-1,42
 440 325 440 325 404.5 346.5 c 128,-1,43
 369 368 369 368 322 368 c 0,44,31
 249 368 249 368 198 330 c 128,-1,32
EndSplineSet
Substitution2: "'onum' Oldstyle Figures in Latin lookup 24 subtable" six.osf
Substitution2: "'tnum' Tabular Numbers in Latin lookup 23 subtable" six.tf
Substitution2: "'frac' Diagonal Fractions in Latin lookup 17 subtable" six.numr
Substitution2: "'dnom' Denominators in Latin lookup 15 subtable" six.dnom
Substitution2: "'numr' Numerators in Latin lookup 14 subtable" six.numr
Substitution2: "'sups' Superscript in Latin lookup 13 subtable" uni2076
Substitution2: "'sinf' Scientific Inferiors in Latin lookup 12 subtable" six.subs
Substitution2: "'subs' Subscript in Latin lookup 11 subtable" six.subs
AlternateSubs2: "'aalt' Access All Alternates in Latin lookup 1 subtable" six.subs uni2076 six.numr six.dnom six.tf six.osf
EndChar

StartChar: seven
Encoding: 55 55 26
Width: 570
GlyphClass: 2
Flags: W
LayerCount: 2
Fore
SplineSet
535 723 m 1,0,-1
 535 648 l 1,1,2
 471 558 471 558 408.5 433.5 c 128,-1,3
 346 309 346 309 303 191 c 128,-1,4
 260 73 260 73 249 0 c 1,5,-1
 167 0 l 1,6,7
 181 77 181 77 218 186.5 c 128,-1,8
 255 296 255 296 315.5 420.5 c 128,-1,9
 376 545 376 545 454 658 c 1,10,-1
 37 658 l 1,11,-1
 37 723 l 1,12,-1
 535 723 l 1,0,-1
EndSplineSet
Substitution2: "'onum' Oldstyle Figures in Latin lookup 24 subtable" seven.osf
Substitution2: "'tnum' Tabular Numbers in Latin lookup 23 subtable" seven.tf
Substitution2: "'frac' Diagonal Fractions in Latin lookup 17 subtable" seven.numr
Substitution2: "'dnom' Denominators in Latin lookup 15 subtable" seven.dnom
Substitution2: "'numr' Numerators in Latin lookup 14 subtable" seven.numr
Substitution2: "'sups' Superscript in Latin lookup 13 subtable" uni2077
Substitution2: "'sinf' Scientific Inferiors in Latin lookup 12 subtable" seven.subs
Substitution2: "'subs' Subscript in Latin lookup 11 subtable" seven.subs
AlternateSubs2: "'aalt' Access All Alternates in Latin lookup 1 subtable" seven.subs uni2077 seven.numr seven.dnom seven.tf seven.osf
EndChar

StartChar: eight
Encoding: 56 56 27
Width: 617
GlyphClass: 2
Flags: W
LayerCount: 2
Fore
SplineSet
430 708 m 128,-1,1
 483 683 483 683 512 638 c 128,-1,2
 541 593 541 593 541 534 c 0,3,4
 541 466 541 466 503.5 427 c 128,-1,5
 466 388 466 388 428 368 c 1,6,7
 433 366 433 366 472.5 350.5 c 128,-1,8
 512 335 512 335 542.5 292.5 c 128,-1,9
 573 250 573 250 573 190 c 128,-1,10
 573 130 573 130 539.5 84.5 c 128,-1,11
 506 39 506 39 445 14.5 c 128,-1,12
 384 -10 384 -10 304 -10 c 0,13,14
 183 -10 183 -10 114 40 c 128,-1,15
 45 90 45 90 45 179 c 0,16,17
 45 231 45 231 77.5 280.5 c 128,-1,18
 110 330 110 330 180 363 c 1,19,20
 141 379 141 379 102.5 415 c 128,-1,21
 64 451 64 451 64 525 c 0,22,23
 64 583 64 583 95 630.5 c 128,-1,24
 126 678 126 678 181.5 705.5 c 128,-1,25
 237 733 237 733 307 733 c 128,-1,0
 377 733 377 733 430 708 c 128,-1,1
224.5 652 m 128,-1,27
 187 634 187 634 165.5 602.5 c 128,-1,28
 144 571 144 571 144 532 c 0,29,30
 144 486 144 486 170.5 456.5 c 128,-1,31
 197 427 197 427 249 416 c 2,32,-1
 351 392 l 2,33,34
 370 388 370 388 398 409 c 128,-1,35
 426 430 426 430 446.5 465 c 128,-1,36
 467 500 467 500 467 536 c 0,37,38
 467 596 467 596 423.5 633 c 128,-1,39
 380 670 380 670 308 670 c 0,40,26
 262 670 262 670 224.5 652 c 128,-1,27
442 89.5 m 128,-1,42
 492 126 492 126 492 188 c 0,43,44
 492 235 492 235 466.5 264 c 128,-1,45
 441 293 441 293 385 306 c 2,46,-1
 255 337 l 2,47,48
 252 338 252 338 247 338 c 0,49,50
 224 338 224 338 194 317.5 c 128,-1,51
 164 297 164 297 142 263 c 128,-1,52
 120 229 120 229 120 188 c 0,53,54
 120 124 120 124 169 88.5 c 128,-1,55
 218 53 218 53 308 53 c 0,56,41
 392 53 392 53 442 89.5 c 128,-1,42
EndSplineSet
Substitution2: "'onum' Oldstyle Figures in Latin lookup 24 subtable" eight.osf
Substitution2: "'tnum' Tabular Numbers in Latin lookup 23 subtable" eight.tf
Substitution2: "'frac' Diagonal Fractions in Latin lookup 17 subtable" eight.numr
Substitution2: "'dnom' Denominators in Latin lookup 15 subtable" eight.dnom
Substitution2: "'numr' Numerators in Latin lookup 14 subtable" eight.numr
Substitution2: "'sups' Superscript in Latin lookup 13 subtable" uni2078
Substitution2: "'sinf' Scientific Inferiors in Latin lookup 12 subtable" eight.subs
Substitution2: "'subs' Subscript in Latin lookup 11 subtable" eight.subs
AlternateSubs2: "'aalt' Access All Alternates in Latin lookup 1 subtable" eight.subs uni2078 eight.numr eight.dnom eight.tf eight.osf
EndChar

StartChar: nine
Encoding: 57 57 28
Width: 606
GlyphClass: 2
Flags: W
LayerCount: 2
Fore
SplineSet
132 27 m 128,-1,1
 76 64 76 64 55 123 c 1,2,-1
 117 146 l 1,3,4
 144 101 144 101 176.5 77.5 c 128,-1,5
 209 54 209 54 266 54 c 0,6,7
 366 54 366 54 421.5 137.5 c 128,-1,8
 477 221 477 221 477 387 c 0,9,10
 477 414 477 414 476 428 c 1,11,12
 458 365 458 365 403.5 328 c 128,-1,13
 349 291 349 291 277 291 c 0,14,15
 206 291 206 291 153.5 320 c 128,-1,16
 101 349 101 349 74 399 c 128,-1,17
 47 449 47 449 47 511 c 0,18,19
 47 578 47 578 78.5 628 c 128,-1,20
 110 678 110 678 165 705.5 c 128,-1,21
 220 733 220 733 289 733 c 0,22,23
 371 733 371 733 431 690.5 c 128,-1,24
 491 648 491 648 523 566.5 c 128,-1,25
 555 485 555 485 555 372 c 0,26,27
 555 190 555 190 479.5 90 c 128,-1,28
 404 -10 404 -10 268 -10 c 0,29,0
 188 -10 188 -10 132 27 c 128,-1,1
368.5 373 m 128,-1,31
 409 391 409 391 433 423 c 128,-1,32
 457 455 457 455 457 494 c 1,33,34
 441 581 441 581 398.5 625.5 c 128,-1,35
 356 670 356 670 288 670 c 0,36,37
 218 670 218 670 173 626 c 128,-1,38
 128 582 128 582 128 514 c 0,39,40
 128 471 128 471 146.5 435 c 128,-1,41
 165 399 165 399 200 377 c 128,-1,42
 235 355 235 355 282 355 c 0,43,30
 328 355 328 355 368.5 373 c 128,-1,31
EndSplineSet
Substitution2: "'onum' Oldstyle Figures in Latin lookup 24 subtable" nine.osf
Substitution2: "'tnum' Tabular Numbers in Latin lookup 23 subtable" nine.tf
Substitution2: "'frac' Diagonal Fractions in Latin lookup 17 subtable" nine.numr
Substitution2: "'dnom' Denominators in Latin lookup 15 subtable" nine.dnom
Substitution2: "'numr' Numerators in Latin lookup 14 subtable" nine.numr
Substitution2: "'sups' Superscript in Latin lookup 13 subtable" uni2079
Substitution2: "'sinf' Scientific Inferiors in Latin lookup 12 subtable" nine.subs
Substitution2: "'subs' Subscript in Latin lookup 11 subtable" nine.subs
AlternateSubs2: "'aalt' Access All Alternates in Latin lookup 1 subtable" nine.subs uni2079 nine.numr nine.dnom nine.tf nine.osf
EndChar

StartChar: colon
Encoding: 58 58 29
Width: 212
GlyphClass: 2
Flags: W
LayerCount: 2
Fore
SplineSet
151 390 m 1,0,-1
 58 390 l 1,1,-1
 58 493 l 1,2,-1
 151 493 l 1,3,-1
 151 390 l 1,0,-1
151 3 m 1,4,-1
 58 3 l 1,5,-1
 58 105 l 1,6,-1
 151 105 l 1,7,-1
 151 3 l 1,4,-1
EndSplineSet
EndChar

StartChar: semicolon
Encoding: 59 59 30
Width: 236
GlyphClass: 2
Flags: W
LayerCount: 2
Fore
SplineSet
60 493 m 1,0,-1
 152 493 l 1,1,-1
 152 389 l 1,2,-1
 60 389 l 1,3,-1
 60 493 l 1,0,-1
101 0 m 1,4,-1
 64 0 l 1,5,-1
 64 102 l 1,6,-1
 156 102 l 1,7,-1
 156 12 l 1,8,-1
 80 -138 l 1,9,-1
 47 -138 l 1,10,-1
 101 0 l 1,4,-1
EndSplineSet
EndChar

StartChar: less
Encoding: 60 60 31
Width: 539
GlyphClass: 2
Flags: W
LayerCount: 2
Fore
SplineSet
466 152 m 1,0,-1
 58 311 l 1,1,-1
 58 382 l 1,2,-1
 467 545 l 1,3,-1
 467 472 l 1,4,-1
 150 347 l 1,5,-1
 466 222 l 1,6,-1
 466 152 l 1,0,-1
EndSplineSet
EndChar

StartChar: equal
Encoding: 61 61 32
Width: 545
GlyphClass: 2
Flags: W
LayerCount: 2
Fore
SplineSet
480 431 m 1,0,-1
 63 430 l 1,1,-1
 63 490 l 1,2,-1
 480 490 l 1,3,-1
 480 431 l 1,0,-1
480 212 m 1,4,-1
 63 211 l 1,5,-1
 63 270 l 1,6,-1
 480 271 l 1,7,-1
 480 212 l 1,4,-1
EndSplineSet
EndChar

StartChar: greater
Encoding: 62 62 33
Width: 539
GlyphClass: 2
Flags: W
LayerCount: 2
Fore
SplineSet
387 347 m 1,0,-1
 70 472 l 1,1,-1
 70 545 l 1,2,-1
 478 382 l 1,3,-1
 478 311 l 1,4,-1
 71 152 l 1,5,-1
 71 222 l 1,6,-1
 387 347 l 1,0,-1
EndSplineSet
EndChar

StartChar: question
Encoding: 63 63 34
Width: 515
GlyphClass: 2
Flags: W
LayerCount: 2
Fore
SplineSet
122 696.5 m 128,-1,1
 184 733 184 733 260 733 c 0,2,3
 325 733 325 733 374 711 c 128,-1,4
 423 689 423 689 449.5 649.5 c 128,-1,5
 476 610 476 610 476 558 c 0,6,7
 476 518 476 518 462.5 485 c 128,-1,8
 449 452 449 452 429 426.5 c 128,-1,9
 409 401 409 401 375 365 c 0,10,11
 340 328 340 328 321 303 c 128,-1,12
 302 278 302 278 288 245 c 128,-1,13
 274 212 274 212 274 171 c 1,14,-1
 209 171 l 1,15,16
 209 219 209 219 223.5 258 c 128,-1,17
 238 297 238 297 259 325.5 c 128,-1,18
 280 354 280 354 314 393 c 0,19,20
 358 442 358 442 378.5 476.5 c 128,-1,21
 399 511 399 511 399 556 c 0,22,23
 399 610 399 610 361 641.5 c 128,-1,24
 323 673 323 673 260 673 c 0,25,26
 208 673 208 673 160 644 c 128,-1,27
 112 615 112 615 96 573 c 1,28,-1
 28 596 l 1,29,0
 60 660 60 660 122 696.5 c 128,-1,1
288 0 m 1,30,-1
 196 0 l 1,31,-1
 196 102 l 1,32,-1
 288 102 l 1,33,-1
 288 0 l 1,30,-1
EndSplineSet
EndChar

StartChar: at
Encoding: 64 64 35
Width: 818
GlyphClass: 2
Flags: W
LayerCount: 2
Fore
SplineSet
549 -90.5 m 128,-1,1
 491 -110 491 -110 426 -110 c 0,2,3
 311 -110 311 -110 225.5 -61.5 c 128,-1,4
 140 -13 140 -13 94.5 70 c 128,-1,5
 49 153 49 153 49 254 c 0,6,7
 49 360 49 360 98.5 449 c 128,-1,8
 148 538 148 538 237 591 c 128,-1,9
 326 644 326 644 440 644 c 0,10,11
 528 644 528 644 606.5 610 c 128,-1,12
 685 576 685 576 734 506 c 128,-1,13
 783 436 783 436 783 332 c 0,14,15
 783 258 783 258 758.5 200.5 c 128,-1,16
 734 143 734 143 691 111 c 128,-1,17
 648 79 648 79 595 79 c 0,18,19
 557 79 557 79 536 91.5 c 128,-1,20
 515 104 515 104 508 132 c 0,21,22
 507 139 507 139 504 139 c 0,23,24
 502 139 502 139 497 133 c 0,25,26
 446 65 446 65 361 65 c 0,27,28
 324 65 324 65 292.5 86.5 c 128,-1,29
 261 108 261 108 242.5 147.5 c 128,-1,30
 224 187 224 187 224 237 c 0,31,32
 224 299 224 299 248 351 c 128,-1,33
 272 403 272 403 315 433 c 128,-1,34
 358 463 358 463 412 463 c 0,35,36
 451 463 451 463 479.5 446 c 128,-1,37
 508 429 508 429 525 399 c 0,38,39
 527 397 527 397 529 398 c 128,-1,40
 531 399 531 399 532 403 c 2,41,-1
 541 438 l 1,42,-1
 596 438 l 1,43,-1
 558 213 l 2,44,45
 555 195 555 195 555 182 c 0,46,47
 555 157 555 157 566 145.5 c 128,-1,48
 577 134 577 134 599 134 c 0,49,50
 632 134 632 134 660 157.5 c 128,-1,51
 688 181 688 181 704.5 224.5 c 128,-1,52
 721 268 721 268 721 326 c 0,53,54
 721 416 721 416 680 476 c 128,-1,55
 639 536 639 536 575 563.5 c 128,-1,56
 511 591 511 591 439 591 c 0,57,58
 338 591 338 591 263.5 545.5 c 128,-1,59
 189 500 189 500 149.5 423 c 128,-1,60
 110 346 110 346 110 253 c 0,61,62
 110 165 110 165 148 95 c 128,-1,63
 186 25 186 25 260 -16 c 128,-1,64
 334 -57 334 -57 439 -57 c 0,65,66
 499 -57 499 -57 536 -41.5 c 128,-1,67
 573 -26 573 -26 622 7 c 1,68,-1
 654 -35 l 1,69,0
 607 -71 607 -71 549 -90.5 c 128,-1,1
312.5 154 m 128,-1,71
 334 122 334 122 372 122 c 0,72,73
 408 122 408 122 439 146 c 128,-1,74
 470 170 470 170 488.5 209.5 c 128,-1,75
 507 249 507 249 507 293 c 0,76,77
 507 347 507 347 480 376.5 c 128,-1,78
 453 406 453 406 416 406 c 0,79,80
 361 406 361 406 326 358.5 c 128,-1,81
 291 311 291 311 291 241 c 0,82,70
 291 186 291 186 312.5 154 c 128,-1,71
EndSplineSet
EndChar

StartChar: A
Encoding: 65 65 36
Width: 693
GlyphClass: 2
Flags: W
AnchorPoint: "Anchor-5" 0 0 basechar 0
AnchorPoint: "Anchor-4" 0 0 basechar 0
AnchorPoint: "Anchor-3" 350 723 basechar 0
AnchorPoint: "Anchor-2" 645 11 basechar 0
LayerCount: 2
Fore
SplineSet
304 723 m 1,0,-1
 390 723 l 1,1,-1
 652 0 l 1,2,-1
 577 0 l 1,3,-1
 501 209 l 1,4,-1
 193 209 l 1,5,-1
 116 0 l 1,6,-1
 41 0 l 1,7,-1
 304 723 l 1,0,-1
480 279 m 1,8,-1
 347 650 l 1,9,-1
 213 279 l 1,10,-1
 480 279 l 1,8,-1
EndSplineSet
Substitution2: "Single Substitution lookup 30 subtable" ordfeminine
Substitution2: "'aalt' Access All Alternates in Latin lookup 0 subtable" ordfeminine
EndChar

StartChar: B
Encoding: 66 66 37
Width: 663
GlyphClass: 2
Flags: W
LayerCount: 2
Fore
SplineSet
99 723 m 1,0,-1
 320 723 l 2,1,2
 448 723 448 723 516 674.5 c 128,-1,3
 584 626 584 626 584 535 c 0,4,5
 584 474 584 474 552 433 c 128,-1,6
 520 392 520 392 447 368 c 1,7,8
 602 337 602 337 602 194 c 0,9,10
 602 97 602 97 532 48.5 c 128,-1,11
 462 0 462 0 326 0 c 2,12,-1
 99 0 l 1,13,-1
 99 723 l 1,0,-1
336 398 m 2,14,15
 409 398 409 398 460.5 427.5 c 128,-1,16
 512 457 512 457 512 526 c 0,17,18
 512 593 512 593 461 626.5 c 128,-1,19
 410 660 410 660 322 660 c 2,20,-1
 172 660 l 1,21,-1
 172 398 l 1,22,-1
 336 398 l 2,14,15
324 64 m 2,23,24
 426 64 426 64 477 95.5 c 128,-1,25
 528 127 528 127 528 194 c 0,26,27
 528 266 528 266 475 299.5 c 128,-1,28
 422 333 422 333 336 333 c 2,29,-1
 172 333 l 1,30,-1
 172 64 l 1,31,-1
 324 64 l 2,23,24
EndSplineSet
EndChar

StartChar: C
Encoding: 67 67 38
Width: 675
GlyphClass: 2
Flags: W
AnchorPoint: "Anchor-5" 0 0 basechar 0
AnchorPoint: "Anchor-4" 357 0 basechar 0
AnchorPoint: "Anchor-3" 357 723 basechar 0
AnchorPoint: "Anchor-2" 0 0 basechar 0
LayerCount: 2
Fore
SplineSet
484 704.5 m 128,-1,1
 543 676 543 676 578 627.5 c 128,-1,2
 613 579 613 579 620 521 c 1,3,-1
 542 516 l 1,4,5
 529 585 529 585 480 626 c 128,-1,6
 431 667 431 667 351 667 c 0,7,8
 245 667 245 667 190.5 590 c 128,-1,9
 136 513 136 513 136 361 c 0,10,11
 136 211 136 211 191.5 133.5 c 128,-1,12
 247 56 247 56 357 56 c 0,13,14
 426 56 426 56 475.5 95.5 c 128,-1,15
 525 135 525 135 540 203 c 1,16,-1
 617 194 l 1,17,18
 610 137 610 137 575.5 90.5 c 128,-1,19
 541 44 541 44 484 17 c 128,-1,20
 427 -10 427 -10 357 -10 c 0,21,22
 213 -10 213 -10 134 88.5 c 128,-1,23
 55 187 55 187 55 362 c 128,-1,24
 55 537 55 537 132.5 635 c 128,-1,25
 210 733 210 733 351 733 c 0,26,0
 425 733 425 733 484 704.5 c 128,-1,1
EndSplineSet
EndChar

StartChar: D
Encoding: 68 68 39
Width: 680
GlyphClass: 2
Flags: W
AnchorPoint: "Anchor-5" 0 0 basechar 0
AnchorPoint: "Anchor-4" 0 0 basechar 0
AnchorPoint: "Anchor-3" 333 723 basechar 0
AnchorPoint: "Anchor-2" 0 0 basechar 0
LayerCount: 2
Fore
SplineSet
249 722 m 2,0,1
 446 720 446 720 536 632 c 128,-1,2
 626 544 626 544 626 366 c 0,3,4
 626 181 626 181 530.5 90.5 c 128,-1,5
 435 0 435 0 238 0 c 2,6,-1
 99 0 l 1,7,-1
 99 723 l 1,8,-1
 249 722 l 2,0,1
175 66 m 1,9,-1
 237 66 l 2,10,11
 392 66 392 66 470 135.5 c 128,-1,12
 548 205 548 205 548 364 c 0,13,14
 548 525 548 525 471.5 591.5 c 128,-1,15
 395 658 395 658 242 658 c 2,16,-1
 175 658 l 1,17,-1
 175 66 l 1,9,-1
EndSplineSet
EndChar

StartChar: E
Encoding: 69 69 40
Width: 617
GlyphClass: 2
Flags: W
AnchorPoint: "Anchor-5" 0 0 basechar 0
AnchorPoint: "Anchor-4" 345 0 basechar 0
AnchorPoint: "Anchor-3" 330 723 basechar 0
AnchorPoint: "Anchor-2" 544 10 basechar 0
LayerCount: 2
Fore
SplineSet
99 723 m 1,0,-1
 540 723 l 1,1,-1
 539 657 l 1,2,-1
 172 657 l 1,3,-1
 172 398 l 1,4,-1
 507 398 l 1,5,-1
 507 332 l 1,6,-1
 172 332 l 1,7,-1
 172 68 l 1,8,-1
 551 67 l 1,9,-1
 551 0 l 1,10,-1
 99 0 l 1,11,-1
 99 723 l 1,0,-1
EndSplineSet
EndChar

StartChar: F
Encoding: 70 70 41
Width: 576
GlyphClass: 2
Flags: W
LayerCount: 2
Fore
SplineSet
534 723 m 1,0,-1
 534 657 l 1,1,-1
 175 657 l 1,2,-1
 175 397 l 1,3,-1
 502 397 l 1,4,-1
 502 331 l 1,5,-1
 175 331 l 1,6,-1
 175 0 l 1,7,-1
 99 0 l 1,8,-1
 99 723 l 1,9,-1
 534 723 l 1,0,-1
EndSplineSet
EndChar

StartChar: G
Encoding: 71 71 42
Width: 720
GlyphClass: 2
Flags: W
AnchorPoint: "Anchor-5" 0 0 basechar 0
AnchorPoint: "Anchor-4" 360 0 basechar 0
AnchorPoint: "Anchor-3" 356 723 basechar 0
AnchorPoint: "Anchor-2" 0 0 basechar 0
LayerCount: 2
Fore
SplineSet
194.5 34.5 m 128,-1,1
 127 79 127 79 91 162 c 128,-1,2
 55 245 55 245 55 359 c 0,3,4
 55 476 55 476 92 560 c 128,-1,5
 129 644 129 644 197.5 688.5 c 128,-1,6
 266 733 266 733 358 733 c 0,7,8
 425 733 425 733 483.5 704 c 128,-1,9
 542 675 542 675 579.5 626.5 c 128,-1,10
 617 578 617 578 621 523 c 1,11,-1
 541 516 l 1,12,13
 530 580 530 580 479 623 c 128,-1,14
 428 666 428 666 357 666 c 0,15,16
 252 666 252 666 192.5 587.5 c 128,-1,17
 133 509 133 509 133 365 c 0,18,19
 133 213 133 213 193 135 c 128,-1,20
 253 57 253 57 359 57 c 0,21,22
 421 57 421 57 465.5 86 c 128,-1,23
 510 115 510 115 532.5 158 c 128,-1,24
 555 201 555 201 557 244 c 2,25,-1
 559 316 l 1,26,-1
 373 316 l 1,27,-1
 373 372 l 1,28,-1
 634 371 l 1,29,-1
 634 0 l 1,30,-1
 575 0 l 1,31,-1
 575 116 l 1,32,33
 543 60 543 60 488.5 25 c 128,-1,34
 434 -10 434 -10 355 -10 c 0,35,0
 262 -10 262 -10 194.5 34.5 c 128,-1,1
EndSplineSet
EndChar

StartChar: H
Encoding: 72 72 43
Width: 703
GlyphClass: 2
Flags: W
AnchorPoint: "Anchor-5" 0 0 basechar 0
AnchorPoint: "Anchor-4" 351 0 basechar 0
AnchorPoint: "Anchor-3" 351 723 basechar 0
AnchorPoint: "Anchor-2" 0 0 basechar 0
LayerCount: 2
Fore
SplineSet
172 342 m 1,0,-1
 172 0 l 1,1,-1
 99 0 l 1,2,-1
 99 723 l 1,3,-1
 172 723 l 1,4,-1
 172 408 l 1,5,-1
 531 408 l 1,6,-1
 531 723 l 1,7,-1
 604 723 l 1,8,-1
 604 0 l 1,9,-1
 531 0 l 1,10,-1
 531 342 l 1,11,-1
 172 342 l 1,0,-1
EndSplineSet
EndChar

StartChar: I
Encoding: 73 73 44
Width: 270
GlyphClass: 2
Flags: W
AnchorPoint: "Anchor-5" 0 0 basechar 0
AnchorPoint: "Anchor-4" 139 0 basechar 0
AnchorPoint: "Anchor-3" 139 723 basechar 0
AnchorPoint: "Anchor-2" 161 8 basechar 0
LayerCount: 2
Fore
SplineSet
172 723 m 1,0,-1
 172 0 l 1,1,-1
 99 0 l 1,2,-1
 99 723 l 1,3,-1
 172 723 l 1,0,-1
EndSplineSet
EndChar

StartChar: J
Encoding: 74 74 45
Width: 379
GlyphClass: 2
Flags: W
AnchorPoint: "Anchor-5" 0 0 basechar 0
AnchorPoint: "Anchor-4" 0 0 basechar 0
AnchorPoint: "Anchor-3" 235 723 basechar 0
AnchorPoint: "Anchor-2" 0 0 basechar 0
LayerCount: 2
Fore
SplineSet
249 32 m 128,-1,1
 218 -10 218 -10 138 -10 c 0,2,3
 103 -10 103 -10 70.5 -1.5 c 128,-1,4
 38 7 38 7 23 15 c 1,5,-1
 31 87 l 1,6,7
 37 84 37 84 52 77 c 128,-1,8
 67 70 67 70 84.5 65.5 c 128,-1,9
 102 61 102 61 122 61 c 0,10,11
 170 61 170 61 188.5 88 c 128,-1,12
 207 115 207 115 207 181 c 2,13,-1
 207 723 l 1,14,-1
 280 723 l 1,15,-1
 280 159 l 2,16,0
 280 74 280 74 249 32 c 128,-1,1
EndSplineSet
EndChar

StartChar: K
Encoding: 75 75 46
Width: 665
GlyphClass: 2
Flags: W
AnchorPoint: "Anchor-5" 0 0 basechar 0
AnchorPoint: "Anchor-4" 336 0 basechar 0
AnchorPoint: "Anchor-3" 359 723 basechar 0
AnchorPoint: "Anchor-2" 0 0 basechar 0
LayerCount: 2
Fore
SplineSet
545 0 m 1,0,-1
 306 385 l 1,1,-1
 175 235 l 1,2,-1
 175 0 l 1,3,-1
 99 0 l 1,4,-1
 99 723 l 1,5,-1
 175 723 l 1,6,-1
 175 333 l 1,7,-1
 521 723 l 1,8,-1
 611 723 l 1,9,-1
 363 440 l 1,10,-1
 631 0 l 1,11,-1
 545 0 l 1,0,-1
EndSplineSet
EndChar

StartChar: L
Encoding: 76 76 47
Width: 558
GlyphClass: 2
Flags: W
AnchorPoint: "Anchor-5" 425 723 basechar 0
AnchorPoint: "Anchor-4" 307 0 basechar 0
AnchorPoint: "Anchor-3" 137 723 basechar 0
AnchorPoint: "Anchor-2" 0 0 basechar 0
LayerCount: 2
Fore
SplineSet
175 723 m 1,0,-1
 175 69 l 1,1,-1
 526 69 l 1,2,-1
 526 0 l 1,3,-1
 99 0 l 1,4,-1
 99 723 l 1,5,-1
 175 723 l 1,0,-1
EndSplineSet
EndChar

StartChar: M
Encoding: 77 77 48
Width: 869
GlyphClass: 2
Flags: W
LayerCount: 2
Fore
SplineSet
99 723 m 1,0,-1
 196 723 l 1,1,-1
 434 96 l 1,2,-1
 674 723 l 1,3,-1
 771 723 l 1,4,-1
 771 0 l 1,5,-1
 695 0 l 1,6,-1
 695 596 l 1,7,-1
 471 0 l 1,8,-1
 396 0 l 1,9,-1
 175 590 l 1,10,-1
 175 0 l 1,11,-1
 99 0 l 1,12,-1
 99 723 l 1,0,-1
EndSplineSet
EndChar

StartChar: N
Encoding: 78 78 49
Width: 740
GlyphClass: 2
Flags: W
AnchorPoint: "Anchor-5" 0 0 basechar 0
AnchorPoint: "Anchor-4" 351 0 basechar 0
AnchorPoint: "Anchor-3" 381 723 basechar 0
AnchorPoint: "Anchor-2" 0 0 basechar 0
LayerCount: 2
Fore
SplineSet
641 723 m 1,0,-1
 641 0 l 1,1,-1
 576 0 l 1,2,-1
 172 597 l 1,3,-1
 172 0 l 1,4,-1
 99 0 l 1,5,-1
 99 723 l 1,6,-1
 166 723 l 1,7,-1
 568 131 l 1,8,-1
 568 723 l 1,9,-1
 641 723 l 1,0,-1
EndSplineSet
EndChar

StartChar: O
Encoding: 79 79 50
Width: 721
GlyphClass: 2
Flags: W
AnchorPoint: "Anchor-5" 0 0 basechar 0
AnchorPoint: "Anchor-4" 363 0 basechar 0
AnchorPoint: "Anchor-3" 363 723 basechar 0
AnchorPoint: "Anchor-2" 436 9 basechar 0
LayerCount: 2
Fore
SplineSet
136 86 m 128,-1,1
 55 182 55 182 55 358 c 0,2,3
 55 477 55 477 92 561.5 c 128,-1,4
 129 646 129 646 198 689.5 c 128,-1,5
 267 733 267 733 362 733 c 0,6,7
 456 733 456 733 524.5 689.5 c 128,-1,8
 593 646 593 646 629.5 562 c 128,-1,9
 666 478 666 478 666 360 c 0,10,11
 666 183 666 183 585 86.5 c 128,-1,12
 504 -10 504 -10 361 -10 c 0,13,0
 217 -10 217 -10 136 86 c 128,-1,1
529 131 m 128,-1,15
 586 206 586 206 586 359 c 0,16,17
 586 514 586 514 528.5 590.5 c 128,-1,18
 471 667 471 667 362 667 c 128,-1,19
 253 667 253 667 194.5 590 c 128,-1,20
 136 513 136 513 136 359 c 0,21,22
 136 207 136 207 194.5 131.5 c 128,-1,23
 253 56 253 56 363 56 c 0,24,14
 472 56 472 56 529 131 c 128,-1,15
EndSplineSet
Substitution2: "Single Substitution lookup 30 subtable" ordmasculine
Substitution2: "'aalt' Access All Alternates in Latin lookup 0 subtable" ordmasculine
EndChar

StartChar: P
Encoding: 80 80 51
Width: 633
GlyphClass: 2
Flags: W
LayerCount: 2
Fore
SplineSet
99 723 m 1,0,-1
 335 723 l 2,1,2
 457 723 457 723 529 671 c 128,-1,3
 601 619 601 619 601 513 c 0,4,5
 601 409 601 409 532 355.5 c 128,-1,6
 463 302 463 302 346 302 c 2,7,-1
 175 302 l 1,8,-1
 175 0 l 1,9,-1
 99 0 l 1,10,-1
 99 723 l 1,0,-1
344 367 m 2,11,12
 429 367 429 367 478 405 c 128,-1,13
 527 443 527 443 527 518 c 0,14,15
 527 659 527 659 339 659 c 2,16,-1
 174 659 l 1,17,-1
 174 367 l 1,18,-1
 344 367 l 2,11,12
EndSplineSet
EndChar

StartChar: Q
Encoding: 81 81 52
Width: 726
GlyphClass: 2
Flags: W
LayerCount: 2
Fore
SplineSet
88 563 m 128,-1,1
 125 647 125 647 193.5 690 c 128,-1,2
 262 733 262 733 357 733 c 0,3,4
 501 733 501 733 582 636 c 128,-1,5
 663 539 663 539 663 360 c 0,6,7
 663 241 663 241 627.5 159.5 c 128,-1,8
 592 78 592 78 514 32 c 1,9,10
 553 -51 553 -51 656 -56 c 1,11,-1
 656 -120 l 1,12,13
 596 -120 596 -120 539.5 -94 c 128,-1,14
 483 -68 483 -68 444 0 c 1,15,16
 397 -10 397 -10 357 -10 c 0,17,18
 263 -10 263 -10 194.5 32.5 c 128,-1,19
 126 75 126 75 88.5 158 c 128,-1,20
 51 241 51 241 51 360 c 128,-1,0
 51 479 51 479 88 563 c 128,-1,1
190 131 m 128,-1,22
 248 56 248 56 357 56 c 0,23,24
 467 56 467 56 525 131 c 128,-1,25
 583 206 583 206 583 360 c 0,26,27
 583 512 583 512 525 589.5 c 128,-1,28
 467 667 467 667 357 667 c 128,-1,29
 247 667 247 667 189.5 589 c 128,-1,30
 132 511 132 511 132 358 c 0,31,21
 132 206 132 206 190 131 c 128,-1,22
EndSplineSet
EndChar

StartChar: R
Encoding: 82 82 53
Width: 671
GlyphClass: 2
Flags: W
AnchorPoint: "Anchor-5" 0 0 basechar 0
AnchorPoint: "Anchor-4" 331 0 basechar 0
AnchorPoint: "Anchor-3" 324 723 basechar 0
AnchorPoint: "Anchor-2" 0 0 basechar 0
LayerCount: 2
Fore
SplineSet
521 0 m 1,0,-1
 384 323 l 1,1,-1
 172 323 l 1,2,-1
 172 0 l 1,3,-1
 99 0 l 1,4,-1
 99 723 l 1,5,-1
 370 723 l 2,6,7
 482 723 482 723 541 673.5 c 128,-1,8
 600 624 600 624 600 532 c 0,9,10
 600 451 600 451 558.5 404.5 c 128,-1,11
 517 358 517 358 455 337 c 1,12,-1
 600 0 l 1,13,-1
 521 0 l 1,0,-1
524 526 m 0,14,15
 524 660 524 660 364 660 c 2,16,-1
 172 660 l 1,17,-1
 172 387 l 1,18,-1
 338 387 l 2,19,20
 524 387 524 387 524 526 c 0,14,15
EndSplineSet
EndChar

StartChar: S
Encoding: 83 83 54
Width: 661
GlyphClass: 2
Flags: W
AnchorPoint: "Anchor-5" 0 0 basechar 0
AnchorPoint: "Anchor-4" 326 0 basechar 0
AnchorPoint: "Anchor-3" 331 723 basechar 0
AnchorPoint: "Anchor-2" 0 0 basechar 0
LayerCount: 2
Fore
SplineSet
206.5 12 m 128,-1,1
 146 34 146 34 105.5 77 c 128,-1,2
 65 120 65 120 55 179 c 1,3,-1
 132 186 l 1,4,5
 146 122 146 122 203 87.5 c 128,-1,6
 260 53 260 53 336 53 c 0,7,8
 421 53 421 53 475 88.5 c 128,-1,9
 529 124 529 124 529 182 c 0,10,11
 529 233 529 233 497 265.5 c 128,-1,12
 465 298 465 298 400 313 c 2,13,-1
 249 348 l 2,14,15
 167 366 167 366 122.5 411 c 128,-1,16
 78 456 78 456 77 525 c 0,17,18
 77 585 77 585 109.5 632 c 128,-1,19
 142 679 142 679 200 705.5 c 128,-1,20
 258 732 258 732 333 732 c 0,21,22
 413 732 413 732 470 704.5 c 128,-1,23
 527 677 527 677 558 631.5 c 128,-1,24
 589 586 589 586 595 532 c 1,25,-1
 520 526 l 1,26,27
 508 599 508 599 457 633 c 128,-1,28
 406 667 406 667 332 667 c 0,29,30
 288 667 288 667 247.5 651.5 c 128,-1,31
 207 636 207 636 181.5 605.5 c 128,-1,32
 156 575 156 575 156 531 c 0,33,34
 156 488 156 488 187 458.5 c 128,-1,35
 218 429 218 429 292 411 c 2,36,-1
 437 376 l 2,37,38
 607 337 607 337 607 183 c 0,39,40
 607 129 607 129 575 85 c 128,-1,41
 543 41 543 41 481.5 15.5 c 128,-1,42
 420 -10 420 -10 336 -10 c 0,43,0
 267 -10 267 -10 206.5 12 c 128,-1,1
EndSplineSet
EndChar

StartChar: T
Encoding: 84 84 55
Width: 564
GlyphClass: 2
Flags: W
AnchorPoint: "Anchor-5" 0 0 basechar 0
AnchorPoint: "Anchor-4" 293 0 basechar 0
AnchorPoint: "Anchor-3" 293 723 basechar 0
AnchorPoint: "Anchor-2" 0 0 basechar 0
LayerCount: 2
Fore
SplineSet
14 723 m 1,0,-1
 549 723 l 1,1,-1
 549 654 l 1,2,-1
 326 654 l 1,3,-1
 326 0 l 1,4,-1
 253 0 l 1,5,-1
 253 654 l 1,6,-1
 14 654 l 1,7,-1
 14 723 l 1,0,-1
EndSplineSet
EndChar

StartChar: U
Encoding: 85 85 56
Width: 708
GlyphClass: 2
Flags: W
AnchorPoint: "Anchor-5" 0 0 basechar 0
AnchorPoint: "Anchor-4" 0 0 basechar 0
AnchorPoint: "Anchor-3" 352 723 basechar 0
AnchorPoint: "Anchor-2" 426 10 basechar 0
LayerCount: 2
Fore
SplineSet
354 -10 m 0,0,1
 221 -10 221 -10 160 55 c 128,-1,2
 99 120 99 120 99 252 c 2,3,-1
 99 723 l 1,4,-1
 175 723 l 1,5,-1
 175 237 l 2,6,7
 175 147 175 147 220 101 c 128,-1,8
 265 55 265 55 354 55 c 128,-1,9
 443 55 443 55 489.5 100.5 c 128,-1,10
 536 146 536 146 536 237 c 2,11,-1
 536 723 l 1,12,-1
 609 723 l 1,13,-1
 609 240 l 2,14,15
 609 -10 609 -10 354 -10 c 0,0,1
EndSplineSet
EndChar

StartChar: V
Encoding: 86 86 57
Width: 629
GlyphClass: 2
Flags: W
LayerCount: 2
Fore
SplineSet
359 0 m 1,0,-1
 267 0 l 1,1,-1
 13 723 l 1,2,-1
 87 723 l 1,3,-1
 313 82 l 1,4,-1
 544 723 l 1,5,-1
 617 723 l 1,6,-1
 359 0 l 1,0,-1
EndSplineSet
EndChar

StartChar: W
Encoding: 87 87 58
Width: 949
GlyphClass: 2
Flags: W
AnchorPoint: "Anchor-5" 0 0 basechar 0
AnchorPoint: "Anchor-4" 0 0 basechar 0
AnchorPoint: "Anchor-3" 479 723 basechar 0
AnchorPoint: "Anchor-2" 0 0 basechar 0
LayerCount: 2
Fore
SplineSet
714 0 m 1,0,-1
 640 0 l 1,1,-1
 473 592 l 1,2,-1
 303 0 l 1,3,-1
 232 0 l 1,4,-1
 25 723 l 1,5,-1
 101 723 l 1,6,-1
 270 112 l 1,7,-1
 443 723 l 1,8,-1
 504 723 l 1,9,-1
 676 112 l 1,10,-1
 849 723 l 1,11,-1
 924 723 l 1,12,-1
 714 0 l 1,0,-1
EndSplineSet
EndChar

StartChar: X
Encoding: 88 88 59
Width: 638
GlyphClass: 2
Flags: W
LayerCount: 2
Fore
SplineSet
520 0 m 1,0,-1
 315 309 l 1,1,-1
 110 0 l 1,2,-1
 25 0 l 1,3,-1
 272 370 l 1,4,-1
 35 723 l 1,5,-1
 129 723 l 1,6,-1
 319 434 l 1,7,-1
 510 723 l 1,8,-1
 594 723 l 1,9,-1
 361 376 l 1,10,-1
 613 0 l 1,11,-1
 520 0 l 1,0,-1
EndSplineSet
EndChar

StartChar: Y
Encoding: 89 89 60
Width: 576
GlyphClass: 2
Flags: W
AnchorPoint: "Anchor-5" 0 0 basechar 0
AnchorPoint: "Anchor-4" 0 0 basechar 0
AnchorPoint: "Anchor-3" 291 723 basechar 0
AnchorPoint: "Anchor-2" 0 0 basechar 0
LayerCount: 2
Fore
SplineSet
326 309 m 1,0,-1
 326 0 l 1,1,-1
 253 0 l 1,2,-1
 253 310 l 1,3,-1
 8 723 l 1,4,-1
 88 723 l 1,5,-1
 290 376 l 1,6,-1
 488 723 l 1,7,-1
 568 723 l 1,8,-1
 326 309 l 1,0,-1
EndSplineSet
EndChar

StartChar: Z
Encoding: 90 90 61
Width: 612
GlyphClass: 2
Flags: W
AnchorPoint: "Anchor-5" 0 0 basechar 0
AnchorPoint: "Anchor-4" 317 0 basechar 0
AnchorPoint: "Anchor-3" 316 723 basechar 0
AnchorPoint: "Anchor-2" 0 0 basechar 0
LayerCount: 2
Fore
SplineSet
53 44 m 1,0,-1
 459 658 l 1,1,-1
 67 658 l 1,2,-1
 67 723 l 1,3,-1
 560 723 l 1,4,-1
 560 681 l 1,5,-1
 151 66 l 1,6,-1
 559 66 l 1,7,-1
 559 0 l 1,8,-1
 53 0 l 1,9,-1
 53 44 l 1,0,-1
EndSplineSet
EndChar

StartChar: bracketleft
Encoding: 91 91 62
Width: 289
GlyphClass: 2
Flags: W
LayerCount: 2
Fore
SplineSet
267 723 m 1,0,-1
 267 672 l 1,1,-1
 163 672 l 1,2,-1
 162 -110 l 1,3,-1
 266 -110 l 1,4,-1
 266 -161 l 1,5,-1
 96 -161 l 1,6,-1
 96 723 l 1,7,-1
 267 723 l 1,0,-1
EndSplineSet
EndChar

StartChar: backslash
Encoding: 92 92 63
Width: 338
GlyphClass: 2
Flags: W
LayerCount: 2
Fore
SplineSet
11 723 m 1,0,-1
 72 723 l 1,1,-1
 322 -46 l 1,2,-1
 260 -46 l 1,3,-1
 11 723 l 1,0,-1
EndSplineSet
EndChar

StartChar: bracketright
Encoding: 93 93 64
Width: 304
GlyphClass: 2
Flags: W
LayerCount: 2
Fore
SplineSet
21 723 m 1,0,-1
 21 672 l 1,1,-1
 125 672 l 1,2,-1
 126 -110 l 1,3,-1
 22 -110 l 1,4,-1
 22 -161 l 1,5,-1
 192 -161 l 1,6,-1
 192 723 l 1,7,-1
 21 723 l 1,0,-1
EndSplineSet
EndChar

StartChar: asciicircum
Encoding: 94 94 65
Width: 469
GlyphClass: 2
Flags: W
LayerCount: 2
Fore
SplineSet
232 436 m 1,0,-1
 111 132 l 1,1,-1
 49 132 l 1,2,-1
 195 491 l 2,3,4
 202 508 202 508 212 517 c 128,-1,5
 222 526 222 526 233 526 c 0,6,7
 243 526 243 526 253 517 c 128,-1,8
 263 508 263 508 270 491 c 2,9,-1
 417 130 l 1,10,-1
 353 130 l 1,11,-1
 232 436 l 1,0,-1
EndSplineSet
EndChar

StartChar: underscore
Encoding: 95 95 66
Width: 507
GlyphClass: 2
Flags: W
LayerCount: 2
Fore
SplineSet
442 -111 m 1,0,-1
 64 -111 l 1,1,-1
 64 -51 l 1,2,-1
 442 -50 l 1,3,-1
 442 -111 l 1,0,-1
EndSplineSet
EndChar

StartChar: grave
Encoding: 96 96 67
Width: 280
GlyphClass: 2
Flags: W
LayerCount: 2
Fore
SplineSet
269 637 m 1,0,-1
 256 596 l 1,1,-1
 8 671 l 1,2,-1
 29 732 l 1,3,-1
 269 637 l 1,0,-1
EndSplineSet
EndChar

StartChar: a
Encoding: 97 97 68
Width: 556
GlyphClass: 2
Flags: W
AnchorPoint: "Anchor-5" 0 0 basechar 0
AnchorPoint: "Anchor-4" 0 0 basechar 0
AnchorPoint: "Anchor-3" 277 517 basechar 0
AnchorPoint: "Anchor-2" 463 13 basechar 0
LayerCount: 2
Fore
SplineSet
98 29.5 m 128,-1,1
 52 69 52 69 52 137 c 0,2,3
 52 195 52 195 77.5 230 c 128,-1,4
 103 265 103 265 157 283 c 128,-1,5
 211 301 211 301 301 307 c 2,6,-1
 403 315 l 1,7,-1
 403 354 l 2,8,9
 403 408 403 408 369 439 c 128,-1,10
 335 470 335 470 277 470 c 0,11,12
 185 470 185 470 127 385 c 1,13,-1
 67 401 l 1,14,15
 93 460 93 460 148.5 493.5 c 128,-1,16
 204 527 204 527 280 527 c 0,17,18
 373 527 373 527 423.5 482.5 c 128,-1,19
 474 438 474 438 474 360 c 2,20,-1
 474 0 l 1,21,-1
 410 0 l 1,22,-1
 405 76 l 1,23,24
 331 -10 331 -10 221 -10 c 0,25,0
 144 -10 144 -10 98 29.5 c 128,-1,1
315.5 64 m 128,-1,27
 353 82 353 82 378 110.5 c 128,-1,28
 403 139 403 139 403 169 c 2,29,-1
 403 266 l 1,30,-1
 318 259 l 2,31,32
 247 254 247 254 205.5 242.5 c 128,-1,33
 164 231 164 231 144 207.5 c 128,-1,34
 124 184 124 184 124 144 c 0,35,36
 124 98 124 98 156 72 c 128,-1,37
 188 46 188 46 241 46 c 0,38,26
 278 46 278 46 315.5 64 c 128,-1,27
EndSplineSet
Substitution2: "Single Substitution lookup 30 subtable" ordfeminine
Substitution2: "'aalt' Access All Alternates in Latin lookup 0 subtable" ordfeminine
EndChar

StartChar: b
Encoding: 98 98 69
Width: 589
GlyphClass: 2
Flags: W
LayerCount: 2
Fore
SplineSet
206.5 18.5 m 128,-1,1
 163 47 163 47 147 77 c 1,2,-1
 140 0 l 1,3,-1
 83 0 l 1,4,-1
 83 743 l 1,5,-1
 156 743 l 1,6,-1
 156 447 l 1,7,8
 174 473 174 473 219 500 c 128,-1,9
 264 527 264 527 327 527 c 0,10,11
 431 527 431 527 484 453 c 128,-1,12
 537 379 537 379 537 260 c 0,13,14
 537 135 537 135 478 62.5 c 128,-1,15
 419 -10 419 -10 314 -10 c 0,16,0
 250 -10 250 -10 206.5 18.5 c 128,-1,1
416 102 m 128,-1,18
 461 155 461 155 461 261 c 0,19,20
 461 359 461 359 420.5 413 c 128,-1,21
 380 467 380 467 307 467 c 0,22,23
 258 467 258 467 218.5 442 c 128,-1,24
 179 417 179 417 156 374 c 1,25,-1
 156 193 l 2,26,27
 156 153 156 153 176.5 120 c 128,-1,28
 197 87 197 87 230 68 c 128,-1,29
 263 49 263 49 300 49 c 0,30,17
 371 49 371 49 416 102 c 128,-1,18
EndSplineSet
EndChar

StartChar: c
Encoding: 99 99 70
Width: 537
GlyphClass: 2
Flags: W
AnchorPoint: "Anchor-5" 0 0 basechar 0
AnchorPoint: "Anchor-4" 285 0 basechar 0
AnchorPoint: "Anchor-3" 283 517 basechar 0
AnchorPoint: "Anchor-2" 0 0 basechar 0
LayerCount: 2
Fore
SplineSet
479 391 m 1,0,-1
 419 375 l 1,1,2
 382 426 382 426 355.5 446 c 128,-1,3
 329 466 329 466 288 466 c 0,4,5
 212 466 212 466 167.5 409.5 c 128,-1,6
 123 353 123 353 123 258 c 0,7,8
 123 162 123 162 167.5 105 c 128,-1,9
 212 48 212 48 288 48 c 0,10,11
 335 48 335 48 366 72.5 c 128,-1,12
 397 97 397 97 426 147 c 1,13,-1
 485 130 l 1,14,15
 456 63 456 63 405.5 26.5 c 128,-1,16
 355 -10 355 -10 284 -10 c 0,17,18
 214 -10 214 -10 161.5 23.5 c 128,-1,19
 109 57 109 57 80.5 117 c 128,-1,20
 52 177 52 177 52 256 c 128,-1,21
 52 335 52 335 80.5 396.5 c 128,-1,22
 109 458 109 458 161.5 492.5 c 128,-1,23
 214 527 214 527 284 527 c 0,24,25
 417 527 417 527 479 391 c 1,0,-1
EndSplineSet
EndChar

StartChar: d
Encoding: 100 100 71
Width: 579
GlyphClass: 2
Flags: W
AnchorPoint: "Anchor-5" 596 678 basechar 0
AnchorPoint: "Anchor-4" 287 0 basechar 0
AnchorPoint: "Anchor-3" 0 0 basechar 0
AnchorPoint: "Anchor-2" 0 0 basechar 0
LayerCount: 2
Fore
SplineSet
109 58 m 128,-1,1
 52 126 52 126 52 252 c 0,2,3
 52 377 52 377 109.5 452 c 128,-1,4
 167 527 167 527 270 527 c 0,5,6
 314 527 314 527 351 511 c 128,-1,7
 388 495 388 495 423 462 c 1,8,-1
 423 743 l 1,9,-1
 497 743 l 1,10,-1
 497 0 l 1,11,-1
 438 0 l 1,12,-1
 434 75 l 1,13,14
 367 -10 367 -10 265 -10 c 0,15,0
 166 -10 166 -10 109 58 c 128,-1,1
352 68.5 m 128,-1,17
 385 88 385 88 404 119 c 128,-1,18
 423 150 423 150 423 182 c 2,19,-1
 423 386 l 1,20,21
 369 467 369 467 285 467 c 0,22,23
 210 467 210 467 167.5 412.5 c 128,-1,24
 125 358 125 358 125 255 c 128,-1,25
 125 152 125 152 167.5 100.5 c 128,-1,26
 210 49 210 49 279 49 c 0,27,16
 319 49 319 49 352 68.5 c 128,-1,17
EndSplineSet
EndChar

StartChar: e
Encoding: 101 101 72
Width: 555
GlyphClass: 2
Flags: W
AnchorPoint: "Anchor-5" 0 0 basechar 0
AnchorPoint: "Anchor-4" 277 0 basechar 0
AnchorPoint: "Anchor-3" 283 517 basechar 0
AnchorPoint: "Anchor-2" 384 20 basechar 0
LayerCount: 2
Fore
SplineSet
169.5 104 m 128,-1,1
 212 50 212 50 292 50 c 0,2,3
 395 50 395 50 428 134 c 1,4,-1
 495 121 l 1,5,6
 477 60 477 60 422 25 c 128,-1,7
 367 -10 367 -10 293 -10 c 0,8,9
 222 -10 222 -10 167.5 21.5 c 128,-1,10
 113 53 113 53 82.5 112.5 c 128,-1,11
 52 172 52 172 52 254 c 0,12,13
 52 380 52 380 113 453.5 c 128,-1,14
 174 527 174 527 283 527 c 0,15,16
 387 527 387 527 445 459.5 c 128,-1,17
 503 392 503 392 503 273 c 2,18,-1
 503 241 l 1,19,-1
 127 241 l 1,20,0
 127 158 127 158 169.5 104 c 128,-1,1
432 295 m 1,21,22
 432 372 432 372 394 420 c 128,-1,23
 356 468 356 468 282 468 c 0,24,25
 231 468 231 468 196 443 c 128,-1,26
 161 418 161 418 144 378.5 c 128,-1,27
 127 339 127 339 127 295 c 1,28,-1
 432 295 l 1,21,22
EndSplineSet
EndChar

StartChar: f
Encoding: 102 102 73
Width: 385
GlyphClass: 2
Flags: W
LayerCount: 2
Fore
SplineSet
349 462 m 1,0,-1
 217 462 l 1,1,-1
 217 0 l 1,2,-1
 144 0 l 1,3,-1
 144 462 l 1,4,-1
 30 462 l 1,5,-1
 30 517 l 1,6,-1
 144 517 l 1,7,-1
 144 599 l 2,8,9
 144 723 144 723 264 723 c 2,10,-1
 354 723 l 1,11,-1
 354 669 l 1,12,-1
 274 669 l 2,13,14
 242 669 242 669 229.5 651.5 c 128,-1,15
 217 634 217 634 217 597 c 2,16,-1
 217 517 l 1,17,-1
 349 517 l 1,18,-1
 349 462 l 1,0,-1
EndSplineSet
EndChar

StartChar: g
Encoding: 103 103 74
Width: 595
GlyphClass: 2
Flags: W
AnchorPoint: "Anchor-5" 0 0 basechar 0
AnchorPoint: "Anchor-4" 0 0 basechar 0
AnchorPoint: "Anchor-3" 293 517 basechar 0
AnchorPoint: "Anchor-2" 0 0 basechar 0
LayerCount: 2
Fore
SplineSet
102.5 -134 m 128,-1,1
 38 -97 38 -97 38 -32 c 0,2,3
 38 9 38 9 63 34 c 128,-1,4
 88 59 88 59 109 71 c 128,-1,5
 130 83 130 83 135 86 c 1,6,7
 132 88 132 88 117.5 96 c 128,-1,8
 103 104 103 104 94 117 c 128,-1,9
 85 130 85 130 85 147 c 0,10,11
 85 171 85 171 107.5 190 c 128,-1,12
 130 209 130 209 171 219 c 1,13,14
 122 245 122 245 100 279 c 128,-1,15
 78 313 78 313 78 361 c 0,16,17
 78 438 78 438 137 481.5 c 128,-1,18
 196 525 196 525 295 525 c 0,19,20
 343 525 343 525 377.5 513.5 c 128,-1,21
 412 502 412 502 443 479 c 1,22,-1
 568 531 l 1,23,-1
 568 455 l 1,24,-1
 477 437 l 1,25,26
 484 422 484 422 490 399.5 c 128,-1,27
 496 377 496 377 496 361 c 0,28,29
 496 291 496 291 442.5 245.5 c 128,-1,30
 389 200 389 200 287 200 c 1,31,-1
 264 201 l 2,32,33
 206 200 206 200 181 188.5 c 128,-1,34
 156 177 156 177 156 161 c 0,35,36
 156 146 156 146 177.5 140 c 128,-1,37
 199 134 199 134 258 130 c 2,38,-1
 372 123 l 2,39,40
 454 118 454 118 494 82 c 128,-1,41
 534 46 534 46 534 -14 c 0,42,43
 534 -88 534 -88 469.5 -129.5 c 128,-1,44
 405 -171 405 -171 287 -171 c 0,45,0
 167 -171 167 -171 102.5 -134 c 128,-1,1
391 280 m 128,-1,47
 426 308 426 308 426 361 c 0,48,49
 426 415 426 415 390.5 445 c 128,-1,50
 355 475 355 475 289 475 c 0,51,52
 224 475 224 475 187.5 444.5 c 128,-1,53
 151 414 151 414 151 361 c 0,54,55
 151 309 151 309 187 280.5 c 128,-1,56
 223 252 223 252 289 252 c 0,57,46
 356 252 356 252 391 280 c 128,-1,47
421.5 -96 m 128,-1,59
 461 -72 461 -72 461 -23 c 0,60,61
 461 14 461 14 437.5 34 c 128,-1,62
 414 54 414 54 362 57 c 2,63,-1
 207 67 l 2,64,65
 189 69 189 69 166 57 c 128,-1,66
 143 45 143 45 127 23 c 128,-1,67
 111 1 111 1 111 -24 c 0,68,69
 111 -71 111 -71 160 -95.5 c 128,-1,70
 209 -120 209 -120 301 -120 c 0,71,58
 382 -120 382 -120 421.5 -96 c 128,-1,59
EndSplineSet
EndChar

StartChar: h
Encoding: 104 104 75
Width: 583
GlyphClass: 2
Flags: W
AnchorPoint: "Anchor-5" 0 0 basechar 0
AnchorPoint: "Anchor-4" 300 0 basechar 0
AnchorPoint: "Anchor-3" 347 517 basechar 0
AnchorPoint: "Anchor-2" 0 0 basechar 0
LayerCount: 2
Fore
SplineSet
83 743 m 1,0,-1
 153 743 l 1,1,-1
 153 443 l 1,2,3
 195 475 195 475 219.5 490.5 c 128,-1,4
 244 506 244 506 272.5 515.5 c 128,-1,5
 301 525 301 525 337 525 c 0,6,7
 413 525 413 525 456.5 484 c 128,-1,8
 500 443 500 443 500 375 c 2,9,-1
 500 0 l 1,10,-1
 427 0 l 1,11,-1
 427 358 l 2,12,13
 427 409 427 409 400.5 436 c 128,-1,14
 374 463 374 463 320 463 c 0,15,16
 277 463 277 463 241.5 444.5 c 128,-1,17
 206 426 206 426 156 383 c 1,18,-1
 156 0 l 1,19,-1
 83 0 l 1,20,-1
 83 743 l 1,0,-1
EndSplineSet
EndChar

StartChar: i
Encoding: 105 105 76
Width: 245
GlyphClass: 2
Flags: W
LayerCount: 2
Fore
SplineSet
163 632 m 1,0,-1
 83 632 l 1,1,-1
 83 743 l 1,2,-1
 163 743 l 1,3,-1
 163 632 l 1,0,-1
160 0 m 1,4,-1
 86 0 l 1,5,-1
 86 517 l 1,6,-1
 160 517 l 1,7,-1
 160 0 l 1,4,-1
EndSplineSet
Substitution2: "Single Substitution lookup 28 subtable" dotlessi
Substitution2: "'locl' Localized Forms in Latin lookup 10 subtable" i.loclTRK
Substitution2: "'locl' Localized Forms in Latin lookup 9 subtable" i.loclTRK
Substitution2: "'locl' Localized Forms in Latin lookup 8 subtable" i.loclTRK
Substitution2: "'locl' Localized Forms in Latin lookup 7 subtable" i.loclTRK
Substitution2: "'locl' Localized Forms in Latin lookup 6 subtable" i.loclTRK
AlternateSubs2: "'aalt' Access All Alternates in Latin lookup 1 subtable" dotlessi i.loclTRK
EndChar

StartChar: j
Encoding: 106 106 77
Width: 268
GlyphClass: 2
Flags: W
LayerCount: 2
Fore
SplineSet
176 632 m 1,0,-1
 95 632 l 1,1,-1
 95 743 l 1,2,-1
 176 743 l 1,3,-1
 176 632 l 1,0,-1
143 -134.5 m 128,-1,5
 114 -166 114 -166 41 -166 c 0,6,7
 6 -166 6 -166 -8 -161.5 c 128,-1,8
 -22 -157 -22 -157 -22 -155 c 2,9,-1
 -23 -107 l 1,10,-1
 32 -105 l 2,11,12
 69 -103 69 -103 84 -86 c 128,-1,13
 99 -69 99 -69 99 -29 c 2,14,-1
 99 517 l 1,15,-1
 172 517 l 1,16,-1
 172 -33 l 2,17,4
 172 -103 172 -103 143 -134.5 c 128,-1,5
EndSplineSet
Substitution2: "Single Substitution lookup 28 subtable" uni0237
Substitution2: "'aalt' Access All Alternates in Latin lookup 0 subtable" uni0237
EndChar

StartChar: k
Encoding: 107 107 78
Width: 554
GlyphClass: 2
Flags: W
AnchorPoint: "Anchor-5" 0 0 basechar 0
AnchorPoint: "Anchor-4" 276 0 basechar 0
AnchorPoint: "Anchor-3" 0 0 basechar 0
AnchorPoint: "Anchor-2" 0 0 basechar 0
LayerCount: 2
Fore
SplineSet
440 0 m 1,0,-1
 270 273 l 1,1,-1
 156 155 l 1,2,-1
 156 0 l 1,3,-1
 83 0 l 1,4,-1
 83 743 l 1,5,-1
 156 743 l 1,6,-1
 156 240 l 1,7,-1
 420 517 l 1,8,-1
 505 517 l 1,9,-1
 320 323 l 1,10,-1
 520 0 l 1,11,-1
 440 0 l 1,0,-1
EndSplineSet
EndChar

StartChar: l
Encoding: 108 108 79
Width: 282
GlyphClass: 2
Flags: W
AnchorPoint: "Anchor-5" 280 732 basechar 0
AnchorPoint: "Anchor-4" 113 0 basechar 0
AnchorPoint: "Anchor-3" 116 763 basechar 0
AnchorPoint: "Anchor-2" 0 0 basechar 0
LayerCount: 2
Fore
SplineSet
109 34 m 128,-1,1
 83 70 83 70 83 133 c 2,2,-1
 83 743 l 1,3,-1
 155 743 l 1,4,-1
 155 138 l 2,5,6
 155 96 155 96 171 75.5 c 128,-1,7
 187 55 187 55 213 54 c 2,8,-1
 242 53 l 1,9,-1
 242 5 l 1,10,11
 218 -2 218 -2 201 -2 c 0,12,0
 135 -2 135 -2 109 34 c 128,-1,1
EndSplineSet
Substitution2: "'ss01' Style Set 1 in Latin lookup 27 subtable" l.ss01
Substitution2: "'salt' Stylistic Alternatives in Latin lookup 26 subtable" l.ss01
Substitution2: "'aalt' Access All Alternates in Latin lookup 0 subtable" l.ss01
EndChar

StartChar: m
Encoding: 109 109 80
Width: 896
GlyphClass: 2
Flags: W
LayerCount: 2
Fore
SplineSet
83 517 m 1,0,-1
 153 517 l 1,1,-1
 153 443 l 1,2,3
 175 478 175 478 216 502.5 c 128,-1,4
 257 527 257 527 312 527 c 0,5,6
 369 527 369 527 412.5 506 c 128,-1,7
 456 485 456 485 475 444 c 1,8,9
 499 484 499 484 540.5 505.5 c 128,-1,10
 582 527 582 527 637 527 c 0,11,12
 711 527 711 527 762.5 486 c 128,-1,13
 814 445 814 445 814 341 c 2,14,-1
 814 0 l 1,15,-1
 741 0 l 1,16,-1
 741 336 l 2,17,18
 741 409 741 409 708 438 c 128,-1,19
 675 467 675 467 618 467 c 128,-1,20
 561 467 561 467 522.5 439 c 128,-1,21
 484 411 484 411 484 349 c 2,22,-1
 484 0 l 1,23,-1
 411 0 l 1,24,-1
 411 368 l 2,25,26
 411 415 411 415 376.5 441 c 128,-1,27
 342 467 342 467 289 467 c 0,28,29
 238 467 238 467 197 438.5 c 128,-1,30
 156 410 156 410 156 356 c 2,31,-1
 156 0 l 1,32,-1
 83 0 l 1,33,-1
 83 517 l 1,0,-1
EndSplineSet
EndChar

StartChar: n
Encoding: 110 110 81
Width: 583
GlyphClass: 2
Flags: W
AnchorPoint: "Anchor-5" 0 0 basechar 0
AnchorPoint: "Anchor-4" 292 0 basechar 0
AnchorPoint: "Anchor-3" 300 517 basechar 0
AnchorPoint: "Anchor-2" 0 0 basechar 0
LayerCount: 2
Fore
SplineSet
83 517 m 1,0,-1
 153 517 l 1,1,-1
 153 443 l 1,2,3
 175 480 175 480 217.5 502.5 c 128,-1,4
 260 525 260 525 319 525 c 0,5,6
 398 525 398 525 449 476.5 c 128,-1,7
 500 428 500 428 500 338 c 2,8,-1
 500 0 l 1,9,-1
 427 0 l 1,10,-1
 427 332 l 2,11,12
 427 395 427 395 393.5 429 c 128,-1,13
 360 463 360 463 303 463 c 0,14,15
 240 463 240 463 198 434.5 c 128,-1,16
 156 406 156 406 156 352 c 2,17,-1
 156 0 l 1,18,-1
 83 0 l 1,19,-1
 83 517 l 1,0,-1
EndSplineSet
EndChar

StartChar: o
Encoding: 111 111 82
Width: 567
GlyphClass: 2
Flags: W
AnchorPoint: "Anchor-5" 0 0 basechar 0
AnchorPoint: "Anchor-4" 282 0 basechar 0
AnchorPoint: "Anchor-3" 285 517 basechar 0
AnchorPoint: "Anchor-2" 349 10 basechar 0
LayerCount: 2
Fore
SplineSet
113.5 62.5 m 128,-1,1
 52 135 52 135 52 255 c 0,2,3
 52 335 52 335 80 396.5 c 128,-1,4
 108 458 108 458 160.5 492.5 c 128,-1,5
 213 527 213 527 285 527 c 0,6,7
 356 527 356 527 408 492.5 c 128,-1,8
 460 458 460 458 487.5 397 c 128,-1,9
 515 336 515 336 515 257 c 128,-1,10
 515 178 515 178 487.5 117.5 c 128,-1,11
 460 57 460 57 408 23.5 c 128,-1,12
 356 -10 356 -10 284 -10 c 0,13,0
 175 -10 175 -10 113.5 62.5 c 128,-1,1
402 106.5 m 128,-1,15
 441 163 441 163 441 258 c 128,-1,16
 441 353 441 353 401.5 410 c 128,-1,17
 362 467 362 467 285 467 c 0,18,19
 207 467 207 467 166.5 409.5 c 128,-1,20
 126 352 126 352 126 258 c 0,21,22
 126 165 126 165 166.5 107.5 c 128,-1,23
 207 50 207 50 285 50 c 128,-1,14
 363 50 363 50 402 106.5 c 128,-1,15
EndSplineSet
Substitution2: "Single Substitution lookup 30 subtable" ordmasculine
Substitution2: "'aalt' Access All Alternates in Latin lookup 0 subtable" ordmasculine
EndChar

StartChar: p
Encoding: 112 112 83
Width: 588
GlyphClass: 2
Flags: W
LayerCount: 2
Fore
SplineSet
83 517 m 1,0,-1
 154 517 l 1,1,-1
 154 444 l 1,2,3
 181 477 181 477 218.5 502 c 128,-1,4
 256 527 256 527 318 527 c 128,-1,5
 380 527 380 527 429.5 497.5 c 128,-1,6
 479 468 479 468 507.5 409.5 c 128,-1,7
 536 351 536 351 536 266 c 128,-1,8
 536 181 536 181 507 118.5 c 128,-1,9
 478 56 478 56 425.5 23 c 128,-1,10
 373 -10 373 -10 305 -10 c 0,11,12
 262 -10 262 -10 226 4 c 128,-1,13
 190 18 190 18 156 52 c 1,14,-1
 156 -161 l 1,15,-1
 83 -161 l 1,16,-1
 83 517 l 1,0,-1
382.5 74.5 m 128,-1,18
 421 100 421 100 443 148.5 c 128,-1,19
 465 197 465 197 465 263 c 0,20,21
 465 330 465 330 442.5 376 c 128,-1,22
 420 422 420 422 383 444.5 c 128,-1,23
 346 467 346 467 301 467 c 0,24,25
 261 467 261 467 227.5 448 c 128,-1,26
 194 429 194 429 175 400 c 128,-1,27
 156 371 156 371 156 343 c 2,28,-1
 156 127 l 1,29,30
 216 49 216 49 295 49 c 0,31,17
 344 49 344 49 382.5 74.5 c 128,-1,18
EndSplineSet
EndChar

StartChar: q
Encoding: 113 113 84
Width: 589
GlyphClass: 2
Flags: W
LayerCount: 2
Fore
SplineSet
433 -161 m 1,0,-1
 433 50 l 1,1,2
 395 18 395 18 359 4 c 128,-1,3
 323 -10 323 -10 280 -10 c 0,4,5
 212 -10 212 -10 160.5 23 c 128,-1,6
 109 56 109 56 80.5 118.5 c 128,-1,7
 52 181 52 181 52 266 c 128,-1,8
 52 351 52 351 80.5 409.5 c 128,-1,9
 109 468 109 468 158.5 497.5 c 128,-1,10
 208 527 208 527 270 527 c 0,11,12
 313 527 313 527 345.5 513.5 c 128,-1,13
 378 500 378 500 393.5 486.5 c 128,-1,14
 409 473 409 473 434 448 c 1,15,-1
 434 517 l 1,16,-1
 506 517 l 1,17,-1
 506 -161 l 1,18,-1
 433 -161 l 1,0,-1
433 137 m 1,19,-1
 433 335 l 2,20,21
 433 368 433 368 414.5 399.5 c 128,-1,22
 396 431 396 431 363 450.5 c 128,-1,23
 330 470 330 470 289 470 c 0,24,25
 220 470 220 470 173.5 417.5 c 128,-1,26
 127 365 127 365 127 264 c 0,27,28
 127 197 127 197 149 148 c 128,-1,29
 171 99 171 99 209 72.5 c 128,-1,30
 247 46 247 46 296 46 c 0,31,32
 371 46 371 46 433 137 c 1,19,-1
EndSplineSet
EndChar

StartChar: r
Encoding: 114 114 85
Width: 377
GlyphClass: 2
Flags: W
AnchorPoint: "Anchor-5" 0 0 basechar 0
AnchorPoint: "Anchor-4" 121 0 basechar 0
AnchorPoint: "Anchor-3" 208 517 basechar 0
AnchorPoint: "Anchor-2" 0 0 basechar 0
LayerCount: 2
Fore
SplineSet
83 517 m 1,0,-1
 152 517 l 1,1,-1
 152 413 l 1,2,3
 179 462 179 462 234 494.5 c 128,-1,4
 289 527 289 527 344 527 c 1,5,-1
 344 456 l 1,6,7
 296 458 296 458 252.5 438 c 128,-1,8
 209 418 209 418 182.5 386 c 128,-1,9
 156 354 156 354 156 321 c 2,10,-1
 156 0 l 1,11,-1
 83 0 l 1,12,-1
 83 517 l 1,0,-1
EndSplineSet
EndChar

StartChar: s
Encoding: 115 115 86
Width: 504
GlyphClass: 2
Flags: W
AnchorPoint: "Anchor-5" 0 0 basechar 0
AnchorPoint: "Anchor-4" 250 0 basechar 0
AnchorPoint: "Anchor-3" 244 517 basechar 0
AnchorPoint: "Anchor-2" 0 0 basechar 0
LayerCount: 2
Fore
SplineSet
114.5 28.5 m 128,-1,1
 60 67 60 67 47 132 c 1,2,-1
 111 144 l 1,3,4
 139 47 139 47 251 47 c 0,5,6
 308 47 308 47 348.5 71.5 c 128,-1,7
 389 96 389 96 389 137 c 0,8,9
 389 202 389 202 308 222 c 2,10,-1
 198 246 l 2,11,12
 130 261 130 261 98 293.5 c 128,-1,13
 66 326 66 326 66 376 c 0,14,15
 66 447 66 447 117 487 c 128,-1,16
 168 527 168 527 256 527 c 0,17,18
 346 527 346 527 395.5 486 c 128,-1,19
 445 445 445 445 448 381 c 1,20,-1
 384 374 l 1,21,22
 365 470 365 470 254 470 c 0,23,24
 204 470 204 470 169.5 449.5 c 128,-1,25
 135 429 135 429 135 380 c 0,26,27
 135 354 135 354 154 336 c 128,-1,28
 173 318 173 318 224 305 c 2,29,-1
 334 277 l 2,30,31
 399 261 399 261 428 224 c 128,-1,32
 457 187 457 187 457 140 c 0,33,34
 457 96 457 96 431 62 c 128,-1,35
 405 28 405 28 358 9 c 128,-1,36
 311 -10 311 -10 250 -10 c 0,37,0
 169 -10 169 -10 114.5 28.5 c 128,-1,1
EndSplineSet
EndChar

StartChar: t
Encoding: 116 116 87
Width: 381
GlyphClass: 2
Flags: W
AnchorPoint: "Anchor-5" 374 749 basechar 0
AnchorPoint: "Anchor-4" 258 0 basechar 0
AnchorPoint: "Anchor-3" 0 0 basechar 0
AnchorPoint: "Anchor-2" 0 0 basechar 0
LayerCount: 2
Fore
SplineSet
205 462 m 1,0,-1
 205 128 l 2,1,2
 205 84 205 84 218 68.5 c 128,-1,3
 231 53 231 53 259 53 c 2,4,-1
 328 53 l 1,5,-1
 328 6 l 1,6,7
 307 -2 307 -2 256 -2 c 0,8,9
 186 -2 186 -2 159 27.5 c 128,-1,10
 132 57 132 57 132 122 c 2,11,-1
 132 462 l 1,12,-1
 48 462 l 1,13,-1
 48 517 l 1,14,-1
 134 517 l 1,15,-1
 140 689 l 1,16,-1
 205 689 l 1,17,-1
 205 517 l 1,18,-1
 323 517 l 1,19,-1
 323 462 l 1,20,-1
 205 462 l 1,0,-1
EndSplineSet
EndChar

StartChar: u
Encoding: 117 117 88
Width: 583
GlyphClass: 2
Flags: W
AnchorPoint: "Anchor-5" 0 0 basechar 0
AnchorPoint: "Anchor-4" 290 0 basechar 0
AnchorPoint: "Anchor-3" 282 517 basechar 0
AnchorPoint: "Anchor-2" 486 11 basechar 0
LayerCount: 2
Fore
SplineSet
187 9 m 128,-1,1
 142 27 142 27 112.5 67 c 128,-1,2
 83 107 83 107 83 169 c 2,3,-1
 83 519 l 1,4,-1
 156 519 l 1,5,-1
 156 175 l 2,6,7
 156 110 156 110 196.5 80 c 128,-1,8
 237 50 237 50 288 50 c 0,9,10
 345 50 345 50 385.5 84.5 c 128,-1,11
 426 119 426 119 427 182 c 2,12,-1
 427 519 l 1,13,-1
 500 519 l 1,14,-1
 499 1 l 1,15,-1
 440 1 l 1,16,-1
 437 82 l 1,17,18
 421 46 421 46 375 18.5 c 128,-1,19
 329 -9 329 -9 279 -9 c 0,20,0
 232 -9 232 -9 187 9 c 128,-1,1
EndSplineSet
EndChar

StartChar: v
Encoding: 118 118 89
Width: 525
GlyphClass: 2
Flags: W
LayerCount: 2
Fore
SplineSet
293 0 m 1,0,-1
 232 0 l 1,1,-1
 23 517 l 1,2,-1
 94 517 l 1,3,-1
 263 93 l 1,4,-1
 433 517 l 1,5,-1
 502 517 l 1,6,-1
 293 0 l 1,0,-1
EndSplineSet
EndChar

StartChar: w
Encoding: 119 119 90
Width: 770
GlyphClass: 2
Flags: W
AnchorPoint: "Anchor-5" 0 0 basechar 0
AnchorPoint: "Anchor-4" 0 0 basechar 0
AnchorPoint: "Anchor-3" 389 517 basechar 0
AnchorPoint: "Anchor-2" 0 0 basechar 0
LayerCount: 2
Fore
SplineSet
587 0 m 1,0,-1
 514 0 l 1,1,-1
 384 406 l 1,2,-1
 261 0 l 1,3,-1
 189 0 l 1,4,-1
 27 517 l 1,5,-1
 97 517 l 1,6,-1
 227 92 l 1,7,-1
 356 517 l 1,8,-1
 414 517 l 1,9,-1
 549 93 l 1,10,-1
 673 517 l 1,11,-1
 743 517 l 1,12,-1
 587 0 l 1,0,-1
EndSplineSet
EndChar

StartChar: x
Encoding: 120 120 91
Width: 528
GlyphClass: 2
Flags: W
LayerCount: 2
Fore
SplineSet
424 0 m 1,0,-1
 264 215 l 1,1,-1
 104 0 l 1,2,-1
 22 0 l 1,3,-1
 222 268 l 1,4,-1
 38 517 l 1,5,-1
 120 517 l 1,6,-1
 264 322 l 1,7,-1
 408 517 l 1,8,-1
 490 517 l 1,9,-1
 306 268 l 1,10,-1
 506 0 l 1,11,-1
 424 0 l 1,0,-1
EndSplineSet
EndChar

StartChar: y
Encoding: 121 121 92
Width: 516
GlyphClass: 2
Flags: W
AnchorPoint: "Anchor-5" 0 0 basechar 0
AnchorPoint: "Anchor-4" 0 0 basechar 0
AnchorPoint: "Anchor-3" 265 517 basechar 0
AnchorPoint: "Anchor-2" 0 0 basechar 0
LayerCount: 2
Fore
SplineSet
76.5 -162.5 m 128,-1,1
 60 -160 60 -160 52.5 -157.5 c 128,-1,2
 45 -155 45 -155 44 -154 c 2,3,-1
 44 -106 l 1,4,-1
 98 -107 l 2,5,6
 147 -108 147 -108 170 -91.5 c 128,-1,7
 193 -75 193 -75 204 -47 c 2,8,-1
 225 9 l 1,9,-1
 23 517 l 1,10,-1
 98 517 l 1,11,-1
 260 95 l 1,12,-1
 422 517 l 1,13,-1
 493 517 l 1,14,-1
 272 -52 l 2,15,16
 247 -114 247 -114 209 -139.5 c 128,-1,17
 171 -165 171 -165 118 -165 c 0,18,0
 93 -165 93 -165 76.5 -162.5 c 128,-1,1
EndSplineSet
EndChar

StartChar: z
Encoding: 122 122 93
Width: 481
GlyphClass: 2
Flags: W
AnchorPoint: "Anchor-5" 0 0 basechar 0
AnchorPoint: "Anchor-4" 0 0 basechar 0
AnchorPoint: "Anchor-3" 257 517 basechar 0
AnchorPoint: "Anchor-2" 0 0 basechar 0
LayerCount: 2
Fore
SplineSet
43 50 m 1,0,-1
 350 464 l 1,1,-1
 64 464 l 1,2,-1
 64 517 l 1,3,-1
 436 517 l 1,4,-1
 436 466 l 1,5,-1
 130 53 l 1,6,-1
 442 53 l 1,7,-1
 442 0 l 1,8,-1
 43 0 l 1,9,-1
 43 50 l 1,0,-1
EndSplineSet
EndChar

StartChar: braceleft
Encoding: 123 123 94
Width: 304
GlyphClass: 2
Flags: W
LayerCount: 2
Fore
SplineSet
151.5 696.5 m 128,-1,1
 184 723 184 723 239 723 c 2,2,-1
 282 723 l 1,3,-1
 282 672 l 1,4,-1
 249 672 l 2,5,6
 214 672 214 672 200.5 660 c 128,-1,7
 187 648 187 648 187 621 c 2,8,-1
 187 403 l 2,9,10
 186 349 186 349 158.5 319.5 c 128,-1,11
 131 290 131 290 90 286 c 0,12,13
 84 285 84 285 83.5 282.5 c 128,-1,14
 83 280 83 280 90 279 c 0,15,16
 131 276 131 276 158.5 247.5 c 128,-1,17
 186 219 186 219 187 163 c 2,18,-1
 187 -57 l 2,19,20
 187 -86 187 -86 200.5 -98 c 128,-1,21
 214 -110 214 -110 249 -110 c 2,22,-1
 282 -110 l 1,23,-1
 282 -161 l 1,24,-1
 241 -161 l 2,25,26
 183 -161 183 -161 151 -134 c 128,-1,27
 119 -107 119 -107 119 -62 c 2,28,-1
 119 159 l 2,29,30
 119 198 119 198 89 228 c 128,-1,31
 59 258 59 258 6 258 c 1,32,-1
 6 307 l 1,33,34
 62 308 62 308 90.5 336 c 128,-1,35
 119 364 119 364 119 410 c 2,36,-1
 119 626 l 2,37,0
 119 670 119 670 151.5 696.5 c 128,-1,1
EndSplineSet
EndChar

StartChar: bar
Encoding: 124 124 95
Width: 257
GlyphClass: 2
Flags: W
LayerCount: 2
Fore
SplineSet
99 -161 m 1,0,-1
 99 826 l 1,1,-1
 158 826 l 1,2,-1
 158 -161 l 1,3,-1
 99 -161 l 1,0,-1
EndSplineSet
EndChar

StartChar: braceright
Encoding: 125 125 96
Width: 316
GlyphClass: 2
Flags: W
LayerCount: 2
Fore
SplineSet
152.5 696.5 m 128,-1,1
 120 723 120 723 65 723 c 2,2,-1
 22 723 l 1,3,-1
 22 672 l 1,4,-1
 55 672 l 2,5,6
 90 672 90 672 103.5 660 c 128,-1,7
 117 648 117 648 117 621 c 2,8,-1
 117 403 l 2,9,10
 118 349 118 349 145.5 319.5 c 128,-1,11
 173 290 173 290 214 286 c 0,12,13
 220 285 220 285 220.5 282.5 c 128,-1,14
 221 280 221 280 214 279 c 0,15,16
 173 276 173 276 145.5 247.5 c 128,-1,17
 118 219 118 219 117 163 c 2,18,-1
 117 -57 l 2,19,20
 117 -86 117 -86 103.5 -98 c 128,-1,21
 90 -110 90 -110 55 -110 c 2,22,-1
 22 -110 l 1,23,-1
 22 -161 l 1,24,-1
 63 -161 l 2,25,26
 121 -161 121 -161 153 -134 c 128,-1,27
 185 -107 185 -107 185 -62 c 2,28,-1
 185 159 l 2,29,30
 185 198 185 198 215 228 c 128,-1,31
 245 258 245 258 298 258 c 1,32,-1
 298 307 l 1,33,34
 242 308 242 308 213.5 336 c 128,-1,35
 185 364 185 364 185 410 c 2,36,-1
 185 626 l 2,37,0
 185 670 185 670 152.5 696.5 c 128,-1,1
EndSplineSet
EndChar

StartChar: asciitilde
Encoding: 126 126 97
Width: 553
GlyphClass: 2
Flags: W
LayerCount: 2
Fore
SplineSet
444 330 m 128,-1,1
 413 314 413 314 371 314 c 0,2,3
 344 314 344 314 322.5 320.5 c 128,-1,4
 301 327 301 327 272 340 c 0,5,6
 247 351 247 351 228.5 357 c 128,-1,7
 210 363 210 363 188 363 c 0,8,9
 153 363 153 363 128 349 c 128,-1,10
 103 335 103 335 81 311 c 1,11,-1
 60 356 l 1,12,13
 90 386 90 386 118.5 401.5 c 128,-1,14
 147 417 147 417 186 417 c 0,15,16
 211 417 211 417 233 410.5 c 128,-1,17
 255 404 255 404 283 391 c 0,18,19
 312 379 312 379 330.5 373 c 128,-1,20
 349 367 349 367 371 367 c 0,21,22
 405 367 405 367 427.5 381 c 128,-1,23
 450 395 450 395 469 418 c 1,24,-1
 492 372 l 1,25,0
 475 346 475 346 444 330 c 128,-1,1
EndSplineSet
EndChar

StartChar: exclamdown
Encoding: 161 161 99
Width: 242
GlyphClass: 2
Flags: W
LayerCount: 2
Fore
SplineSet
74 415 m 1,0,-1
 74 517 l 1,1,-1
 166 517 l 1,2,-1
 166 415 l 1,3,-1
 74 415 l 1,0,-1
76 -161 m 1,4,-1
 95 347 l 1,5,-1
 146 347 l 1,6,-1
 165 -161 l 1,7,-1
 76 -161 l 1,4,-1
EndSplineSet
EndChar

StartChar: cent
Encoding: 162 162 100
Width: 537
GlyphClass: 2
Flags: W
AnchorPoint: "Anchor-1" 286 628 basechar 0
AnchorPoint: "Anchor-0" 288 111 basechar 0
LayerCount: 2
Fore
SplineSet
312 102 m 1,0,-1
 312 0 l 1,1,-1
 254 0 l 1,2,-1
 254 103 l 1,3,4
 162 115 162 115 108.5 186.5 c 128,-1,5
 55 258 55 258 55 367 c 0,6,7
 55 477 55 477 108.5 550.5 c 128,-1,8
 162 624 162 624 254 636 c 1,9,-1
 254 723 l 1,10,-1
 312 723 l 1,11,-1
 312 637 l 1,12,13
 426 625 426 625 482 502 c 1,14,-1
 422 486 l 1,15,16
 385 537 385 537 358.5 557 c 128,-1,17
 332 577 332 577 291 577 c 0,18,19
 215 577 215 577 170.5 520.5 c 128,-1,20
 126 464 126 464 126 369 c 0,21,22
 126 273 126 273 170.5 216 c 128,-1,23
 215 159 215 159 291 159 c 0,24,25
 338 159 338 159 369 183.5 c 128,-1,26
 400 208 400 208 429 258 c 1,27,-1
 488 241 l 1,28,29
 432 115 432 115 312 102 c 1,0,-1
EndSplineSet
EndChar

StartChar: sterling
Encoding: 163 163 101
Width: 601
GlyphClass: 2
Flags: W
LayerCount: 2
Fore
SplineSet
14 64 m 1,0,-1
 52 64 l 2,1,2
 93 64 93 64 118.5 102 c 128,-1,3
 144 140 144 140 144 214 c 0,4,5
 144 267 144 267 132 346 c 1,6,-1
 32 346 l 1,7,-1
 32 397 l 1,8,-1
 123 397 l 1,9,-1
 107 477 l 2,10,11
 100 506 100 506 100 537 c 0,12,13
 100 597 100 597 128 641.5 c 128,-1,14
 156 686 156 686 202.5 709.5 c 128,-1,15
 249 733 249 733 304 733 c 0,16,17
 370 733 370 733 424 701 c 128,-1,18
 478 669 478 669 497 623 c 1,19,-1
 432 598 l 1,20,21
 414 633 414 633 386 650 c 128,-1,22
 358 667 358 667 312 667 c 0,23,24
 255 667 255 667 218 635 c 128,-1,25
 181 603 181 603 181 546 c 0,26,27
 181 515 181 515 188 475 c 128,-1,28
 195 435 195 435 206 398 c 1,29,-1
 373 398 l 1,30,-1
 373 347 l 1,31,-1
 213 347 l 1,32,33
 225 277 225 277 222 228 c 0,34,35
 220 124 220 124 164 65 c 1,36,-1
 352 65 l 2,37,38
 406 65 406 65 437.5 83.5 c 128,-1,39
 469 102 469 102 486 147 c 1,40,-1
 550 129 l 1,41,42
 504 0 504 0 356 0 c 2,43,-1
 14 0 l 1,44,-1
 14 64 l 1,0,-1
EndSplineSet
EndChar

StartChar: currency
Encoding: 164 164 102
Width: 524
GlyphClass: 2
Flags: W
LayerCount: 2
Fore
SplineSet
159 213 m 0,0,1
 151 218 151 218 146 212 c 2,2,-1
 94 159 l 1,3,-1
 56 200 l 1,4,-1
 113 256 l 1,5,6
 79 305 79 305 79 364 c 0,7,8
 79 418 79 418 109 464 c 0,9,10
 114 471 114 471 108 477 c 2,11,-1
 57 529 l 1,12,-1
 96 568 l 1,13,-1
 153 509 l 1,14,15
 201 544 201 544 260 544 c 0,16,17
 317 544 317 544 360 513 c 0,18,19
 366 508 366 508 372 514 c 2,20,-1
 425 568 l 1,21,-1
 464 528 l 1,22,-1
 405 470 l 1,23,24
 440 421 440 421 440 364 c 0,25,26
 440 306 440 306 410 264 c 0,27,28
 405 258 405 258 410 252 c 2,29,-1
 464 201 l 1,30,-1
 426 161 l 1,31,-1
 368 219 l 1,32,33
 318 182 318 182 261 182 c 128,-1,34
 204 182 204 182 159 213 c 0,0,1
347.5 278 m 128,-1,36
 382 314 382 314 382 364 c 0,37,38
 382 396 382 396 366.5 424 c 128,-1,39
 351 452 351 452 323.5 469 c 128,-1,40
 296 486 296 486 262 486 c 128,-1,41
 228 486 228 486 200 469 c 128,-1,42
 172 452 172 452 156 424 c 128,-1,43
 140 396 140 396 140 364 c 128,-1,44
 140 332 140 332 156 304 c 128,-1,45
 172 276 172 276 200 259 c 128,-1,46
 228 242 228 242 262 242 c 0,47,35
 313 242 313 242 347.5 278 c 128,-1,36
EndSplineSet
EndChar

StartChar: yen
Encoding: 165 165 103
Width: 592
GlyphClass: 2
Flags: W
LayerCount: 2
Fore
SplineSet
350 335 m 1,0,-1
 495 335 l 1,1,-1
 495 285 l 1,2,-1
 341 285 l 1,3,-1
 341 192 l 1,4,-1
 495 192 l 1,5,-1
 495 141 l 1,6,-1
 341 141 l 1,7,-1
 341 0 l 1,8,-1
 257 0 l 1,9,-1
 257 141 l 1,10,-1
 103 141 l 1,11,-1
 103 191 l 1,12,-1
 257 191 l 1,13,-1
 257 284 l 1,14,-1
 103 284 l 1,15,-1
 103 334 l 1,16,-1
 238 334 l 1,17,-1
 8 723 l 1,18,-1
 103 723 l 1,19,-1
 303 377 l 1,20,-1
 505 723 l 1,21,-1
 585 723 l 1,22,-1
 350 335 l 1,0,-1
EndSplineSet
EndChar

StartChar: brokenbar
Encoding: 166 166 104
Width: 257
GlyphClass: 2
Flags: W
LayerCount: 2
Fore
SplineSet
99 428 m 1,0,-1
 99 826 l 1,1,-1
 158 826 l 1,2,-1
 158 428 l 1,3,-1
 99 428 l 1,0,-1
99 -161 m 1,4,-1
 99 237 l 1,5,-1
 158 237 l 1,6,-1
 158 -161 l 1,7,-1
 99 -161 l 1,4,-1
EndSplineSet
EndChar

StartChar: section
Encoding: 167 167 105
Width: 479
GlyphClass: 2
Flags: W
LayerCount: 2
Fore
SplineSet
121 -38 m 128,-1,1
 63 -6 63 -6 37 46 c 1,2,-1
 88 74 l 1,3,4
 112 34 112 34 154 9.5 c 128,-1,5
 196 -15 196 -15 249 -15 c 0,6,7
 301 -15 301 -15 334 5.5 c 128,-1,8
 367 26 367 26 367 63 c 0,9,10
 367 92 367 92 344 115.5 c 128,-1,11
 321 139 321 139 263 162 c 2,12,-1
 174 197 l 2,13,14
 109 221 109 221 79.5 256 c 128,-1,15
 50 291 50 291 50 338 c 0,16,17
 50 383 50 383 78 416.5 c 128,-1,18
 106 450 106 450 152 468 c 1,19,20
 95 497 95 497 73.5 528.5 c 128,-1,21
 52 560 52 560 52 598 c 128,-1,22
 52 636 52 636 75 667 c 128,-1,23
 98 698 98 698 139.5 715.5 c 128,-1,24
 181 733 181 733 235 733 c 0,25,26
 296 733 296 733 345.5 704.5 c 128,-1,27
 395 676 395 676 422 634 c 1,28,-1
 371 606 l 1,29,30
 313 678 313 678 239 678 c 0,31,32
 185 678 185 678 153.5 657.5 c 128,-1,33
 122 637 122 637 122 604 c 0,34,35
 122 579 122 579 141.5 557.5 c 128,-1,36
 161 536 161 536 208 517 c 2,37,-1
 293 483 l 2,38,39
 368 452 368 452 401.5 413.5 c 128,-1,40
 435 375 435 375 435 324 c 0,41,42
 435 278 435 278 410 248 c 128,-1,43
 385 218 385 218 343 197 c 1,44,45
 390 170 390 170 413.5 139.5 c 128,-1,46
 437 109 437 109 437 69 c 128,-1,47
 437 29 437 29 413.5 -2.5 c 128,-1,48
 390 -34 390 -34 347 -52 c 128,-1,49
 304 -70 304 -70 248 -70 c 0,50,0
 179 -70 179 -70 121 -38 c 128,-1,1
338 251 m 128,-1,52
 367 276 367 276 367 312 c 128,-1,53
 367 348 367 348 348.5 371.5 c 128,-1,54
 330 395 330 395 279 416 c 2,55,-1
 221 438 l 1,56,57
 179 435 179 435 148 407.5 c 128,-1,58
 117 380 117 380 117 347 c 0,59,60
 117 317 117 317 135.5 297.5 c 128,-1,61
 154 278 154 278 207 256 c 2,62,-1
 270 229 l 1,63,51
 309 226 309 226 338 251 c 128,-1,52
EndSplineSet
EndChar

StartChar: dieresis
Encoding: 168 168 106
Width: 235
GlyphClass: 2
Flags: W
LayerCount: 2
Fore
SplineSet
85 618 m 1,0,-1
 12 618 l 1,1,-1
 12 723 l 1,2,-1
 85 723 l 1,3,-1
 85 618 l 1,0,-1
222 618 m 1,4,-1
 147 618 l 1,5,-1
 147 723 l 1,6,-1
 222 723 l 1,7,-1
 222 618 l 1,4,-1
EndSplineSet
EndChar

StartChar: copyright
Encoding: 169 169 107
Width: 814
GlyphClass: 2
Flags: W
LayerCount: 2
Fore
SplineSet
220 40 m 128,-1,1
 135 90 135 90 85 175 c 128,-1,2
 35 260 35 260 35 362 c 0,3,4
 35 462 35 462 85 547.5 c 128,-1,5
 135 633 135 633 220 683 c 128,-1,6
 305 733 305 733 406 733 c 128,-1,7
 507 733 507 733 592.5 683 c 128,-1,8
 678 633 678 633 728 547.5 c 128,-1,9
 778 462 778 462 778 362 c 0,10,11
 778 260 778 260 728 175 c 128,-1,12
 678 90 678 90 592.5 40 c 128,-1,13
 507 -10 507 -10 406 -10 c 128,-1,0
 305 -10 305 -10 220 40 c 128,-1,1
562.5 84.5 m 128,-1,15
 634 124 634 124 676.5 196 c 128,-1,16
 719 268 719 268 719 362 c 0,17,18
 719 454 719 454 676.5 526.5 c 128,-1,19
 634 599 634 599 562.5 639 c 128,-1,20
 491 679 491 679 406 679 c 0,21,22
 320 679 320 679 248 639 c 128,-1,23
 176 599 176 599 134.5 527 c 128,-1,24
 93 455 93 455 93 362 c 0,25,26
 93 268 93 268 134.5 196 c 128,-1,27
 176 124 176 124 247.5 84.5 c 128,-1,28
 319 45 319 45 406 45 c 0,29,14
 491 45 491 45 562.5 84.5 c 128,-1,15
570 469 m 1,30,-1
 514 451 l 1,31,32
 472 523 472 523 412 523 c 0,33,34
 356 523 356 523 321 480 c 128,-1,35
 286 437 286 437 286 366 c 0,36,37
 286 293 286 293 321.5 249.5 c 128,-1,38
 357 206 357 206 413 206 c 0,39,40
 451 206 451 206 480 227 c 128,-1,41
 509 248 509 248 528 284 c 1,42,-1
 573 265 l 1,43,44
 546 216 546 216 505 185.5 c 128,-1,45
 464 155 464 155 409 155 c 128,-1,46
 354 155 354 155 311 181 c 128,-1,47
 268 207 268 207 244 254.5 c 128,-1,48
 220 302 220 302 220 364 c 0,49,50
 220 425 220 425 244 473 c 128,-1,51
 268 521 268 521 311 547.5 c 128,-1,52
 354 574 354 574 409 574 c 0,53,54
 510 574 510 574 570 469 c 1,30,-1
EndSplineSet
EndChar

StartChar: ordfeminine
Encoding: 170 170 108
Width: 418
GlyphClass: 2
Flags: W
LayerCount: 2
Fore
SplineSet
80.5 420 m 128,-1,1
 52 444 52 444 52 486 c 0,2,3
 52 532 52 532 93 559.5 c 128,-1,4
 134 587 134 587 212 593 c 2,5,-1
 273 599 l 1,6,-1
 273 623 l 2,7,8
 273 689 273 689 195 689 c 0,9,10
 166 689 166 689 145.5 678 c 128,-1,11
 125 667 125 667 108 639 c 1,12,-1
 60 654 l 1,13,14
 98 731 98 731 198 731 c 0,15,16
 261 730 261 730 293 701.5 c 128,-1,17
 325 673 325 673 325 621 c 2,18,-1
 325 506 l 2,19,20
 325 471 325 471 329 440 c 2,21,-1
 336 402 l 1,22,-1
 280 402 l 1,23,-1
 272 447 l 1,24,25
 244 420 244 420 218.5 408 c 128,-1,26
 193 396 193 396 161 396 c 0,27,0
 109 396 109 396 80.5 420 c 128,-1,1
247 462 m 0,28,29
 260 474 260 474 266.5 484.5 c 128,-1,30
 273 495 273 495 273 506 c 2,31,-1
 273 561 l 1,32,-1
 222 558 l 2,33,34
 165 554 165 554 136.5 536 c 128,-1,35
 108 518 108 518 108 488 c 0,36,37
 108 464 108 464 127 450 c 128,-1,38
 146 436 146 436 178 436 c 0,39,40
 218 436 218 436 247 462 c 0,28,29
EndSplineSet
EndChar

StartChar: guillemotleft
Encoding: 171 171 109
Width: 436
GlyphClass: 2
Flags: W
LayerCount: 2
Fore
SplineSet
214 72 m 1,0,-1
 171 72 l 1,1,-1
 36 251 l 1,2,-1
 172 438 l 1,3,-1
 216 438 l 1,4,-1
 108 251 l 1,5,-1
 214 72 l 1,0,-1
386 72 m 1,6,-1
 343 72 l 1,7,-1
 208 251 l 1,8,-1
 343 438 l 1,9,-1
 387 438 l 1,10,-1
 280 251 l 1,11,-1
 386 72 l 1,6,-1
EndSplineSet
EndChar

StartChar: logicalnot
Encoding: 172 172 110
Width: 545
GlyphClass: 2
Flags: W
LayerCount: 2
Fore
SplineSet
480 393 m 1,0,-1
 480 193 l 1,1,-1
 418 193 l 1,2,-1
 417 334 l 1,3,-1
 63 333 l 1,4,-1
 63 392 l 1,5,-1
 480 393 l 1,0,-1
EndSplineSet
EndChar

StartChar: uni00AD
Encoding: 173 173 111
Width: 366
GlyphClass: 2
Flags: W
LayerCount: 2
Fore
SplineSet
314 229 m 1,0,-1
 67 228 l 1,1,-1
 67 288 l 1,2,-1
 314 289 l 1,3,-1
 314 229 l 1,0,-1
EndSplineSet
EndChar

StartChar: registered
Encoding: 174 174 112
Width: 536
GlyphClass: 2
Flags: W
LayerCount: 2
Fore
SplineSet
150.5 299 m 128,-1,1
 97 330 97 330 66 383 c 128,-1,2
 35 436 35 436 35 500 c 128,-1,3
 35 564 35 564 66 617 c 128,-1,4
 97 670 97 670 150.5 701.5 c 128,-1,5
 204 733 204 733 268 733 c 0,6,7
 331 733 331 733 384.5 701.5 c 128,-1,8
 438 670 438 670 469 616.5 c 128,-1,9
 500 563 500 563 500 500 c 128,-1,10
 500 437 500 437 469 383.5 c 128,-1,11
 438 330 438 330 384.5 299 c 128,-1,12
 331 268 331 268 268 268 c 0,13,0
 204 268 204 268 150.5 299 c 128,-1,1
365.5 333.5 m 128,-1,15
 408 357 408 357 432 400 c 128,-1,16
 456 443 456 443 456 500 c 128,-1,17
 456 557 456 557 432 600 c 128,-1,18
 408 643 408 643 365.5 667 c 128,-1,19
 323 691 323 691 268 691 c 0,20,21
 183 691 183 691 131 638.5 c 128,-1,22
 79 586 79 586 79 500 c 0,23,24
 79 413 79 413 131 361.5 c 128,-1,25
 183 310 183 310 268 310 c 0,26,14
 323 310 323 310 365.5 333.5 c 128,-1,15
180 614 m 1,27,-1
 282 614 l 2,28,29
 319 614 319 614 339 599 c 128,-1,30
 359 584 359 584 359 556 c 0,31,32
 359 512 359 512 310 494 c 1,33,-1
 355 383 l 1,34,-1
 314 383 l 1,35,-1
 274 491 l 1,36,-1
 218 491 l 1,37,-1
 218 383 l 1,38,-1
 180 383 l 1,39,-1
 180 614 l 1,27,-1
277 523 m 2,40,41
 320 523 320 523 320 552 c 0,42,43
 320 583 320 583 274 583 c 2,44,-1
 218 583 l 1,45,-1
 218 523 l 1,46,-1
 277 523 l 2,40,41
EndSplineSet
EndChar

StartChar: macron
Encoding: 175 175 113
Width: 304
GlyphClass: 2
Flags: W
LayerCount: 2
Fore
SplineSet
290 653 m 1,0,-1
 12 653 l 1,1,-1
 12 708 l 1,2,-1
 290 708 l 1,3,-1
 290 653 l 1,0,-1
EndSplineSet
EndChar

StartChar: degree
Encoding: 176 176 114
Width: 457
GlyphClass: 2
Flags: W
LayerCount: 2
Fore
SplineSet
337 573.5 m 128,-1,1
 294 530 294 530 228 530 c 0,2,3
 161 530 161 530 118 573 c 128,-1,4
 75 616 75 616 75 683 c 128,-1,5
 75 750 75 750 118 793.5 c 128,-1,6
 161 837 161 837 228 837 c 0,7,8
 294 837 294 837 337 793.5 c 128,-1,9
 380 750 380 750 380 683 c 0,10,0
 380 617 380 617 337 573.5 c 128,-1,1
297.5 756 m 128,-1,12
 271 784 271 784 226 784 c 0,13,14
 182 784 182 784 155 756 c 128,-1,15
 128 728 128 728 128 684 c 0,16,17
 128 637 128 637 154.5 608.5 c 128,-1,18
 181 580 181 580 227 580 c 0,19,20
 271 580 271 580 297.5 608 c 128,-1,21
 324 636 324 636 324 682 c 128,-1,11
 324 728 324 728 297.5 756 c 128,-1,12
EndSplineSet
EndChar

StartChar: plusminus
Encoding: 177 177 115
Width: 545
GlyphClass: 2
Flags: W
LayerCount: 2
Fore
SplineSet
480 467 m 1,0,-1
 480 408 l 1,1,-1
 301 408 l 1,2,-1
 301 229 l 1,3,-1
 243 229 l 1,4,-1
 243 407 l 1,5,-1
 63 407 l 1,6,-1
 63 466 l 1,7,-1
 242 466 l 1,8,-1
 242 646 l 1,9,-1
 301 646 l 1,10,-1
 301 467 l 1,11,-1
 480 467 l 1,0,-1
63 125 m 1,12,-1
 480 126 l 1,13,-1
 480 67 l 1,14,-1
 63 67 l 1,15,-1
 63 125 l 1,12,-1
EndSplineSet
EndChar

StartChar: uni00B2
Encoding: 178 178 116
Width: 375
GlyphClass: 2
Flags: W
LayerCount: 2
Fore
SplineSet
16 427 m 1,0,-1
 164 573 l 2,1,2
 217 624 217 624 237.5 655 c 128,-1,3
 258 686 258 686 258 719 c 0,4,5
 258 761 258 761 229.5 782 c 128,-1,6
 201 803 201 803 164 803 c 0,7,8
 130 803 130 803 101 787.5 c 128,-1,9
 72 772 72 772 54 739 c 1,10,-1
 14 753 l 1,11,12
 34 798 34 798 73 821.5 c 128,-1,13
 112 845 112 845 167 845 c 0,14,15
 228 845 228 845 267 812 c 128,-1,16
 306 779 306 779 306 721 c 0,17,18
 306 681 306 681 285 646.5 c 128,-1,19
 264 612 264 612 208 555 c 2,20,-1
 79 426 l 1,21,-1
 311 426 l 1,22,-1
 311 384 l 1,23,-1
 16 384 l 1,24,-1
 16 427 l 1,0,-1
EndSplineSet
EndChar

StartChar: uni00B3
Encoding: 179 179 117
Width: 390
GlyphClass: 2
Flags: W
LayerCount: 2
Fore
SplineSet
99 824.5 m 128,-1,1
 141 845 141 845 192 845 c 0,2,3
 259 845 259 845 301.5 812.5 c 128,-1,4
 344 780 344 780 344 731 c 0,5,6
 344 657 344 657 255 626 c 1,7,8
 303 613 303 613 330.5 582.5 c 128,-1,9
 358 552 358 552 358 509 c 0,10,11
 358 452 358 452 310.5 415 c 128,-1,12
 263 378 263 378 185 378 c 0,13,14
 128 378 128 378 89 396.5 c 128,-1,15
 50 415 50 415 26 460 c 1,16,-1
 67 474 l 1,17,18
 108 419 108 419 186 419 c 0,19,20
 242 419 242 419 274 443.5 c 128,-1,21
 306 468 306 468 306 507 c 0,22,23
 306 551 306 551 270.5 576.5 c 128,-1,24
 235 602 235 602 187 602 c 2,25,-1
 126 602 l 1,26,-1
 126 642 l 1,27,-1
 177 643 l 2,28,29
 226 643 226 643 260 667.5 c 128,-1,30
 294 692 294 692 294 728 c 0,31,32
 294 761 294 761 265 783 c 128,-1,33
 236 805 236 805 192 805 c 0,34,35
 117 805 117 805 81 749 c 1,36,-1
 41 764 l 1,37,0
 57 804 57 804 99 824.5 c 128,-1,1
EndSplineSet
EndChar

StartChar: acute
Encoding: 180 180 118
Width: 280
GlyphClass: 2
Flags: W
LayerCount: 2
Fore
SplineSet
270 671 m 1,0,-1
 23 596 l 1,1,-1
 9 637 l 1,2,-1
 250 732 l 1,3,-1
 270 671 l 1,0,-1
EndSplineSet
EndChar

StartChar: paragraph
Encoding: 182 182 119
Width: 557
GlyphClass: 2
Flags: W
LayerCount: 2
Fore
SplineSet
415 676 m 1,0,-1
 415 -83 l 1,1,-1
 364 -83 l 1,2,-1
 364 676 l 1,3,-1
 316 676 l 1,4,-1
 316 -83 l 1,5,-1
 264 -83 l 1,6,-1
 264 297 l 1,7,8
 200 298 200 298 152 326.5 c 128,-1,9
 104 355 104 355 78 401.5 c 128,-1,10
 52 448 52 448 52 503 c 0,11,12
 52 561 52 561 78 611 c 128,-1,13
 104 661 104 661 155.5 692 c 128,-1,14
 207 723 207 723 280 723 c 2,15,-1
 475 723 l 1,16,-1
 475 676 l 1,17,-1
 415 676 l 1,0,-1
EndSplineSet
EndChar

StartChar: periodcentered
Encoding: 183 183 120
Width: 197
GlyphClass: 2
Flags: W
LayerCount: 2
Fore
SplineSet
148 315 m 1,0,-1
 46 315 l 1,1,-1
 46 414 l 1,2,-1
 148 414 l 1,3,-1
 148 315 l 1,0,-1
EndSplineSet
EndChar

StartChar: cedilla
Encoding: 184 184 121
Width: 216
GlyphClass: 2
Flags: W
LayerCount: 2
Fore
SplineSet
172 -183 m 128,-1,1
 142 -203 142 -203 98 -203 c 0,2,3
 45 -203 45 -203 10 -179 c 1,4,-1
 24 -144 l 1,5,6
 52 -167 52 -167 89 -167 c 0,7,8
 145 -167 145 -167 145 -129 c 0,9,10
 145 -106 145 -106 126 -95.5 c 128,-1,11
 107 -85 107 -85 67 -84 c 0,12,13
 59 -84 59 -84 61 -78 c 2,14,-1
 98 5 l 1,15,-1
 141 5 l 1,16,-1
 117 -56 l 1,17,18
 162 -59 162 -59 182 -79.5 c 128,-1,19
 202 -100 202 -100 202 -128 c 0,20,0
 202 -163 202 -163 172 -183 c 128,-1,1
EndSplineSet
EndChar

StartChar: uni00B9
Encoding: 185 185 122
Width: 293
GlyphClass: 2
Flags: W
LayerCount: 2
Fore
SplineSet
89 779 m 1,0,-1
 -1 746 l 1,1,-1
 -1 783 l 1,2,-1
 104 835 l 1,3,-1
 138 835 l 1,4,-1
 138 380 l 1,5,-1
 89 380 l 1,6,-1
 89 779 l 1,0,-1
EndSplineSet
EndChar

StartChar: ordmasculine
Encoding: 186 186 123
Width: 412
GlyphClass: 2
Flags: W
LayerCount: 2
Fore
SplineSet
318.5 685.5 m 128,-1,1
 360 639 360 639 360 563 c 0,2,3
 360 489 360 489 319 443 c 128,-1,4
 278 397 278 397 206 397 c 128,-1,5
 134 397 134 397 93 443 c 128,-1,6
 52 489 52 489 52 563 c 0,7,8
 52 639 52 639 94 685.5 c 128,-1,9
 136 732 136 732 206 732 c 0,10,0
 277 732 277 732 318.5 685.5 c 128,-1,1
134.5 656.5 m 128,-1,12
 110 624 110 624 110 566 c 0,13,14
 110 506 110 506 134.5 472.5 c 128,-1,15
 159 439 159 439 206 439 c 128,-1,16
 253 439 253 439 277.5 472.5 c 128,-1,17
 302 506 302 506 302 566 c 0,18,19
 302 623 302 623 277 656 c 128,-1,20
 252 689 252 689 206 689 c 0,21,11
 159 689 159 689 134.5 656.5 c 128,-1,12
EndSplineSet
EndChar

StartChar: guillemotright
Encoding: 187 187 124
Width: 435
GlyphClass: 2
Flags: W
LayerCount: 2
Fore
SplineSet
47 438 m 1,0,-1
 90 438 l 1,1,-1
 226 251 l 1,2,-1
 90 72 l 1,3,-1
 48 72 l 1,4,-1
 154 251 l 1,5,-1
 47 438 l 1,0,-1
218 438 m 1,6,-1
 262 438 l 1,7,-1
 397 251 l 1,8,-1
 262 72 l 1,9,-1
 220 72 l 1,10,-1
 326 251 l 1,11,-1
 218 438 l 1,6,-1
EndSplineSet
EndChar

StartChar: onequarter
Encoding: 188 188 125
Width: 947
GlyphClass: 2
Flags: W
LayerCount: 2
Fore
SplineSet
89 675 m 1,0,-1
 -1 642 l 1,1,-1
 -1 679 l 1,2,-1
 104 731 l 1,3,-1
 138 731 l 1,4,-1
 138 276 l 1,5,-1
 89 276 l 1,6,-1
 89 675 l 1,0,-1
198 -4 m 1,7,-1
 144 -4 l 1,8,-1
 632 731 l 1,9,-1
 684 731 l 1,10,-1
 198 -4 l 1,7,-1
823 455 m 1,11,-1
 823 164 l 1,12,-1
 894 164 l 1,13,-1
 894 121 l 1,14,-1
 823 121 l 1,15,-1
 823 0 l 1,16,-1
 776 0 l 1,17,-1
 777 121 l 1,18,-1
 562 121 l 1,19,-1
 562 167 l 1,20,-1
 775 455 l 1,21,-1
 823 455 l 1,11,-1
775 164 m 1,22,-1
 775 386 l 1,23,-1
 611 164 l 1,24,-1
 775 164 l 1,22,-1
EndSplineSet
EndChar

StartChar: onehalf
Encoding: 189 189 126
Width: 915
GlyphClass: 2
Flags: W
LayerCount: 2
Fore
SplineSet
89 675 m 1,0,-1
 -1 642 l 1,1,-1
 -1 679 l 1,2,-1
 104 731 l 1,3,-1
 138 731 l 1,4,-1
 138 276 l 1,5,-1
 89 276 l 1,6,-1
 89 675 l 1,0,-1
198 -4 m 1,7,-1
 144 -4 l 1,8,-1
 632 731 l 1,9,-1
 684 731 l 1,10,-1
 198 -4 l 1,7,-1
556 43 m 1,11,-1
 704 189 l 2,12,13
 757 240 757 240 777.5 271 c 128,-1,14
 798 302 798 302 798 335 c 0,15,16
 798 377 798 377 769.5 398 c 128,-1,17
 741 419 741 419 704 419 c 0,18,19
 670 419 670 419 641 403.5 c 128,-1,20
 612 388 612 388 594 355 c 1,21,-1
 554 369 l 1,22,23
 574 414 574 414 613 437.5 c 128,-1,24
 652 461 652 461 707 461 c 0,25,26
 747 461 747 461 778.5 446 c 128,-1,27
 810 431 810 431 828 403 c 128,-1,28
 846 375 846 375 846 336 c 0,29,30
 846 309 846 309 836.5 285.5 c 128,-1,31
 827 262 827 262 806.5 236 c 128,-1,32
 786 210 786 210 748 171 c 2,33,-1
 619 42 l 1,34,-1
 851 42 l 1,35,-1
 851 0 l 1,36,-1
 556 0 l 1,37,-1
 556 43 l 1,11,-1
EndSplineSet
EndChar

StartChar: threequarters
Encoding: 190 190 127
Width: 1044
GlyphClass: 2
Flags: W
LayerCount: 2
Fore
SplineSet
99 719.5 m 128,-1,1
 141 740 141 740 192 740 c 0,2,3
 259 740 259 740 301.5 707.5 c 128,-1,4
 344 675 344 675 344 626 c 0,5,6
 344 552 344 552 255 521 c 1,7,8
 303 508 303 508 330.5 477.5 c 128,-1,9
 358 447 358 447 358 404 c 0,10,11
 358 347 358 347 310.5 310 c 128,-1,12
 263 273 263 273 185 273 c 0,13,14
 128 273 128 273 89 291.5 c 128,-1,15
 50 310 50 310 26 355 c 1,16,-1
 67 369 l 1,17,18
 108 314 108 314 186 314 c 0,19,20
 242 314 242 314 274 338.5 c 128,-1,21
 306 363 306 363 306 402 c 0,22,23
 306 446 306 446 270.5 471.5 c 128,-1,24
 235 497 235 497 187 497 c 2,25,-1
 126 497 l 1,26,-1
 126 537 l 1,27,-1
 177 538 l 2,28,29
 226 538 226 538 260 562.5 c 128,-1,30
 294 587 294 587 294 623 c 0,31,32
 294 656 294 656 265 678 c 128,-1,33
 236 700 236 700 192 700 c 0,34,35
 117 700 117 700 81 644 c 1,36,-1
 41 659 l 1,37,0
 57 699 57 699 99 719.5 c 128,-1,1
295 -4 m 1,38,-1
 241 -4 l 1,39,-1
 729 731 l 1,40,-1
 781 731 l 1,41,-1
 295 -4 l 1,38,-1
920 455 m 1,42,-1
 920 164 l 1,43,-1
 991 164 l 1,44,-1
 991 121 l 1,45,-1
 920 121 l 1,46,-1
 920 0 l 1,47,-1
 873 0 l 1,48,-1
 874 121 l 1,49,-1
 659 121 l 1,50,-1
 659 167 l 1,51,-1
 872 455 l 1,52,-1
 920 455 l 1,42,-1
872 164 m 1,53,-1
 872 386 l 1,54,-1
 708 164 l 1,55,-1
 872 164 l 1,53,-1
EndSplineSet
EndChar

StartChar: questiondown
Encoding: 191 191 128
Width: 508
GlyphClass: 2
Flags: W
LayerCount: 2
Fore
SplineSet
218 517 m 1,0,-1
 310 517 l 1,1,-1
 310 415 l 1,2,-1
 218 415 l 1,3,-1
 218 517 l 1,0,-1
383.5 -134.5 m 128,-1,5
 322 -171 322 -171 246 -171 c 0,6,7
 145 -171 145 -171 87 -122.5 c 128,-1,8
 29 -74 29 -74 29 5 c 0,9,10
 29 59 29 59 54 94.5 c 128,-1,11
 79 130 79 130 128 171 c 0,12,13
 162 200 162 200 182.5 222 c 128,-1,14
 203 244 203 244 217 275.5 c 128,-1,15
 231 307 231 307 231 348 c 1,16,-1
 297 348 l 1,17,18
 297 299 297 299 282 262 c 128,-1,19
 267 225 267 225 245.5 201 c 128,-1,20
 224 177 224 177 189 144 c 0,21,22
 147 106 147 106 126.5 77 c 128,-1,23
 106 48 106 48 106 7 c 0,24,25
 106 -46 106 -46 144.5 -78 c 128,-1,26
 183 -110 183 -110 246 -110 c 0,27,28
 298 -110 298 -110 346 -81 c 128,-1,29
 394 -52 394 -52 410 -10 c 1,30,-1
 477 -33 l 1,31,4
 445 -98 445 -98 383.5 -134.5 c 128,-1,5
EndSplineSet
EndChar

StartChar: Agrave
Encoding: 192 192 129
Width: 693
GlyphClass: 2
Flags: W
AnchorPoint: "Anchor-5" 0 0 basechar 0
AnchorPoint: "Anchor-4" 0 0 basechar 0
AnchorPoint: "Anchor-3" 350 723 basechar 0
AnchorPoint: "Anchor-2" 645 11 basechar 0
LayerCount: 2
Fore
SplineSet
304 723 m 1,0,-1
 390 723 l 1,1,-1
 652 0 l 1,2,-1
 577 0 l 1,3,-1
 501 209 l 1,4,-1
 193 209 l 1,5,-1
 116 0 l 1,6,-1
 41 0 l 1,7,-1
 304 723 l 1,0,-1
480 279 m 1,8,-1
 347 650 l 1,9,-1
 213 279 l 1,10,-1
 480 279 l 1,8,-1
466 843 m 1,11,-1
 453 802 l 1,12,-1
 205 877 l 1,13,-1
 226 938 l 1,14,-1
 466 843 l 1,11,-1
EndSplineSet
EndChar

StartChar: Aacute
Encoding: 193 193 130
Width: 693
GlyphClass: 2
Flags: W
AnchorPoint: "Anchor-5" 0 0 basechar 0
AnchorPoint: "Anchor-4" 0 0 basechar 0
AnchorPoint: "Anchor-3" 350 723 basechar 0
AnchorPoint: "Anchor-2" 645 11 basechar 0
LayerCount: 2
Fore
SplineSet
304 723 m 1,0,-1
 390 723 l 1,1,-1
 652 0 l 1,2,-1
 577 0 l 1,3,-1
 501 209 l 1,4,-1
 193 209 l 1,5,-1
 116 0 l 1,6,-1
 41 0 l 1,7,-1
 304 723 l 1,0,-1
480 279 m 1,8,-1
 347 650 l 1,9,-1
 213 279 l 1,10,-1
 480 279 l 1,8,-1
480 877 m 1,11,-1
 233 802 l 1,12,-1
 219 843 l 1,13,-1
 460 938 l 1,14,-1
 480 877 l 1,11,-1
EndSplineSet
EndChar

StartChar: Acircumflex
Encoding: 194 194 131
Width: 693
GlyphClass: 2
Flags: W
AnchorPoint: "Anchor-5" 0 0 basechar 0
AnchorPoint: "Anchor-4" 0 0 basechar 0
AnchorPoint: "Anchor-3" 350 723 basechar 0
AnchorPoint: "Anchor-2" 645 11 basechar 0
LayerCount: 2
Fore
SplineSet
304 723 m 1,0,-1
 390 723 l 1,1,-1
 652 0 l 1,2,-1
 577 0 l 1,3,-1
 501 209 l 1,4,-1
 193 209 l 1,5,-1
 116 0 l 1,6,-1
 41 0 l 1,7,-1
 304 723 l 1,0,-1
480 279 m 1,8,-1
 347 650 l 1,9,-1
 213 279 l 1,10,-1
 480 279 l 1,8,-1
349 888 m 1,11,-1
 273 824 l 1,12,-1
 200 824 l 1,13,-1
 323 931 l 1,14,-1
 377 931 l 1,15,-1
 498 824 l 1,16,-1
 421 824 l 1,17,-1
 349 888 l 1,11,-1
EndSplineSet
EndChar

StartChar: Atilde
Encoding: 195 195 132
Width: 693
GlyphClass: 2
Flags: W
AnchorPoint: "Anchor-5" 0 0 basechar 0
AnchorPoint: "Anchor-4" 0 0 basechar 0
AnchorPoint: "Anchor-3" 350 723 basechar 0
AnchorPoint: "Anchor-2" 645 11 basechar 0
LayerCount: 2
Fore
SplineSet
304 723 m 1,0,-1
 390 723 l 1,1,-1
 652 0 l 1,2,-1
 577 0 l 1,3,-1
 501 209 l 1,4,-1
 193 209 l 1,5,-1
 116 0 l 1,6,-1
 41 0 l 1,7,-1
 304 723 l 1,0,-1
480 279 m 1,8,-1
 347 650 l 1,9,-1
 213 279 l 1,10,-1
 480 279 l 1,8,-1
413 848 m 0,11,12
 394 848 394 848 379.5 851.5 c 128,-1,13
 365 855 365 855 346 862 c 0,14,15
 312 874 312 874 292 874 c 0,16,17
 276 874 276 874 265 870 c 128,-1,18
 254 866 254 866 245.5 860.5 c 128,-1,19
 237 855 237 855 233 853 c 0,20,21
 229 850 229 850 226 850 c 128,-1,22
 223 850 223 850 221 858 c 2,23,-1
 212 882 l 2,24,25
 210 886 210 886 210 887 c 0,26,27
 210 889 210 889 215 894 c 0,28,29
 234 908 234 908 249.5 915.5 c 128,-1,30
 265 923 265 923 287 923 c 0,31,32
 303 923 303 923 317.5 919.5 c 128,-1,33
 332 916 332 916 353 909 c 0,34,35
 390 896 390 896 413 896 c 0,36,37
 429 896 429 896 440.5 900.5 c 128,-1,38
 452 905 452 905 468 914 c 0,39,40
 473 917 473 917 476 917 c 0,41,42
 480 917 480 917 483 910 c 2,43,-1
 492 882 l 2,44,45
 493 881 493 881 493 878 c 0,46,47
 493 874 493 874 485 870 c 0,48,49
 454 848 454 848 413 848 c 0,11,12
EndSplineSet
EndChar

StartChar: Adieresis
Encoding: 196 196 133
Width: 693
GlyphClass: 2
Flags: W
AnchorPoint: "Anchor-5" 0 0 basechar 0
AnchorPoint: "Anchor-4" 0 0 basechar 0
AnchorPoint: "Anchor-3" 350 723 basechar 0
AnchorPoint: "Anchor-2" 645 11 basechar 0
LayerCount: 2
Fore
SplineSet
304 723 m 1,0,-1
 390 723 l 1,1,-1
 652 0 l 1,2,-1
 577 0 l 1,3,-1
 501 209 l 1,4,-1
 193 209 l 1,5,-1
 116 0 l 1,6,-1
 41 0 l 1,7,-1
 304 723 l 1,0,-1
480 279 m 1,8,-1
 347 650 l 1,9,-1
 213 279 l 1,10,-1
 480 279 l 1,8,-1
318 824 m 1,11,-1
 245 824 l 1,12,-1
 245 929 l 1,13,-1
 318 929 l 1,14,-1
 318 824 l 1,11,-1
455 824 m 1,15,-1
 380 824 l 1,16,-1
 380 929 l 1,17,-1
 455 929 l 1,18,-1
 455 824 l 1,15,-1
EndSplineSet
EndChar

StartChar: Aring
Encoding: 197 197 134
Width: 693
GlyphClass: 2
Flags: W
AnchorPoint: "Anchor-5" 0 0 basechar 0
AnchorPoint: "Anchor-4" 0 0 basechar 0
AnchorPoint: "Anchor-3" 350 723 basechar 0
AnchorPoint: "Anchor-2" 645 11 basechar 0
LayerCount: 2
Fore
SplineSet
304 723 m 1,0,-1
 390 723 l 1,1,-1
 652 0 l 1,2,-1
 577 0 l 1,3,-1
 501 209 l 1,4,-1
 193 209 l 1,5,-1
 116 0 l 1,6,-1
 41 0 l 1,7,-1
 304 723 l 1,0,-1
480 279 m 1,8,-1
 347 650 l 1,9,-1
 213 279 l 1,10,-1
 480 279 l 1,8,-1
422.5 814.5 m 128,-1,12
 393 786 393 786 350 786 c 0,13,14
 308 786 308 786 279 815.5 c 128,-1,15
 250 845 250 845 250 888 c 0,16,17
 250 928 250 928 279.5 957 c 128,-1,18
 309 986 309 986 350 986 c 0,19,20
 393 986 393 986 422.5 957 c 128,-1,21
 452 928 452 928 452 886 c 0,22,11
 452 843 452 843 422.5 814.5 c 128,-1,12
388 925.5 m 128,-1,24
 372 941 372 941 349 941 c 0,25,26
 327 941 327 941 310.5 925 c 128,-1,27
 294 909 294 909 294 886 c 0,28,29
 294 864 294 864 310.5 847 c 128,-1,30
 327 830 327 830 349 830 c 0,31,32
 372 830 372 830 388 847 c 128,-1,33
 404 864 404 864 404 886 c 0,34,23
 404 910 404 910 388 925.5 c 128,-1,24
EndSplineSet
EndChar

StartChar: AE
Encoding: 198 198 135
Width: 995
GlyphClass: 2
Flags: W
AnchorPoint: "Anchor-5" 0 0 basechar 0
AnchorPoint: "Anchor-4" 0 0 basechar 0
AnchorPoint: "Anchor-3" 674 723 basechar 0
AnchorPoint: "Anchor-2" 0 0 basechar 0
LayerCount: 2
Fore
SplineSet
928 0 m 1,0,-1
 487 0 l 1,1,-1
 487 212 l 1,2,-1
 235 212 l 1,3,-1
 116 0 l 1,4,-1
 41 0 l 1,5,-1
 445 723 l 1,6,-1
 916 723 l 1,7,-1
 915 658 l 1,8,-1
 570 658 l 1,9,-1
 570 397 l 1,10,-1
 834 397 l 1,11,-1
 834 333 l 1,12,-1
 570 333 l 1,13,-1
 570 65 l 1,14,-1
 928 65 l 1,15,-1
 928 0 l 1,0,-1
487 667 m 1,16,-1
 265 279 l 1,17,-1
 487 279 l 1,18,-1
 487 667 l 1,16,-1
EndSplineSet
EndChar

StartChar: Ccedilla
Encoding: 199 199 136
Width: 675
GlyphClass: 2
Flags: W
AnchorPoint: "Anchor-5" 0 0 basechar 0
AnchorPoint: "Anchor-4" 357 0 basechar 0
AnchorPoint: "Anchor-3" 357 723 basechar 0
AnchorPoint: "Anchor-2" 0 0 basechar 0
LayerCount: 2
Fore
SplineSet
484 704.5 m 128,-1,1
 543 676 543 676 578 627.5 c 128,-1,2
 613 579 613 579 620 521 c 1,3,-1
 542 516 l 1,4,5
 529 585 529 585 480 626 c 128,-1,6
 431 667 431 667 351 667 c 0,7,8
 245 667 245 667 190.5 590 c 128,-1,9
 136 513 136 513 136 361 c 0,10,11
 136 211 136 211 191.5 133.5 c 128,-1,12
 247 56 247 56 357 56 c 0,13,14
 426 56 426 56 475.5 95.5 c 128,-1,15
 525 135 525 135 540 203 c 1,16,-1
 617 194 l 1,17,18
 610 137 610 137 575.5 90.5 c 128,-1,19
 541 44 541 44 484 17 c 128,-1,20
 427 -10 427 -10 357 -10 c 0,21,22
 213 -10 213 -10 134 88.5 c 128,-1,23
 55 187 55 187 55 362 c 128,-1,24
 55 537 55 537 132.5 635 c 128,-1,25
 210 733 210 733 351 733 c 0,26,0
 425 733 425 733 484 704.5 c 128,-1,1
412 -183 m 128,-1,28
 382 -203 382 -203 338 -203 c 0,29,30
 285 -203 285 -203 250 -179 c 1,31,-1
 264 -144 l 1,32,33
 292 -167 292 -167 329 -167 c 0,34,35
 385 -167 385 -167 385 -129 c 0,36,37
 385 -106 385 -106 366 -95.5 c 128,-1,38
 347 -85 347 -85 307 -84 c 0,39,40
 299 -84 299 -84 301 -78 c 2,41,-1
 338 5 l 1,42,-1
 381 5 l 1,43,-1
 357 -56 l 1,44,45
 402 -59 402 -59 422 -79.5 c 128,-1,46
 442 -100 442 -100 442 -128 c 0,47,27
 442 -163 442 -163 412 -183 c 128,-1,28
EndSplineSet
EndChar

StartChar: Egrave
Encoding: 200 200 137
Width: 617
GlyphClass: 2
Flags: W
AnchorPoint: "Anchor-5" 0 0 basechar 0
AnchorPoint: "Anchor-4" 345 0 basechar 0
AnchorPoint: "Anchor-3" 330 723 basechar 0
AnchorPoint: "Anchor-2" 544 10 basechar 0
LayerCount: 2
Fore
SplineSet
99 723 m 1,0,-1
 540 723 l 1,1,-1
 539 657 l 1,2,-1
 172 657 l 1,3,-1
 172 398 l 1,4,-1
 507 398 l 1,5,-1
 507 332 l 1,6,-1
 172 332 l 1,7,-1
 172 68 l 1,8,-1
 551 67 l 1,9,-1
 551 0 l 1,10,-1
 99 0 l 1,11,-1
 99 723 l 1,0,-1
446 843 m 1,12,-1
 433 802 l 1,13,-1
 185 877 l 1,14,-1
 206 938 l 1,15,-1
 446 843 l 1,12,-1
EndSplineSet
EndChar

StartChar: Eacute
Encoding: 201 201 138
Width: 617
GlyphClass: 2
Flags: W
AnchorPoint: "Anchor-5" 0 0 basechar 0
AnchorPoint: "Anchor-4" 345 0 basechar 0
AnchorPoint: "Anchor-3" 330 723 basechar 0
AnchorPoint: "Anchor-2" 544 10 basechar 0
LayerCount: 2
Fore
SplineSet
99 723 m 1,0,-1
 540 723 l 1,1,-1
 539 657 l 1,2,-1
 172 657 l 1,3,-1
 172 398 l 1,4,-1
 507 398 l 1,5,-1
 507 332 l 1,6,-1
 172 332 l 1,7,-1
 172 68 l 1,8,-1
 551 67 l 1,9,-1
 551 0 l 1,10,-1
 99 0 l 1,11,-1
 99 723 l 1,0,-1
460 877 m 1,12,-1
 213 802 l 1,13,-1
 199 843 l 1,14,-1
 440 938 l 1,15,-1
 460 877 l 1,12,-1
EndSplineSet
EndChar

StartChar: Ecircumflex
Encoding: 202 202 139
Width: 617
GlyphClass: 2
Flags: W
AnchorPoint: "Anchor-5" 0 0 basechar 0
AnchorPoint: "Anchor-4" 345 0 basechar 0
AnchorPoint: "Anchor-3" 330 723 basechar 0
AnchorPoint: "Anchor-2" 544 10 basechar 0
LayerCount: 2
Fore
SplineSet
99 723 m 1,0,-1
 540 723 l 1,1,-1
 539 657 l 1,2,-1
 172 657 l 1,3,-1
 172 398 l 1,4,-1
 507 398 l 1,5,-1
 507 332 l 1,6,-1
 172 332 l 1,7,-1
 172 68 l 1,8,-1
 551 67 l 1,9,-1
 551 0 l 1,10,-1
 99 0 l 1,11,-1
 99 723 l 1,0,-1
329 888 m 1,12,-1
 253 824 l 1,13,-1
 180 824 l 1,14,-1
 303 931 l 1,15,-1
 357 931 l 1,16,-1
 478 824 l 1,17,-1
 401 824 l 1,18,-1
 329 888 l 1,12,-1
EndSplineSet
EndChar

StartChar: Edieresis
Encoding: 203 203 140
Width: 617
GlyphClass: 2
Flags: W
AnchorPoint: "Anchor-5" 0 0 basechar 0
AnchorPoint: "Anchor-4" 345 0 basechar 0
AnchorPoint: "Anchor-3" 330 723 basechar 0
AnchorPoint: "Anchor-2" 544 10 basechar 0
LayerCount: 2
Fore
SplineSet
99 723 m 1,0,-1
 540 723 l 1,1,-1
 539 657 l 1,2,-1
 172 657 l 1,3,-1
 172 398 l 1,4,-1
 507 398 l 1,5,-1
 507 332 l 1,6,-1
 172 332 l 1,7,-1
 172 68 l 1,8,-1
 551 67 l 1,9,-1
 551 0 l 1,10,-1
 99 0 l 1,11,-1
 99 723 l 1,0,-1
298 824 m 1,12,-1
 225 824 l 1,13,-1
 225 929 l 1,14,-1
 298 929 l 1,15,-1
 298 824 l 1,12,-1
435 824 m 1,16,-1
 360 824 l 1,17,-1
 360 929 l 1,18,-1
 435 929 l 1,19,-1
 435 824 l 1,16,-1
EndSplineSet
EndChar

StartChar: Igrave
Encoding: 204 204 141
Width: 270
GlyphClass: 2
Flags: W
AnchorPoint: "Anchor-5" 0 0 basechar 0
AnchorPoint: "Anchor-4" 139 0 basechar 0
AnchorPoint: "Anchor-3" 139 723 basechar 0
AnchorPoint: "Anchor-2" 161 8 basechar 0
LayerCount: 2
Fore
SplineSet
172 723 m 1,0,-1
 172 0 l 1,1,-1
 99 0 l 1,2,-1
 99 723 l 1,3,-1
 172 723 l 1,0,-1
255 843 m 1,4,-1
 242 802 l 1,5,-1
 -6 877 l 1,6,-1
 15 938 l 1,7,-1
 255 843 l 1,4,-1
EndSplineSet
EndChar

StartChar: Iacute
Encoding: 205 205 142
Width: 270
GlyphClass: 2
Flags: W
AnchorPoint: "Anchor-5" 0 0 basechar 0
AnchorPoint: "Anchor-4" 139 0 basechar 0
AnchorPoint: "Anchor-3" 139 723 basechar 0
AnchorPoint: "Anchor-2" 161 8 basechar 0
LayerCount: 2
Fore
SplineSet
172 723 m 1,0,-1
 172 0 l 1,1,-1
 99 0 l 1,2,-1
 99 723 l 1,3,-1
 172 723 l 1,0,-1
269 877 m 1,4,-1
 22 802 l 1,5,-1
 8 843 l 1,6,-1
 249 938 l 1,7,-1
 269 877 l 1,4,-1
EndSplineSet
EndChar

StartChar: Icircumflex
Encoding: 206 206 143
Width: 270
GlyphClass: 2
Flags: W
AnchorPoint: "Anchor-5" 0 0 basechar 0
AnchorPoint: "Anchor-4" 139 0 basechar 0
AnchorPoint: "Anchor-3" 139 723 basechar 0
AnchorPoint: "Anchor-2" 161 8 basechar 0
LayerCount: 2
Fore
SplineSet
172 723 m 1,0,-1
 172 0 l 1,1,-1
 99 0 l 1,2,-1
 99 723 l 1,3,-1
 172 723 l 1,0,-1
138 888 m 1,4,-1
 62 824 l 1,5,-1
 -11 824 l 1,6,-1
 112 931 l 1,7,-1
 166 931 l 1,8,-1
 287 824 l 1,9,-1
 210 824 l 1,10,-1
 138 888 l 1,4,-1
EndSplineSet
EndChar

StartChar: Idieresis
Encoding: 207 207 144
Width: 270
GlyphClass: 2
Flags: W
AnchorPoint: "Anchor-5" 0 0 basechar 0
AnchorPoint: "Anchor-4" 139 0 basechar 0
AnchorPoint: "Anchor-3" 139 723 basechar 0
AnchorPoint: "Anchor-2" 161 8 basechar 0
LayerCount: 2
Fore
SplineSet
172 723 m 1,0,-1
 172 0 l 1,1,-1
 99 0 l 1,2,-1
 99 723 l 1,3,-1
 172 723 l 1,0,-1
107 824 m 1,4,-1
 34 824 l 1,5,-1
 34 929 l 1,6,-1
 107 929 l 1,7,-1
 107 824 l 1,4,-1
244 824 m 1,8,-1
 169 824 l 1,9,-1
 169 929 l 1,10,-1
 244 929 l 1,11,-1
 244 824 l 1,8,-1
EndSplineSet
EndChar

StartChar: Eth
Encoding: 208 208 145
Width: 685
GlyphClass: 2
Flags: W
AnchorPoint: "Anchor-5" 0 0 basechar 0
AnchorPoint: "Anchor-4" 0 0 basechar 0
AnchorPoint: "Anchor-3" 339 723 basechar 0
AnchorPoint: "Anchor-2" 0 0 basechar 0
LayerCount: 2
Fore
SplineSet
542 632 m 128,-1,1
 632 544 632 544 632 366 c 0,2,3
 632 181 632 181 536.5 90.5 c 128,-1,4
 441 0 441 0 244 0 c 2,5,-1
 105 0 l 1,6,-1
 105 331 l 1,7,-1
 47 331 l 2,8,9
 39 331 39 331 36 334 c 128,-1,10
 33 337 33 337 33 344 c 2,11,-1
 33 381 l 2,12,13
 33 393 33 393 43 393 c 2,14,-1
 105 393 l 1,15,-1
 105 723 l 1,16,-1
 255 722 l 2,17,0
 452 720 452 720 542 632 c 128,-1,1
476 135.5 m 128,-1,19
 554 205 554 205 554 364 c 0,20,21
 554 525 554 525 477.5 591.5 c 128,-1,22
 401 658 401 658 248 658 c 2,23,-1
 181 658 l 1,24,-1
 181 393 l 1,25,-1
 345 393 l 2,26,27
 354 393 354 393 354 383 c 2,28,-1
 354 346 l 2,29,30
 354 338 354 338 350 334.5 c 128,-1,31
 346 331 346 331 337 331 c 2,32,-1
 181 331 l 1,33,-1
 181 66 l 1,34,-1
 243 66 l 2,35,18
 398 66 398 66 476 135.5 c 128,-1,19
EndSplineSet
EndChar

StartChar: Ntilde
Encoding: 209 209 146
Width: 740
GlyphClass: 2
Flags: W
AnchorPoint: "Anchor-5" 0 0 basechar 0
AnchorPoint: "Anchor-4" 351 0 basechar 0
AnchorPoint: "Anchor-3" 381 723 basechar 0
AnchorPoint: "Anchor-2" 0 0 basechar 0
LayerCount: 2
Fore
SplineSet
641 723 m 1,0,-1
 641 0 l 1,1,-1
 576 0 l 1,2,-1
 172 597 l 1,3,-1
 172 0 l 1,4,-1
 99 0 l 1,5,-1
 99 723 l 1,6,-1
 166 723 l 1,7,-1
 568 131 l 1,8,-1
 568 723 l 1,9,-1
 641 723 l 1,0,-1
444 848 m 0,10,11
 425 848 425 848 410.5 851.5 c 128,-1,12
 396 855 396 855 377 862 c 0,13,14
 343 874 343 874 323 874 c 0,15,16
 307 874 307 874 296 870 c 128,-1,17
 285 866 285 866 276.5 860.5 c 128,-1,18
 268 855 268 855 264 853 c 0,19,20
 260 850 260 850 257 850 c 128,-1,21
 254 850 254 850 252 858 c 2,22,-1
 243 882 l 2,23,24
 241 886 241 886 241 887 c 0,25,26
 241 889 241 889 246 894 c 0,27,28
 265 908 265 908 280.5 915.5 c 128,-1,29
 296 923 296 923 318 923 c 0,30,31
 334 923 334 923 348.5 919.5 c 128,-1,32
 363 916 363 916 384 909 c 0,33,34
 421 896 421 896 444 896 c 0,35,36
 460 896 460 896 471.5 900.5 c 128,-1,37
 483 905 483 905 499 914 c 0,38,39
 504 917 504 917 507 917 c 0,40,41
 511 917 511 917 514 910 c 2,42,-1
 523 882 l 2,43,44
 524 881 524 881 524 878 c 0,45,46
 524 874 524 874 516 870 c 0,47,48
 485 848 485 848 444 848 c 0,10,11
EndSplineSet
EndChar

StartChar: Ograve
Encoding: 210 210 147
Width: 721
GlyphClass: 2
Flags: W
AnchorPoint: "Anchor-5" 0 0 basechar 0
AnchorPoint: "Anchor-4" 363 0 basechar 0
AnchorPoint: "Anchor-3" 363 723 basechar 0
AnchorPoint: "Anchor-2" 436 9 basechar 0
LayerCount: 2
Fore
SplineSet
136 86 m 128,-1,1
 55 182 55 182 55 358 c 0,2,3
 55 477 55 477 92 561.5 c 128,-1,4
 129 646 129 646 198 689.5 c 128,-1,5
 267 733 267 733 362 733 c 0,6,7
 456 733 456 733 524.5 689.5 c 128,-1,8
 593 646 593 646 629.5 562 c 128,-1,9
 666 478 666 478 666 360 c 0,10,11
 666 183 666 183 585 86.5 c 128,-1,12
 504 -10 504 -10 361 -10 c 0,13,0
 217 -10 217 -10 136 86 c 128,-1,1
529 131 m 128,-1,15
 586 206 586 206 586 359 c 0,16,17
 586 514 586 514 528.5 590.5 c 128,-1,18
 471 667 471 667 362 667 c 128,-1,19
 253 667 253 667 194.5 590 c 128,-1,20
 136 513 136 513 136 359 c 0,21,22
 136 207 136 207 194.5 131.5 c 128,-1,23
 253 56 253 56 363 56 c 0,24,14
 472 56 472 56 529 131 c 128,-1,15
479 843 m 1,25,-1
 466 802 l 1,26,-1
 218 877 l 1,27,-1
 239 938 l 1,28,-1
 479 843 l 1,25,-1
EndSplineSet
EndChar

StartChar: Oacute
Encoding: 211 211 148
Width: 721
GlyphClass: 2
Flags: W
AnchorPoint: "Anchor-5" 0 0 basechar 0
AnchorPoint: "Anchor-4" 363 0 basechar 0
AnchorPoint: "Anchor-3" 363 723 basechar 0
AnchorPoint: "Anchor-2" 436 9 basechar 0
LayerCount: 2
Fore
SplineSet
136 86 m 128,-1,1
 55 182 55 182 55 358 c 0,2,3
 55 477 55 477 92 561.5 c 128,-1,4
 129 646 129 646 198 689.5 c 128,-1,5
 267 733 267 733 362 733 c 0,6,7
 456 733 456 733 524.5 689.5 c 128,-1,8
 593 646 593 646 629.5 562 c 128,-1,9
 666 478 666 478 666 360 c 0,10,11
 666 183 666 183 585 86.5 c 128,-1,12
 504 -10 504 -10 361 -10 c 0,13,0
 217 -10 217 -10 136 86 c 128,-1,1
529 131 m 128,-1,15
 586 206 586 206 586 359 c 0,16,17
 586 514 586 514 528.5 590.5 c 128,-1,18
 471 667 471 667 362 667 c 128,-1,19
 253 667 253 667 194.5 590 c 128,-1,20
 136 513 136 513 136 359 c 0,21,22
 136 207 136 207 194.5 131.5 c 128,-1,23
 253 56 253 56 363 56 c 0,24,14
 472 56 472 56 529 131 c 128,-1,15
493 877 m 1,25,-1
 246 802 l 1,26,-1
 232 843 l 1,27,-1
 473 938 l 1,28,-1
 493 877 l 1,25,-1
EndSplineSet
EndChar

StartChar: Ocircumflex
Encoding: 212 212 149
Width: 721
GlyphClass: 2
Flags: W
AnchorPoint: "Anchor-5" 0 0 basechar 0
AnchorPoint: "Anchor-4" 363 0 basechar 0
AnchorPoint: "Anchor-3" 363 723 basechar 0
AnchorPoint: "Anchor-2" 436 9 basechar 0
LayerCount: 2
Fore
SplineSet
136 86 m 128,-1,1
 55 182 55 182 55 358 c 0,2,3
 55 477 55 477 92 561.5 c 128,-1,4
 129 646 129 646 198 689.5 c 128,-1,5
 267 733 267 733 362 733 c 0,6,7
 456 733 456 733 524.5 689.5 c 128,-1,8
 593 646 593 646 629.5 562 c 128,-1,9
 666 478 666 478 666 360 c 0,10,11
 666 183 666 183 585 86.5 c 128,-1,12
 504 -10 504 -10 361 -10 c 0,13,0
 217 -10 217 -10 136 86 c 128,-1,1
529 131 m 128,-1,15
 586 206 586 206 586 359 c 0,16,17
 586 514 586 514 528.5 590.5 c 128,-1,18
 471 667 471 667 362 667 c 128,-1,19
 253 667 253 667 194.5 590 c 128,-1,20
 136 513 136 513 136 359 c 0,21,22
 136 207 136 207 194.5 131.5 c 128,-1,23
 253 56 253 56 363 56 c 0,24,14
 472 56 472 56 529 131 c 128,-1,15
362 888 m 1,25,-1
 286 824 l 1,26,-1
 213 824 l 1,27,-1
 336 931 l 1,28,-1
 390 931 l 1,29,-1
 511 824 l 1,30,-1
 434 824 l 1,31,-1
 362 888 l 1,25,-1
EndSplineSet
EndChar

StartChar: Otilde
Encoding: 213 213 150
Width: 721
GlyphClass: 2
Flags: W
AnchorPoint: "Anchor-5" 0 0 basechar 0
AnchorPoint: "Anchor-4" 363 0 basechar 0
AnchorPoint: "Anchor-3" 363 723 basechar 0
AnchorPoint: "Anchor-2" 436 9 basechar 0
LayerCount: 2
Fore
SplineSet
136 86 m 128,-1,1
 55 182 55 182 55 358 c 0,2,3
 55 477 55 477 92 561.5 c 128,-1,4
 129 646 129 646 198 689.5 c 128,-1,5
 267 733 267 733 362 733 c 0,6,7
 456 733 456 733 524.5 689.5 c 128,-1,8
 593 646 593 646 629.5 562 c 128,-1,9
 666 478 666 478 666 360 c 0,10,11
 666 183 666 183 585 86.5 c 128,-1,12
 504 -10 504 -10 361 -10 c 0,13,0
 217 -10 217 -10 136 86 c 128,-1,1
529 131 m 128,-1,15
 586 206 586 206 586 359 c 0,16,17
 586 514 586 514 528.5 590.5 c 128,-1,18
 471 667 471 667 362 667 c 128,-1,19
 253 667 253 667 194.5 590 c 128,-1,20
 136 513 136 513 136 359 c 0,21,22
 136 207 136 207 194.5 131.5 c 128,-1,23
 253 56 253 56 363 56 c 0,24,14
 472 56 472 56 529 131 c 128,-1,15
426 848 m 0,25,26
 407 848 407 848 392.5 851.5 c 128,-1,27
 378 855 378 855 359 862 c 0,28,29
 325 874 325 874 305 874 c 0,30,31
 289 874 289 874 278 870 c 128,-1,32
 267 866 267 866 258.5 860.5 c 128,-1,33
 250 855 250 855 246 853 c 0,34,35
 242 850 242 850 239 850 c 128,-1,36
 236 850 236 850 234 858 c 2,37,-1
 225 882 l 2,38,39
 223 886 223 886 223 887 c 0,40,41
 223 889 223 889 228 894 c 0,42,43
 247 908 247 908 262.5 915.5 c 128,-1,44
 278 923 278 923 300 923 c 0,45,46
 316 923 316 923 330.5 919.5 c 128,-1,47
 345 916 345 916 366 909 c 0,48,49
 403 896 403 896 426 896 c 0,50,51
 442 896 442 896 453.5 900.5 c 128,-1,52
 465 905 465 905 481 914 c 0,53,54
 486 917 486 917 489 917 c 0,55,56
 493 917 493 917 496 910 c 2,57,-1
 505 882 l 2,58,59
 506 881 506 881 506 878 c 0,60,61
 506 874 506 874 498 870 c 0,62,63
 467 848 467 848 426 848 c 0,25,26
EndSplineSet
EndChar

StartChar: Odieresis
Encoding: 214 214 151
Width: 721
GlyphClass: 2
Flags: W
AnchorPoint: "Anchor-5" 0 0 basechar 0
AnchorPoint: "Anchor-4" 363 0 basechar 0
AnchorPoint: "Anchor-3" 363 723 basechar 0
AnchorPoint: "Anchor-2" 436 9 basechar 0
LayerCount: 2
Fore
SplineSet
136 86 m 128,-1,1
 55 182 55 182 55 358 c 0,2,3
 55 477 55 477 92 561.5 c 128,-1,4
 129 646 129 646 198 689.5 c 128,-1,5
 267 733 267 733 362 733 c 0,6,7
 456 733 456 733 524.5 689.5 c 128,-1,8
 593 646 593 646 629.5 562 c 128,-1,9
 666 478 666 478 666 360 c 0,10,11
 666 183 666 183 585 86.5 c 128,-1,12
 504 -10 504 -10 361 -10 c 0,13,0
 217 -10 217 -10 136 86 c 128,-1,1
529 131 m 128,-1,15
 586 206 586 206 586 359 c 0,16,17
 586 514 586 514 528.5 590.5 c 128,-1,18
 471 667 471 667 362 667 c 128,-1,19
 253 667 253 667 194.5 590 c 128,-1,20
 136 513 136 513 136 359 c 0,21,22
 136 207 136 207 194.5 131.5 c 128,-1,23
 253 56 253 56 363 56 c 0,24,14
 472 56 472 56 529 131 c 128,-1,15
331 824 m 1,25,-1
 258 824 l 1,26,-1
 258 929 l 1,27,-1
 331 929 l 1,28,-1
 331 824 l 1,25,-1
468 824 m 1,29,-1
 393 824 l 1,30,-1
 393 929 l 1,31,-1
 468 929 l 1,32,-1
 468 824 l 1,29,-1
EndSplineSet
EndChar

StartChar: multiply
Encoding: 215 215 152
Width: 527
GlyphClass: 2
Flags: W
LayerCount: 2
Fore
SplineSet
304 363 m 1,0,-1
 462 206 l 1,1,-1
 420 163 l 1,2,-1
 262 321 l 1,3,-1
 105 163 l 1,4,-1
 63 206 l 1,5,-1
 220 363 l 1,6,-1
 62 521 l 1,7,-1
 104 562 l 1,8,-1
 261 405 l 1,9,-1
 419 564 l 1,10,-1
 462 522 l 1,11,-1
 304 363 l 1,0,-1
EndSplineSet
EndChar

StartChar: Oslash
Encoding: 216 216 153
Width: 712
GlyphClass: 2
Flags: W
AnchorPoint: "Anchor-5" 0 0 basechar 0
AnchorPoint: "Anchor-4" 0 0 basechar 0
AnchorPoint: "Anchor-3" 356 723 basechar 0
AnchorPoint: "Anchor-2" 0 0 basechar 0
LayerCount: 2
Fore
SplineSet
689 686 m 2,0,-1
 608 595 l 1,1,2
 661 501 661 501 661 360 c 0,3,4
 661 243 661 243 624.5 159.5 c 128,-1,5
 588 76 588 76 519 33 c 128,-1,6
 450 -10 450 -10 355 -10 c 0,7,8
 218 -10 218 -10 141 75 c 1,9,-1
 73 -1 l 2,10,11
 67 -8 67 -8 61 -8 c 0,12,13
 57 -8 57 -8 49 -2 c 2,14,-1
 28 19 l 2,15,16
 21 25 21 25 20.5 29 c 128,-1,17
 20 33 20 33 24 37 c 2,18,-1
 102 126 l 1,19,20
 49 216 49 216 49 358 c 0,21,22
 49 477 49 477 86 561.5 c 128,-1,23
 123 646 123 646 192 689.5 c 128,-1,24
 261 733 261 733 356 733 c 0,25,26
 491 733 491 733 570 646 c 1,27,-1
 641 725 l 2,28,29
 650 735 650 735 657 728 c 2,30,-1
 688 700 l 2,31,32
 695 693 695 693 689 686 c 2,0,-1
167 193 m 1,33,-1
 517 591 l 1,34,35
 464 667 464 667 356 667 c 0,36,37
 247 667 247 667 192.5 591 c 128,-1,38
 138 515 138 515 138 359 c 0,39,40
 138 259 138 259 167 193 c 1,33,-1
543 528 m 1,41,-1
 193 131 l 1,42,43
 247 56 247 56 357 56 c 0,44,45
 465 56 465 56 518 130 c 128,-1,46
 571 204 571 204 571 359 c 0,47,48
 571 463 571 463 543 528 c 1,41,-1
EndSplineSet
EndChar

StartChar: Ugrave
Encoding: 217 217 154
Width: 708
GlyphClass: 2
Flags: W
AnchorPoint: "Anchor-5" 0 0 basechar 0
AnchorPoint: "Anchor-4" 0 0 basechar 0
AnchorPoint: "Anchor-3" 352 723 basechar 0
AnchorPoint: "Anchor-2" 426 10 basechar 0
LayerCount: 2
Fore
SplineSet
354 -10 m 0,0,1
 221 -10 221 -10 160 55 c 128,-1,2
 99 120 99 120 99 252 c 2,3,-1
 99 723 l 1,4,-1
 175 723 l 1,5,-1
 175 237 l 2,6,7
 175 147 175 147 220 101 c 128,-1,8
 265 55 265 55 354 55 c 128,-1,9
 443 55 443 55 489.5 100.5 c 128,-1,10
 536 146 536 146 536 237 c 2,11,-1
 536 723 l 1,12,-1
 609 723 l 1,13,-1
 609 240 l 2,14,15
 609 -10 609 -10 354 -10 c 0,0,1
468 843 m 1,16,-1
 455 802 l 1,17,-1
 207 877 l 1,18,-1
 228 938 l 1,19,-1
 468 843 l 1,16,-1
EndSplineSet
EndChar

StartChar: Uacute
Encoding: 218 218 155
Width: 708
GlyphClass: 2
Flags: W
AnchorPoint: "Anchor-5" 0 0 basechar 0
AnchorPoint: "Anchor-4" 0 0 basechar 0
AnchorPoint: "Anchor-3" 352 723 basechar 0
AnchorPoint: "Anchor-2" 426 10 basechar 0
LayerCount: 2
Fore
SplineSet
354 -10 m 0,0,1
 221 -10 221 -10 160 55 c 128,-1,2
 99 120 99 120 99 252 c 2,3,-1
 99 723 l 1,4,-1
 175 723 l 1,5,-1
 175 237 l 2,6,7
 175 147 175 147 220 101 c 128,-1,8
 265 55 265 55 354 55 c 128,-1,9
 443 55 443 55 489.5 100.5 c 128,-1,10
 536 146 536 146 536 237 c 2,11,-1
 536 723 l 1,12,-1
 609 723 l 1,13,-1
 609 240 l 2,14,15
 609 -10 609 -10 354 -10 c 0,0,1
482 877 m 1,16,-1
 235 802 l 1,17,-1
 221 843 l 1,18,-1
 462 938 l 1,19,-1
 482 877 l 1,16,-1
EndSplineSet
EndChar

StartChar: Ucircumflex
Encoding: 219 219 156
Width: 708
GlyphClass: 2
Flags: W
AnchorPoint: "Anchor-5" 0 0 basechar 0
AnchorPoint: "Anchor-4" 0 0 basechar 0
AnchorPoint: "Anchor-3" 352 723 basechar 0
AnchorPoint: "Anchor-2" 426 10 basechar 0
LayerCount: 2
Fore
SplineSet
354 -10 m 0,0,1
 221 -10 221 -10 160 55 c 128,-1,2
 99 120 99 120 99 252 c 2,3,-1
 99 723 l 1,4,-1
 175 723 l 1,5,-1
 175 237 l 2,6,7
 175 147 175 147 220 101 c 128,-1,8
 265 55 265 55 354 55 c 128,-1,9
 443 55 443 55 489.5 100.5 c 128,-1,10
 536 146 536 146 536 237 c 2,11,-1
 536 723 l 1,12,-1
 609 723 l 1,13,-1
 609 240 l 2,14,15
 609 -10 609 -10 354 -10 c 0,0,1
351 888 m 1,16,-1
 275 824 l 1,17,-1
 202 824 l 1,18,-1
 325 931 l 1,19,-1
 379 931 l 1,20,-1
 500 824 l 1,21,-1
 423 824 l 1,22,-1
 351 888 l 1,16,-1
EndSplineSet
EndChar

StartChar: Udieresis
Encoding: 220 220 157
Width: 708
GlyphClass: 2
Flags: W
AnchorPoint: "Anchor-5" 0 0 basechar 0
AnchorPoint: "Anchor-4" 0 0 basechar 0
AnchorPoint: "Anchor-3" 352 723 basechar 0
AnchorPoint: "Anchor-2" 426 10 basechar 0
LayerCount: 2
Fore
SplineSet
354 -10 m 0,0,1
 221 -10 221 -10 160 55 c 128,-1,2
 99 120 99 120 99 252 c 2,3,-1
 99 723 l 1,4,-1
 175 723 l 1,5,-1
 175 237 l 2,6,7
 175 147 175 147 220 101 c 128,-1,8
 265 55 265 55 354 55 c 128,-1,9
 443 55 443 55 489.5 100.5 c 128,-1,10
 536 146 536 146 536 237 c 2,11,-1
 536 723 l 1,12,-1
 609 723 l 1,13,-1
 609 240 l 2,14,15
 609 -10 609 -10 354 -10 c 0,0,1
320 824 m 1,16,-1
 247 824 l 1,17,-1
 247 929 l 1,18,-1
 320 929 l 1,19,-1
 320 824 l 1,16,-1
457 824 m 1,20,-1
 382 824 l 1,21,-1
 382 929 l 1,22,-1
 457 929 l 1,23,-1
 457 824 l 1,20,-1
EndSplineSet
EndChar

StartChar: Yacute
Encoding: 221 221 158
Width: 576
GlyphClass: 2
Flags: W
AnchorPoint: "Anchor-5" 0 0 basechar 0
AnchorPoint: "Anchor-4" 0 0 basechar 0
AnchorPoint: "Anchor-3" 291 723 basechar 0
AnchorPoint: "Anchor-2" 0 0 basechar 0
LayerCount: 2
Fore
SplineSet
326 309 m 1,0,-1
 326 0 l 1,1,-1
 253 0 l 1,2,-1
 253 310 l 1,3,-1
 8 723 l 1,4,-1
 88 723 l 1,5,-1
 290 376 l 1,6,-1
 488 723 l 1,7,-1
 568 723 l 1,8,-1
 326 309 l 1,0,-1
421 877 m 1,9,-1
 174 802 l 1,10,-1
 160 843 l 1,11,-1
 401 938 l 1,12,-1
 421 877 l 1,9,-1
EndSplineSet
EndChar

StartChar: Thorn
Encoding: 222 222 159
Width: 652
GlyphClass: 2
Flags: W
LayerCount: 2
Fore
SplineSet
549.5 219.5 m 128,-1,1
 480 168 480 168 362 168 c 2,2,-1
 182 168 l 1,3,-1
 182 0 l 1,4,-1
 99 0 l 1,5,-1
 99 723 l 1,6,-1
 182 723 l 1,7,-1
 182 571 l 1,8,-1
 352 571 l 2,9,10
 473 571 473 571 546 522 c 128,-1,11
 619 473 619 473 619 376 c 0,12,0
 619 271 619 271 549.5 219.5 c 128,-1,1
348 507 m 2,13,-1
 182 507 l 1,14,-1
 182 233 l 1,15,-1
 355 233 l 2,16,17
 440 233 440 233 486.5 268 c 128,-1,18
 533 303 533 303 533 377 c 0,19,20
 533 507 533 507 348 507 c 2,13,-1
EndSplineSet
EndChar

StartChar: germandbls
Encoding: 223 223 160
Width: 592
GlyphClass: 2
Flags: W
LayerCount: 2
Fore
SplineSet
436.5 684.5 m 128,-1,1
 477 646 477 646 477 588 c 0,2,3
 477 552 477 552 462 528 c 128,-1,4
 447 504 447 504 424.5 489 c 128,-1,5
 402 474 402 474 361 454 c 0,6,7
 322 433 322 433 309.5 422 c 128,-1,8
 297 411 297 411 297 392 c 128,-1,9
 297 373 297 373 309.5 364.5 c 128,-1,10
 322 356 322 356 359 345 c 0,11,12
 420 322 420 322 453 305.5 c 128,-1,13
 486 289 486 289 514.5 253 c 128,-1,14
 543 217 543 217 543 159 c 0,15,16
 543 79 543 79 488.5 34.5 c 128,-1,17
 434 -10 434 -10 350 -10 c 0,18,19
 314 -10 314 -10 276 -0.5 c 128,-1,20
 238 9 238 9 213 25 c 1,21,-1
 242 76 l 1,22,23
 268 61 268 61 290.5 53 c 128,-1,24
 313 45 313 45 344 45 c 0,25,26
 403 45 403 45 438 73.5 c 128,-1,27
 473 102 473 102 473 152 c 0,28,29
 473 188 473 188 455.5 210.5 c 128,-1,30
 438 233 438 233 412 246 c 128,-1,31
 386 259 386 259 342 274 c 0,32,33
 308 285 308 285 286.5 296 c 128,-1,34
 265 307 265 307 250 327.5 c 128,-1,35
 235 348 235 348 235 381 c 0,36,37
 235 416 235 416 256 440.5 c 128,-1,38
 277 465 277 465 324 491 c 0,39,40
 331 495 331 495 356 510 c 128,-1,41
 381 525 381 525 394 544 c 128,-1,42
 407 563 407 563 407 588 c 0,43,44
 407 625 407 625 380 646.5 c 128,-1,45
 353 668 353 668 304 668 c 0,46,47
 242 668 242 668 205 630.5 c 128,-1,48
 168 593 168 593 168 522 c 2,49,-1
 168 0 l 1,50,-1
 96 0 l 1,51,-1
 96 454 l 1,52,-1
 26 454 l 1,53,-1
 26 510 l 1,54,-1
 95 510 l 1,55,56
 96 606 96 606 153 664.5 c 128,-1,57
 210 723 210 723 311 723 c 0,58,0
 396 723 396 723 436.5 684.5 c 128,-1,1
EndSplineSet
EndChar

StartChar: agrave
Encoding: 224 224 161
Width: 556
GlyphClass: 2
Flags: W
AnchorPoint: "Anchor-5" 0 0 basechar 0
AnchorPoint: "Anchor-4" 0 0 basechar 0
AnchorPoint: "Anchor-3" 277 517 basechar 0
AnchorPoint: "Anchor-2" 463 13 basechar 0
LayerCount: 2
Fore
SplineSet
98 29.5 m 128,-1,1
 52 69 52 69 52 137 c 0,2,3
 52 195 52 195 77.5 230 c 128,-1,4
 103 265 103 265 157 283 c 128,-1,5
 211 301 211 301 301 307 c 2,6,-1
 403 315 l 1,7,-1
 403 354 l 2,8,9
 403 408 403 408 369 439 c 128,-1,10
 335 470 335 470 277 470 c 0,11,12
 185 470 185 470 127 385 c 1,13,-1
 67 401 l 1,14,15
 93 460 93 460 148.5 493.5 c 128,-1,16
 204 527 204 527 280 527 c 0,17,18
 373 527 373 527 423.5 482.5 c 128,-1,19
 474 438 474 438 474 360 c 2,20,-1
 474 0 l 1,21,-1
 410 0 l 1,22,-1
 405 76 l 1,23,24
 331 -10 331 -10 221 -10 c 0,25,0
 144 -10 144 -10 98 29.5 c 128,-1,1
315.5 64 m 128,-1,27
 353 82 353 82 378 110.5 c 128,-1,28
 403 139 403 139 403 169 c 2,29,-1
 403 266 l 1,30,-1
 318 259 l 2,31,32
 247 254 247 254 205.5 242.5 c 128,-1,33
 164 231 164 231 144 207.5 c 128,-1,34
 124 184 124 184 124 144 c 0,35,36
 124 98 124 98 156 72 c 128,-1,37
 188 46 188 46 241 46 c 0,38,26
 278 46 278 46 315.5 64 c 128,-1,27
393 637 m 1,39,-1
 380 596 l 1,40,-1
 132 671 l 1,41,-1
 153 732 l 1,42,-1
 393 637 l 1,39,-1
EndSplineSet
EndChar

StartChar: aacute
Encoding: 225 225 162
Width: 556
GlyphClass: 2
Flags: W
AnchorPoint: "Anchor-5" 0 0 basechar 0
AnchorPoint: "Anchor-4" 0 0 basechar 0
AnchorPoint: "Anchor-3" 277 517 basechar 0
AnchorPoint: "Anchor-2" 463 13 basechar 0
LayerCount: 2
Fore
SplineSet
98 29.5 m 128,-1,1
 52 69 52 69 52 137 c 0,2,3
 52 195 52 195 77.5 230 c 128,-1,4
 103 265 103 265 157 283 c 128,-1,5
 211 301 211 301 301 307 c 2,6,-1
 403 315 l 1,7,-1
 403 354 l 2,8,9
 403 408 403 408 369 439 c 128,-1,10
 335 470 335 470 277 470 c 0,11,12
 185 470 185 470 127 385 c 1,13,-1
 67 401 l 1,14,15
 93 460 93 460 148.5 493.5 c 128,-1,16
 204 527 204 527 280 527 c 0,17,18
 373 527 373 527 423.5 482.5 c 128,-1,19
 474 438 474 438 474 360 c 2,20,-1
 474 0 l 1,21,-1
 410 0 l 1,22,-1
 405 76 l 1,23,24
 331 -10 331 -10 221 -10 c 0,25,0
 144 -10 144 -10 98 29.5 c 128,-1,1
315.5 64 m 128,-1,27
 353 82 353 82 378 110.5 c 128,-1,28
 403 139 403 139 403 169 c 2,29,-1
 403 266 l 1,30,-1
 318 259 l 2,31,32
 247 254 247 254 205.5 242.5 c 128,-1,33
 164 231 164 231 144 207.5 c 128,-1,34
 124 184 124 184 124 144 c 0,35,36
 124 98 124 98 156 72 c 128,-1,37
 188 46 188 46 241 46 c 0,38,26
 278 46 278 46 315.5 64 c 128,-1,27
407 671 m 1,39,-1
 160 596 l 1,40,-1
 146 637 l 1,41,-1
 387 732 l 1,42,-1
 407 671 l 1,39,-1
EndSplineSet
EndChar

StartChar: acircumflex
Encoding: 226 226 163
Width: 556
GlyphClass: 2
Flags: W
AnchorPoint: "Anchor-5" 0 0 basechar 0
AnchorPoint: "Anchor-4" 0 0 basechar 0
AnchorPoint: "Anchor-3" 277 517 basechar 0
AnchorPoint: "Anchor-2" 463 13 basechar 0
LayerCount: 2
Fore
SplineSet
98 29.5 m 128,-1,1
 52 69 52 69 52 137 c 0,2,3
 52 195 52 195 77.5 230 c 128,-1,4
 103 265 103 265 157 283 c 128,-1,5
 211 301 211 301 301 307 c 2,6,-1
 403 315 l 1,7,-1
 403 354 l 2,8,9
 403 408 403 408 369 439 c 128,-1,10
 335 470 335 470 277 470 c 0,11,12
 185 470 185 470 127 385 c 1,13,-1
 67 401 l 1,14,15
 93 460 93 460 148.5 493.5 c 128,-1,16
 204 527 204 527 280 527 c 0,17,18
 373 527 373 527 423.5 482.5 c 128,-1,19
 474 438 474 438 474 360 c 2,20,-1
 474 0 l 1,21,-1
 410 0 l 1,22,-1
 405 76 l 1,23,24
 331 -10 331 -10 221 -10 c 0,25,0
 144 -10 144 -10 98 29.5 c 128,-1,1
315.5 64 m 128,-1,27
 353 82 353 82 378 110.5 c 128,-1,28
 403 139 403 139 403 169 c 2,29,-1
 403 266 l 1,30,-1
 318 259 l 2,31,32
 247 254 247 254 205.5 242.5 c 128,-1,33
 164 231 164 231 144 207.5 c 128,-1,34
 124 184 124 184 124 144 c 0,35,36
 124 98 124 98 156 72 c 128,-1,37
 188 46 188 46 241 46 c 0,38,26
 278 46 278 46 315.5 64 c 128,-1,27
276 682 m 1,39,-1
 200 618 l 1,40,-1
 127 618 l 1,41,-1
 250 725 l 1,42,-1
 304 725 l 1,43,-1
 425 618 l 1,44,-1
 348 618 l 1,45,-1
 276 682 l 1,39,-1
EndSplineSet
EndChar

StartChar: atilde
Encoding: 227 227 164
Width: 556
GlyphClass: 2
Flags: W
AnchorPoint: "Anchor-5" 0 0 basechar 0
AnchorPoint: "Anchor-4" 0 0 basechar 0
AnchorPoint: "Anchor-3" 277 517 basechar 0
AnchorPoint: "Anchor-2" 463 13 basechar 0
LayerCount: 2
Fore
SplineSet
98 29.5 m 128,-1,1
 52 69 52 69 52 137 c 0,2,3
 52 195 52 195 77.5 230 c 128,-1,4
 103 265 103 265 157 283 c 128,-1,5
 211 301 211 301 301 307 c 2,6,-1
 403 315 l 1,7,-1
 403 354 l 2,8,9
 403 408 403 408 369 439 c 128,-1,10
 335 470 335 470 277 470 c 0,11,12
 185 470 185 470 127 385 c 1,13,-1
 67 401 l 1,14,15
 93 460 93 460 148.5 493.5 c 128,-1,16
 204 527 204 527 280 527 c 0,17,18
 373 527 373 527 423.5 482.5 c 128,-1,19
 474 438 474 438 474 360 c 2,20,-1
 474 0 l 1,21,-1
 410 0 l 1,22,-1
 405 76 l 1,23,24
 331 -10 331 -10 221 -10 c 0,25,0
 144 -10 144 -10 98 29.5 c 128,-1,1
315.5 64 m 128,-1,27
 353 82 353 82 378 110.5 c 128,-1,28
 403 139 403 139 403 169 c 2,29,-1
 403 266 l 1,30,-1
 318 259 l 2,31,32
 247 254 247 254 205.5 242.5 c 128,-1,33
 164 231 164 231 144 207.5 c 128,-1,34
 124 184 124 184 124 144 c 0,35,36
 124 98 124 98 156 72 c 128,-1,37
 188 46 188 46 241 46 c 0,38,26
 278 46 278 46 315.5 64 c 128,-1,27
340 642 m 0,39,40
 321 642 321 642 306.5 645.5 c 128,-1,41
 292 649 292 649 273 656 c 0,42,43
 239 668 239 668 219 668 c 0,44,45
 203 668 203 668 192 664 c 128,-1,46
 181 660 181 660 172.5 654.5 c 128,-1,47
 164 649 164 649 160 647 c 0,48,49
 156 644 156 644 153 644 c 128,-1,50
 150 644 150 644 148 652 c 2,51,-1
 139 676 l 2,52,53
 137 680 137 680 137 681 c 0,54,55
 137 683 137 683 142 688 c 0,56,57
 161 702 161 702 176.5 709.5 c 128,-1,58
 192 717 192 717 214 717 c 0,59,60
 230 717 230 717 244.5 713.5 c 128,-1,61
 259 710 259 710 280 703 c 0,62,63
 317 690 317 690 340 690 c 0,64,65
 356 690 356 690 367.5 694.5 c 128,-1,66
 379 699 379 699 395 708 c 0,67,68
 400 711 400 711 403 711 c 0,69,70
 407 711 407 711 410 704 c 2,71,-1
 419 676 l 2,72,73
 420 675 420 675 420 672 c 0,74,75
 420 668 420 668 412 664 c 0,76,77
 381 642 381 642 340 642 c 0,39,40
EndSplineSet
EndChar

StartChar: adieresis
Encoding: 228 228 165
Width: 556
GlyphClass: 2
Flags: W
AnchorPoint: "Anchor-5" 0 0 basechar 0
AnchorPoint: "Anchor-4" 0 0 basechar 0
AnchorPoint: "Anchor-3" 277 517 basechar 0
AnchorPoint: "Anchor-2" 463 13 basechar 0
LayerCount: 2
Fore
SplineSet
98 29.5 m 128,-1,1
 52 69 52 69 52 137 c 0,2,3
 52 195 52 195 77.5 230 c 128,-1,4
 103 265 103 265 157 283 c 128,-1,5
 211 301 211 301 301 307 c 2,6,-1
 403 315 l 1,7,-1
 403 354 l 2,8,9
 403 408 403 408 369 439 c 128,-1,10
 335 470 335 470 277 470 c 0,11,12
 185 470 185 470 127 385 c 1,13,-1
 67 401 l 1,14,15
 93 460 93 460 148.5 493.5 c 128,-1,16
 204 527 204 527 280 527 c 0,17,18
 373 527 373 527 423.5 482.5 c 128,-1,19
 474 438 474 438 474 360 c 2,20,-1
 474 0 l 1,21,-1
 410 0 l 1,22,-1
 405 76 l 1,23,24
 331 -10 331 -10 221 -10 c 0,25,0
 144 -10 144 -10 98 29.5 c 128,-1,1
315.5 64 m 128,-1,27
 353 82 353 82 378 110.5 c 128,-1,28
 403 139 403 139 403 169 c 2,29,-1
 403 266 l 1,30,-1
 318 259 l 2,31,32
 247 254 247 254 205.5 242.5 c 128,-1,33
 164 231 164 231 144 207.5 c 128,-1,34
 124 184 124 184 124 144 c 0,35,36
 124 98 124 98 156 72 c 128,-1,37
 188 46 188 46 241 46 c 0,38,26
 278 46 278 46 315.5 64 c 128,-1,27
245 618 m 1,39,-1
 172 618 l 1,40,-1
 172 723 l 1,41,-1
 245 723 l 1,42,-1
 245 618 l 1,39,-1
382 618 m 1,43,-1
 307 618 l 1,44,-1
 307 723 l 1,45,-1
 382 723 l 1,46,-1
 382 618 l 1,43,-1
EndSplineSet
EndChar

StartChar: aring
Encoding: 229 229 166
Width: 556
GlyphClass: 2
Flags: W
AnchorPoint: "Anchor-5" 0 0 basechar 0
AnchorPoint: "Anchor-4" 0 0 basechar 0
AnchorPoint: "Anchor-3" 277 517 basechar 0
AnchorPoint: "Anchor-2" 463 13 basechar 0
LayerCount: 2
Fore
SplineSet
98 29.5 m 128,-1,1
 52 69 52 69 52 137 c 0,2,3
 52 195 52 195 77.5 230 c 128,-1,4
 103 265 103 265 157 283 c 128,-1,5
 211 301 211 301 301 307 c 2,6,-1
 403 315 l 1,7,-1
 403 354 l 2,8,9
 403 408 403 408 369 439 c 128,-1,10
 335 470 335 470 277 470 c 0,11,12
 185 470 185 470 127 385 c 1,13,-1
 67 401 l 1,14,15
 93 460 93 460 148.5 493.5 c 128,-1,16
 204 527 204 527 280 527 c 0,17,18
 373 527 373 527 423.5 482.5 c 128,-1,19
 474 438 474 438 474 360 c 2,20,-1
 474 0 l 1,21,-1
 410 0 l 1,22,-1
 405 76 l 1,23,24
 331 -10 331 -10 221 -10 c 0,25,0
 144 -10 144 -10 98 29.5 c 128,-1,1
315.5 64 m 128,-1,27
 353 82 353 82 378 110.5 c 128,-1,28
 403 139 403 139 403 169 c 2,29,-1
 403 266 l 1,30,-1
 318 259 l 2,31,32
 247 254 247 254 205.5 242.5 c 128,-1,33
 164 231 164 231 144 207.5 c 128,-1,34
 124 184 124 184 124 144 c 0,35,36
 124 98 124 98 156 72 c 128,-1,37
 188 46 188 46 241 46 c 0,38,26
 278 46 278 46 315.5 64 c 128,-1,27
349.5 608.5 m 128,-1,40
 320 580 320 580 277 580 c 0,41,42
 235 580 235 580 206 609.5 c 128,-1,43
 177 639 177 639 177 682 c 0,44,45
 177 722 177 722 206.5 751 c 128,-1,46
 236 780 236 780 277 780 c 0,47,48
 320 780 320 780 349.5 751 c 128,-1,49
 379 722 379 722 379 680 c 0,50,39
 379 637 379 637 349.5 608.5 c 128,-1,40
315 719.5 m 128,-1,52
 299 735 299 735 276 735 c 0,53,54
 254 735 254 735 237.5 719 c 128,-1,55
 221 703 221 703 221 680 c 0,56,57
 221 658 221 658 237.5 641 c 128,-1,58
 254 624 254 624 276 624 c 0,59,60
 299 624 299 624 315 641 c 128,-1,61
 331 658 331 658 331 680 c 0,62,51
 331 704 331 704 315 719.5 c 128,-1,52
EndSplineSet
EndChar

StartChar: ae
Encoding: 230 230 167
Width: 927
GlyphClass: 2
Flags: W
AnchorPoint: "Anchor-5" 0 0 basechar 0
AnchorPoint: "Anchor-4" 0 0 basechar 0
AnchorPoint: "Anchor-3" 454 517 basechar 0
AnchorPoint: "Anchor-2" 0 0 basechar 0
LayerCount: 2
Fore
SplineSet
496.5 148.5 m 128,-1,1
 520 103 520 103 560.5 75 c 128,-1,2
 601 47 601 47 648 47 c 0,3,4
 708 47 708 47 744 71.5 c 128,-1,5
 780 96 780 96 812 138 c 1,6,-1
 862 110 l 1,7,8
 829 53 829 53 772 21.5 c 128,-1,9
 715 -10 715 -10 640 -10 c 0,10,11
 567 -10 567 -10 521 20.5 c 128,-1,12
 475 51 475 51 440 97 c 0,13,14
 439 99 439 99 437.5 99 c 128,-1,15
 436 99 436 99 434 97 c 0,16,17
 393 49 393 49 344.5 19.5 c 128,-1,18
 296 -10 296 -10 216 -10 c 0,19,20
 139 -10 139 -10 95.5 29 c 128,-1,21
 52 68 52 68 52 134 c 0,22,23
 52 208 52 208 113 252 c 128,-1,24
 174 296 174 296 296 305 c 2,25,-1
 404 313 l 1,26,-1
 404 354 l 2,27,28
 404 410 404 410 370.5 441 c 128,-1,29
 337 472 337 472 274 472 c 0,30,31
 187 472 187 472 126 383 c 1,32,-1
 66 406 l 1,33,34
 98 465 98 465 152.5 496 c 128,-1,35
 207 527 207 527 281 527 c 0,36,37
 419 527 419 527 455 427 c 1,38,39
 484 476 484 476 532 501.5 c 128,-1,40
 580 527 580 527 642 527 c 0,41,42
 711 527 711 527 764 493.5 c 128,-1,43
 817 460 817 460 846 396 c 128,-1,44
 875 332 875 332 875 243 c 1,45,-1
 473 242 l 1,46,0
 473 194 473 194 496.5 148.5 c 128,-1,1
557.5 450 m 128,-1,48
 520 428 520 428 498 387.5 c 128,-1,49
 476 347 476 347 476 293 c 1,50,-1
 801 292 l 1,51,52
 801 340 801 340 781 381.5 c 128,-1,53
 761 423 761 423 724.5 447.5 c 128,-1,54
 688 472 688 472 641 472 c 0,55,47
 595 472 595 472 557.5 450 c 128,-1,48
313 257 m 2,56,57
 127 242 127 242 127 139 c 0,58,59
 127 96 127 96 155 70.5 c 128,-1,60
 183 45 183 45 233 45 c 0,61,62
 279 45 279 45 318 62 c 128,-1,63
 357 79 357 79 380.5 107.5 c 128,-1,64
 404 136 404 136 404 169 c 2,65,-1
 404 263 l 1,66,-1
 313 257 l 2,56,57
EndSplineSet
EndChar

StartChar: ccedilla
Encoding: 231 231 168
Width: 537
GlyphClass: 2
Flags: W
AnchorPoint: "Anchor-5" 0 0 basechar 0
AnchorPoint: "Anchor-4" 285 0 basechar 0
AnchorPoint: "Anchor-3" 283 517 basechar 0
AnchorPoint: "Anchor-2" 0 0 basechar 0
LayerCount: 2
Fore
SplineSet
479 391 m 1,0,-1
 419 375 l 1,1,2
 382 426 382 426 355.5 446 c 128,-1,3
 329 466 329 466 288 466 c 0,4,5
 212 466 212 466 167.5 409.5 c 128,-1,6
 123 353 123 353 123 258 c 0,7,8
 123 162 123 162 167.5 105 c 128,-1,9
 212 48 212 48 288 48 c 0,10,11
 335 48 335 48 366 72.5 c 128,-1,12
 397 97 397 97 426 147 c 1,13,-1
 485 130 l 1,14,15
 456 63 456 63 405.5 26.5 c 128,-1,16
 355 -10 355 -10 284 -10 c 0,17,18
 214 -10 214 -10 161.5 23.5 c 128,-1,19
 109 57 109 57 80.5 117 c 128,-1,20
 52 177 52 177 52 256 c 128,-1,21
 52 335 52 335 80.5 396.5 c 128,-1,22
 109 458 109 458 161.5 492.5 c 128,-1,23
 214 527 214 527 284 527 c 0,24,25
 417 527 417 527 479 391 c 1,0,-1
340 -183 m 128,-1,27
 310 -203 310 -203 266 -203 c 0,28,29
 213 -203 213 -203 178 -179 c 1,30,-1
 192 -144 l 1,31,32
 220 -167 220 -167 257 -167 c 0,33,34
 313 -167 313 -167 313 -129 c 0,35,36
 313 -106 313 -106 294 -95.5 c 128,-1,37
 275 -85 275 -85 235 -84 c 0,38,39
 227 -84 227 -84 229 -78 c 2,40,-1
 266 5 l 1,41,-1
 309 5 l 1,42,-1
 285 -56 l 1,43,44
 330 -59 330 -59 350 -79.5 c 128,-1,45
 370 -100 370 -100 370 -128 c 0,46,26
 370 -163 370 -163 340 -183 c 128,-1,27
EndSplineSet
EndChar

StartChar: egrave
Encoding: 232 232 169
Width: 555
GlyphClass: 2
Flags: W
AnchorPoint: "Anchor-5" 0 0 basechar 0
AnchorPoint: "Anchor-4" 277 0 basechar 0
AnchorPoint: "Anchor-3" 283 517 basechar 0
AnchorPoint: "Anchor-2" 384 20 basechar 0
LayerCount: 2
Fore
SplineSet
169.5 104 m 128,-1,1
 212 50 212 50 292 50 c 0,2,3
 395 50 395 50 428 134 c 1,4,-1
 495 121 l 1,5,6
 477 60 477 60 422 25 c 128,-1,7
 367 -10 367 -10 293 -10 c 0,8,9
 222 -10 222 -10 167.5 21.5 c 128,-1,10
 113 53 113 53 82.5 112.5 c 128,-1,11
 52 172 52 172 52 254 c 0,12,13
 52 380 52 380 113 453.5 c 128,-1,14
 174 527 174 527 283 527 c 0,15,16
 387 527 387 527 445 459.5 c 128,-1,17
 503 392 503 392 503 273 c 2,18,-1
 503 241 l 1,19,-1
 127 241 l 1,20,0
 127 158 127 158 169.5 104 c 128,-1,1
432 295 m 1,21,22
 432 372 432 372 394 420 c 128,-1,23
 356 468 356 468 282 468 c 0,24,25
 231 468 231 468 196 443 c 128,-1,26
 161 418 161 418 144 378.5 c 128,-1,27
 127 339 127 339 127 295 c 1,28,-1
 432 295 l 1,21,22
399 637 m 1,29,-1
 386 596 l 1,30,-1
 138 671 l 1,31,-1
 159 732 l 1,32,-1
 399 637 l 1,29,-1
EndSplineSet
EndChar

StartChar: eacute
Encoding: 233 233 170
Width: 555
GlyphClass: 2
Flags: W
AnchorPoint: "Anchor-5" 0 0 basechar 0
AnchorPoint: "Anchor-4" 277 0 basechar 0
AnchorPoint: "Anchor-3" 283 517 basechar 0
AnchorPoint: "Anchor-2" 384 20 basechar 0
LayerCount: 2
Fore
SplineSet
169.5 104 m 128,-1,1
 212 50 212 50 292 50 c 0,2,3
 395 50 395 50 428 134 c 1,4,-1
 495 121 l 1,5,6
 477 60 477 60 422 25 c 128,-1,7
 367 -10 367 -10 293 -10 c 0,8,9
 222 -10 222 -10 167.5 21.5 c 128,-1,10
 113 53 113 53 82.5 112.5 c 128,-1,11
 52 172 52 172 52 254 c 0,12,13
 52 380 52 380 113 453.5 c 128,-1,14
 174 527 174 527 283 527 c 0,15,16
 387 527 387 527 445 459.5 c 128,-1,17
 503 392 503 392 503 273 c 2,18,-1
 503 241 l 1,19,-1
 127 241 l 1,20,0
 127 158 127 158 169.5 104 c 128,-1,1
432 295 m 1,21,22
 432 372 432 372 394 420 c 128,-1,23
 356 468 356 468 282 468 c 0,24,25
 231 468 231 468 196 443 c 128,-1,26
 161 418 161 418 144 378.5 c 128,-1,27
 127 339 127 339 127 295 c 1,28,-1
 432 295 l 1,21,22
413 671 m 1,29,-1
 166 596 l 1,30,-1
 152 637 l 1,31,-1
 393 732 l 1,32,-1
 413 671 l 1,29,-1
EndSplineSet
EndChar

StartChar: ecircumflex
Encoding: 234 234 171
Width: 555
GlyphClass: 2
Flags: W
AnchorPoint: "Anchor-5" 0 0 basechar 0
AnchorPoint: "Anchor-4" 277 0 basechar 0
AnchorPoint: "Anchor-3" 283 517 basechar 0
AnchorPoint: "Anchor-2" 384 20 basechar 0
LayerCount: 2
Fore
SplineSet
169.5 104 m 128,-1,1
 212 50 212 50 292 50 c 0,2,3
 395 50 395 50 428 134 c 1,4,-1
 495 121 l 1,5,6
 477 60 477 60 422 25 c 128,-1,7
 367 -10 367 -10 293 -10 c 0,8,9
 222 -10 222 -10 167.5 21.5 c 128,-1,10
 113 53 113 53 82.5 112.5 c 128,-1,11
 52 172 52 172 52 254 c 0,12,13
 52 380 52 380 113 453.5 c 128,-1,14
 174 527 174 527 283 527 c 0,15,16
 387 527 387 527 445 459.5 c 128,-1,17
 503 392 503 392 503 273 c 2,18,-1
 503 241 l 1,19,-1
 127 241 l 1,20,0
 127 158 127 158 169.5 104 c 128,-1,1
432 295 m 1,21,22
 432 372 432 372 394 420 c 128,-1,23
 356 468 356 468 282 468 c 0,24,25
 231 468 231 468 196 443 c 128,-1,26
 161 418 161 418 144 378.5 c 128,-1,27
 127 339 127 339 127 295 c 1,28,-1
 432 295 l 1,21,22
282 682 m 1,29,-1
 206 618 l 1,30,-1
 133 618 l 1,31,-1
 256 725 l 1,32,-1
 310 725 l 1,33,-1
 431 618 l 1,34,-1
 354 618 l 1,35,-1
 282 682 l 1,29,-1
EndSplineSet
EndChar

StartChar: edieresis
Encoding: 235 235 172
Width: 555
GlyphClass: 2
Flags: W
AnchorPoint: "Anchor-5" 0 0 basechar 0
AnchorPoint: "Anchor-4" 277 0 basechar 0
AnchorPoint: "Anchor-3" 283 517 basechar 0
AnchorPoint: "Anchor-2" 384 20 basechar 0
LayerCount: 2
Fore
SplineSet
169.5 104 m 128,-1,1
 212 50 212 50 292 50 c 0,2,3
 395 50 395 50 428 134 c 1,4,-1
 495 121 l 1,5,6
 477 60 477 60 422 25 c 128,-1,7
 367 -10 367 -10 293 -10 c 0,8,9
 222 -10 222 -10 167.5 21.5 c 128,-1,10
 113 53 113 53 82.5 112.5 c 128,-1,11
 52 172 52 172 52 254 c 0,12,13
 52 380 52 380 113 453.5 c 128,-1,14
 174 527 174 527 283 527 c 0,15,16
 387 527 387 527 445 459.5 c 128,-1,17
 503 392 503 392 503 273 c 2,18,-1
 503 241 l 1,19,-1
 127 241 l 1,20,0
 127 158 127 158 169.5 104 c 128,-1,1
432 295 m 1,21,22
 432 372 432 372 394 420 c 128,-1,23
 356 468 356 468 282 468 c 0,24,25
 231 468 231 468 196 443 c 128,-1,26
 161 418 161 418 144 378.5 c 128,-1,27
 127 339 127 339 127 295 c 1,28,-1
 432 295 l 1,21,22
251 618 m 1,29,-1
 178 618 l 1,30,-1
 178 723 l 1,31,-1
 251 723 l 1,32,-1
 251 618 l 1,29,-1
388 618 m 1,33,-1
 313 618 l 1,34,-1
 313 723 l 1,35,-1
 388 723 l 1,36,-1
 388 618 l 1,33,-1
EndSplineSet
EndChar

StartChar: igrave
Encoding: 236 236 173
Width: 238
GlyphClass: 2
Flags: W
AnchorPoint: "Anchor-5" 0 0 basechar 0
AnchorPoint: "Anchor-4" 0 0 basechar 0
AnchorPoint: "Anchor-3" 120 517 basechar 0
AnchorPoint: "Anchor-2" 143 12 basechar 0
LayerCount: 2
Fore
SplineSet
156 0 m 1,0,-1
 83 0 l 1,1,-1
 83 517 l 1,2,-1
 156 517 l 1,3,-1
 156 0 l 1,0,-1
236 637 m 1,4,-1
 223 596 l 1,5,-1
 -25 671 l 1,6,-1
 -4 732 l 1,7,-1
 236 637 l 1,4,-1
EndSplineSet
EndChar

StartChar: iacute
Encoding: 237 237 174
Width: 238
GlyphClass: 2
Flags: W
AnchorPoint: "Anchor-5" 0 0 basechar 0
AnchorPoint: "Anchor-4" 0 0 basechar 0
AnchorPoint: "Anchor-3" 120 517 basechar 0
AnchorPoint: "Anchor-2" 143 12 basechar 0
LayerCount: 2
Fore
SplineSet
156 0 m 1,0,-1
 83 0 l 1,1,-1
 83 517 l 1,2,-1
 156 517 l 1,3,-1
 156 0 l 1,0,-1
250 671 m 1,4,-1
 3 596 l 1,5,-1
 -11 637 l 1,6,-1
 230 732 l 1,7,-1
 250 671 l 1,4,-1
EndSplineSet
EndChar

StartChar: icircumflex
Encoding: 238 238 175
Width: 238
GlyphClass: 2
Flags: W
AnchorPoint: "Anchor-5" 0 0 basechar 0
AnchorPoint: "Anchor-4" 0 0 basechar 0
AnchorPoint: "Anchor-3" 120 517 basechar 0
AnchorPoint: "Anchor-2" 143 12 basechar 0
LayerCount: 2
Fore
SplineSet
156 0 m 1,0,-1
 83 0 l 1,1,-1
 83 517 l 1,2,-1
 156 517 l 1,3,-1
 156 0 l 1,0,-1
119 682 m 1,4,-1
 43 618 l 1,5,-1
 -30 618 l 1,6,-1
 93 725 l 1,7,-1
 147 725 l 1,8,-1
 268 618 l 1,9,-1
 191 618 l 1,10,-1
 119 682 l 1,4,-1
EndSplineSet
EndChar

StartChar: idieresis
Encoding: 239 239 176
Width: 238
GlyphClass: 2
Flags: W
AnchorPoint: "Anchor-5" 0 0 basechar 0
AnchorPoint: "Anchor-4" 0 0 basechar 0
AnchorPoint: "Anchor-3" 120 517 basechar 0
AnchorPoint: "Anchor-2" 143 12 basechar 0
LayerCount: 2
Fore
SplineSet
156 0 m 1,0,-1
 83 0 l 1,1,-1
 83 517 l 1,2,-1
 156 517 l 1,3,-1
 156 0 l 1,0,-1
88 618 m 1,4,-1
 15 618 l 1,5,-1
 15 723 l 1,6,-1
 88 723 l 1,7,-1
 88 618 l 1,4,-1
225 618 m 1,8,-1
 150 618 l 1,9,-1
 150 723 l 1,10,-1
 225 723 l 1,11,-1
 225 618 l 1,8,-1
EndSplineSet
EndChar

StartChar: eth
Encoding: 240 240 177
Width: 594
GlyphClass: 2
Flags: W
LayerCount: 2
Fore
SplineSet
511.5 117 m 128,-1,1
 482 57 482 57 426 23.5 c 128,-1,2
 370 -10 370 -10 295 -10 c 0,3,4
 224 -10 224 -10 168.5 23 c 128,-1,5
 113 56 113 56 82.5 114 c 128,-1,6
 52 172 52 172 52 246 c 0,7,8
 52 321 52 321 82.5 380.5 c 128,-1,9
 113 440 113 440 167.5 473.5 c 128,-1,10
 222 507 222 507 290 507 c 0,11,12
 372 507 372 507 421 456 c 1,13,14
 378 552 378 552 279 620 c 1,15,-1
 121 531 l 1,16,-1
 99 566 l 1,17,-1
 240 644 l 1,18,19
 192 672 192 672 125 697 c 1,20,-1
 175 734 l 1,21,22
 236 713 236 713 299 678 c 1,23,-1
 402 735 l 1,24,-1
 421 699 l 1,25,-1
 338 652 l 1,26,27
 541 513 541 513 541 255 c 0,28,0
 541 177 541 177 511.5 117 c 128,-1,1
385 72 m 128,-1,30
 423 98 423 98 444.5 144.5 c 128,-1,31
 466 191 466 191 466 248 c 0,32,33
 466 306 466 306 444.5 352.5 c 128,-1,34
 423 399 423 399 384.5 425.5 c 128,-1,35
 346 452 346 452 298 452 c 0,36,37
 249 452 249 452 210 425.5 c 128,-1,38
 171 399 171 399 149 352.5 c 128,-1,39
 127 306 127 306 127 248 c 0,40,41
 127 191 127 191 149 144.5 c 128,-1,42
 171 98 171 98 210 72 c 128,-1,43
 249 46 249 46 298 46 c 128,-1,29
 347 46 347 46 385 72 c 128,-1,30
EndSplineSet
EndChar

StartChar: ntilde
Encoding: 241 241 178
Width: 583
GlyphClass: 2
Flags: W
AnchorPoint: "Anchor-5" 0 0 basechar 0
AnchorPoint: "Anchor-4" 292 0 basechar 0
AnchorPoint: "Anchor-3" 300 517 basechar 0
AnchorPoint: "Anchor-2" 0 0 basechar 0
LayerCount: 2
Fore
SplineSet
83 517 m 1,0,-1
 153 517 l 1,1,-1
 153 443 l 1,2,3
 175 480 175 480 217.5 502.5 c 128,-1,4
 260 525 260 525 319 525 c 0,5,6
 398 525 398 525 449 476.5 c 128,-1,7
 500 428 500 428 500 338 c 2,8,-1
 500 0 l 1,9,-1
 427 0 l 1,10,-1
 427 332 l 2,11,12
 427 395 427 395 393.5 429 c 128,-1,13
 360 463 360 463 303 463 c 0,14,15
 240 463 240 463 198 434.5 c 128,-1,16
 156 406 156 406 156 352 c 2,17,-1
 156 0 l 1,18,-1
 83 0 l 1,19,-1
 83 517 l 1,0,-1
363 642 m 0,20,21
 344 642 344 642 329.5 645.5 c 128,-1,22
 315 649 315 649 296 656 c 0,23,24
 262 668 262 668 242 668 c 0,25,26
 226 668 226 668 215 664 c 128,-1,27
 204 660 204 660 195.5 654.5 c 128,-1,28
 187 649 187 649 183 647 c 0,29,30
 179 644 179 644 176 644 c 128,-1,31
 173 644 173 644 171 652 c 2,32,-1
 162 676 l 2,33,34
 160 680 160 680 160 681 c 0,35,36
 160 683 160 683 165 688 c 0,37,38
 184 702 184 702 199.5 709.5 c 128,-1,39
 215 717 215 717 237 717 c 0,40,41
 253 717 253 717 267.5 713.5 c 128,-1,42
 282 710 282 710 303 703 c 0,43,44
 340 690 340 690 363 690 c 0,45,46
 379 690 379 690 390.5 694.5 c 128,-1,47
 402 699 402 699 418 708 c 0,48,49
 423 711 423 711 426 711 c 0,50,51
 430 711 430 711 433 704 c 2,52,-1
 442 676 l 2,53,54
 443 675 443 675 443 672 c 0,55,56
 443 668 443 668 435 664 c 0,57,58
 404 642 404 642 363 642 c 0,20,21
EndSplineSet
EndChar

StartChar: ograve
Encoding: 242 242 179
Width: 567
GlyphClass: 2
Flags: W
AnchorPoint: "Anchor-5" 0 0 basechar 0
AnchorPoint: "Anchor-4" 282 0 basechar 0
AnchorPoint: "Anchor-3" 285 517 basechar 0
AnchorPoint: "Anchor-2" 349 10 basechar 0
LayerCount: 2
Fore
SplineSet
113.5 62.5 m 128,-1,1
 52 135 52 135 52 255 c 0,2,3
 52 335 52 335 80 396.5 c 128,-1,4
 108 458 108 458 160.5 492.5 c 128,-1,5
 213 527 213 527 285 527 c 0,6,7
 356 527 356 527 408 492.5 c 128,-1,8
 460 458 460 458 487.5 397 c 128,-1,9
 515 336 515 336 515 257 c 128,-1,10
 515 178 515 178 487.5 117.5 c 128,-1,11
 460 57 460 57 408 23.5 c 128,-1,12
 356 -10 356 -10 284 -10 c 0,13,0
 175 -10 175 -10 113.5 62.5 c 128,-1,1
402 106.5 m 128,-1,15
 441 163 441 163 441 258 c 128,-1,16
 441 353 441 353 401.5 410 c 128,-1,17
 362 467 362 467 285 467 c 0,18,19
 207 467 207 467 166.5 409.5 c 128,-1,20
 126 352 126 352 126 258 c 0,21,22
 126 165 126 165 166.5 107.5 c 128,-1,23
 207 50 207 50 285 50 c 128,-1,14
 363 50 363 50 402 106.5 c 128,-1,15
401 637 m 1,24,-1
 388 596 l 1,25,-1
 140 671 l 1,26,-1
 161 732 l 1,27,-1
 401 637 l 1,24,-1
EndSplineSet
EndChar

StartChar: oacute
Encoding: 243 243 180
Width: 567
GlyphClass: 2
Flags: W
AnchorPoint: "Anchor-5" 0 0 basechar 0
AnchorPoint: "Anchor-4" 282 0 basechar 0
AnchorPoint: "Anchor-3" 285 517 basechar 0
AnchorPoint: "Anchor-2" 349 10 basechar 0
LayerCount: 2
Fore
SplineSet
113.5 62.5 m 128,-1,1
 52 135 52 135 52 255 c 0,2,3
 52 335 52 335 80 396.5 c 128,-1,4
 108 458 108 458 160.5 492.5 c 128,-1,5
 213 527 213 527 285 527 c 0,6,7
 356 527 356 527 408 492.5 c 128,-1,8
 460 458 460 458 487.5 397 c 128,-1,9
 515 336 515 336 515 257 c 128,-1,10
 515 178 515 178 487.5 117.5 c 128,-1,11
 460 57 460 57 408 23.5 c 128,-1,12
 356 -10 356 -10 284 -10 c 0,13,0
 175 -10 175 -10 113.5 62.5 c 128,-1,1
402 106.5 m 128,-1,15
 441 163 441 163 441 258 c 128,-1,16
 441 353 441 353 401.5 410 c 128,-1,17
 362 467 362 467 285 467 c 0,18,19
 207 467 207 467 166.5 409.5 c 128,-1,20
 126 352 126 352 126 258 c 0,21,22
 126 165 126 165 166.5 107.5 c 128,-1,23
 207 50 207 50 285 50 c 128,-1,14
 363 50 363 50 402 106.5 c 128,-1,15
415 671 m 1,24,-1
 168 596 l 1,25,-1
 154 637 l 1,26,-1
 395 732 l 1,27,-1
 415 671 l 1,24,-1
EndSplineSet
EndChar

StartChar: ocircumflex
Encoding: 244 244 181
Width: 567
GlyphClass: 2
Flags: W
AnchorPoint: "Anchor-5" 0 0 basechar 0
AnchorPoint: "Anchor-4" 282 0 basechar 0
AnchorPoint: "Anchor-3" 285 517 basechar 0
AnchorPoint: "Anchor-2" 349 10 basechar 0
LayerCount: 2
Fore
SplineSet
113.5 62.5 m 128,-1,1
 52 135 52 135 52 255 c 0,2,3
 52 335 52 335 80 396.5 c 128,-1,4
 108 458 108 458 160.5 492.5 c 128,-1,5
 213 527 213 527 285 527 c 0,6,7
 356 527 356 527 408 492.5 c 128,-1,8
 460 458 460 458 487.5 397 c 128,-1,9
 515 336 515 336 515 257 c 128,-1,10
 515 178 515 178 487.5 117.5 c 128,-1,11
 460 57 460 57 408 23.5 c 128,-1,12
 356 -10 356 -10 284 -10 c 0,13,0
 175 -10 175 -10 113.5 62.5 c 128,-1,1
402 106.5 m 128,-1,15
 441 163 441 163 441 258 c 128,-1,16
 441 353 441 353 401.5 410 c 128,-1,17
 362 467 362 467 285 467 c 0,18,19
 207 467 207 467 166.5 409.5 c 128,-1,20
 126 352 126 352 126 258 c 0,21,22
 126 165 126 165 166.5 107.5 c 128,-1,23
 207 50 207 50 285 50 c 128,-1,14
 363 50 363 50 402 106.5 c 128,-1,15
284 682 m 1,24,-1
 208 618 l 1,25,-1
 135 618 l 1,26,-1
 258 725 l 1,27,-1
 312 725 l 1,28,-1
 433 618 l 1,29,-1
 356 618 l 1,30,-1
 284 682 l 1,24,-1
EndSplineSet
EndChar

StartChar: otilde
Encoding: 245 245 182
Width: 567
GlyphClass: 2
Flags: W
AnchorPoint: "Anchor-5" 0 0 basechar 0
AnchorPoint: "Anchor-4" 282 0 basechar 0
AnchorPoint: "Anchor-3" 285 517 basechar 0
AnchorPoint: "Anchor-2" 349 10 basechar 0
LayerCount: 2
Fore
SplineSet
113.5 62.5 m 128,-1,1
 52 135 52 135 52 255 c 0,2,3
 52 335 52 335 80 396.5 c 128,-1,4
 108 458 108 458 160.5 492.5 c 128,-1,5
 213 527 213 527 285 527 c 0,6,7
 356 527 356 527 408 492.5 c 128,-1,8
 460 458 460 458 487.5 397 c 128,-1,9
 515 336 515 336 515 257 c 128,-1,10
 515 178 515 178 487.5 117.5 c 128,-1,11
 460 57 460 57 408 23.5 c 128,-1,12
 356 -10 356 -10 284 -10 c 0,13,0
 175 -10 175 -10 113.5 62.5 c 128,-1,1
402 106.5 m 128,-1,15
 441 163 441 163 441 258 c 128,-1,16
 441 353 441 353 401.5 410 c 128,-1,17
 362 467 362 467 285 467 c 0,18,19
 207 467 207 467 166.5 409.5 c 128,-1,20
 126 352 126 352 126 258 c 0,21,22
 126 165 126 165 166.5 107.5 c 128,-1,23
 207 50 207 50 285 50 c 128,-1,14
 363 50 363 50 402 106.5 c 128,-1,15
348 642 m 0,24,25
 329 642 329 642 314.5 645.5 c 128,-1,26
 300 649 300 649 281 656 c 0,27,28
 247 668 247 668 227 668 c 0,29,30
 211 668 211 668 200 664 c 128,-1,31
 189 660 189 660 180.5 654.5 c 128,-1,32
 172 649 172 649 168 647 c 0,33,34
 164 644 164 644 161 644 c 128,-1,35
 158 644 158 644 156 652 c 2,36,-1
 147 676 l 2,37,38
 145 680 145 680 145 681 c 0,39,40
 145 683 145 683 150 688 c 0,41,42
 169 702 169 702 184.5 709.5 c 128,-1,43
 200 717 200 717 222 717 c 0,44,45
 238 717 238 717 252.5 713.5 c 128,-1,46
 267 710 267 710 288 703 c 0,47,48
 325 690 325 690 348 690 c 0,49,50
 364 690 364 690 375.5 694.5 c 128,-1,51
 387 699 387 699 403 708 c 0,52,53
 408 711 408 711 411 711 c 0,54,55
 415 711 415 711 418 704 c 2,56,-1
 427 676 l 2,57,58
 428 675 428 675 428 672 c 0,59,60
 428 668 428 668 420 664 c 0,61,62
 389 642 389 642 348 642 c 0,24,25
EndSplineSet
EndChar

StartChar: odieresis
Encoding: 246 246 183
Width: 567
GlyphClass: 2
Flags: W
AnchorPoint: "Anchor-5" 0 0 basechar 0
AnchorPoint: "Anchor-4" 282 0 basechar 0
AnchorPoint: "Anchor-3" 285 517 basechar 0
AnchorPoint: "Anchor-2" 349 10 basechar 0
LayerCount: 2
Fore
SplineSet
113.5 62.5 m 128,-1,1
 52 135 52 135 52 255 c 0,2,3
 52 335 52 335 80 396.5 c 128,-1,4
 108 458 108 458 160.5 492.5 c 128,-1,5
 213 527 213 527 285 527 c 0,6,7
 356 527 356 527 408 492.5 c 128,-1,8
 460 458 460 458 487.5 397 c 128,-1,9
 515 336 515 336 515 257 c 128,-1,10
 515 178 515 178 487.5 117.5 c 128,-1,11
 460 57 460 57 408 23.5 c 128,-1,12
 356 -10 356 -10 284 -10 c 0,13,0
 175 -10 175 -10 113.5 62.5 c 128,-1,1
402 106.5 m 128,-1,15
 441 163 441 163 441 258 c 128,-1,16
 441 353 441 353 401.5 410 c 128,-1,17
 362 467 362 467 285 467 c 0,18,19
 207 467 207 467 166.5 409.5 c 128,-1,20
 126 352 126 352 126 258 c 0,21,22
 126 165 126 165 166.5 107.5 c 128,-1,23
 207 50 207 50 285 50 c 128,-1,14
 363 50 363 50 402 106.5 c 128,-1,15
253 618 m 1,24,-1
 180 618 l 1,25,-1
 180 723 l 1,26,-1
 253 723 l 1,27,-1
 253 618 l 1,24,-1
390 618 m 1,28,-1
 315 618 l 1,29,-1
 315 723 l 1,30,-1
 390 723 l 1,31,-1
 390 618 l 1,28,-1
EndSplineSet
EndChar

StartChar: divide
Encoding: 247 247 184
Width: 545
GlyphClass: 2
Flags: W
LayerCount: 2
Fore
SplineSet
324 482 m 1,0,-1
 221 482 l 1,1,-1
 221 582 l 1,2,-1
 324 582 l 1,3,-1
 324 482 l 1,0,-1
480 334 m 1,4,-1
 63 333 l 1,5,-1
 63 392 l 1,6,-1
 480 393 l 1,7,-1
 480 334 l 1,4,-1
324 146 m 1,8,-1
 221 146 l 1,9,-1
 221 245 l 1,10,-1
 324 245 l 1,11,-1
 324 146 l 1,8,-1
EndSplineSet
EndChar

StartChar: oslash
Encoding: 248 248 185
Width: 572
GlyphClass: 2
Flags: W
AnchorPoint: "Anchor-5" 0 0 basechar 0
AnchorPoint: "Anchor-4" 282 0 basechar 0
AnchorPoint: "Anchor-3" 285 517 basechar 0
AnchorPoint: "Anchor-2" 349 10 basechar 0
LayerCount: 2
Fore
SplineSet
479 413 m 1,0,1
 515 349 515 349 515 257 c 0,2,3
 515 178 515 178 487.5 117.5 c 128,-1,4
 460 57 460 57 408 23.5 c 128,-1,5
 356 -10 356 -10 284 -10 c 0,6,7
 231 -10 231 -10 188.5 8 c 128,-1,8
 146 26 146 26 116 60 c 1,9,-1
 49 -5 l 1,10,-1
 16 30 l 1,11,-1
 88 100 l 1,12,13
 52 163 52 163 52 255 c 0,14,15
 52 335 52 335 80 396.5 c 128,-1,16
 108 458 108 458 160.5 492.5 c 128,-1,17
 213 527 213 527 285 527 c 0,18,19
 337 527 337 527 379.5 508 c 128,-1,20
 422 489 422 489 452 454 c 1,21,-1
 520 520 l 1,22,-1
 553 485 l 1,23,-1
 479 413 l 1,0,1
143 153 m 1,24,-1
 404 407 l 1,25,26
 363 467 363 467 285 467 c 128,-1,27
 207 467 207 467 166.5 409.5 c 128,-1,28
 126 352 126 352 126 258 c 0,29,30
 126 196 126 196 143 153 c 1,24,-1
426 361 m 1,31,-1
 166 108 l 1,32,33
 208 50 208 50 285 50 c 0,34,35
 363 50 363 50 402 106.5 c 128,-1,36
 441 163 441 163 441 258 c 0,37,38
 441 316 441 316 426 361 c 1,31,-1
EndSplineSet
EndChar

StartChar: ugrave
Encoding: 249 249 186
Width: 583
GlyphClass: 2
Flags: W
AnchorPoint: "Anchor-5" 0 0 basechar 0
AnchorPoint: "Anchor-4" 290 0 basechar 0
AnchorPoint: "Anchor-3" 282 517 basechar 0
AnchorPoint: "Anchor-2" 486 11 basechar 0
LayerCount: 2
Fore
SplineSet
187 9 m 128,-1,1
 142 27 142 27 112.5 67 c 128,-1,2
 83 107 83 107 83 169 c 2,3,-1
 83 519 l 1,4,-1
 156 519 l 1,5,-1
 156 175 l 2,6,7
 156 110 156 110 196.5 80 c 128,-1,8
 237 50 237 50 288 50 c 0,9,10
 345 50 345 50 385.5 84.5 c 128,-1,11
 426 119 426 119 427 182 c 2,12,-1
 427 519 l 1,13,-1
 500 519 l 1,14,-1
 499 1 l 1,15,-1
 440 1 l 1,16,-1
 437 82 l 1,17,18
 421 46 421 46 375 18.5 c 128,-1,19
 329 -9 329 -9 279 -9 c 0,20,0
 232 -9 232 -9 187 9 c 128,-1,1
398 637 m 1,21,-1
 385 596 l 1,22,-1
 137 671 l 1,23,-1
 158 732 l 1,24,-1
 398 637 l 1,21,-1
EndSplineSet
EndChar

StartChar: uacute
Encoding: 250 250 187
Width: 583
GlyphClass: 2
Flags: W
AnchorPoint: "Anchor-5" 0 0 basechar 0
AnchorPoint: "Anchor-4" 290 0 basechar 0
AnchorPoint: "Anchor-3" 282 517 basechar 0
AnchorPoint: "Anchor-2" 486 11 basechar 0
LayerCount: 2
Fore
SplineSet
187 9 m 128,-1,1
 142 27 142 27 112.5 67 c 128,-1,2
 83 107 83 107 83 169 c 2,3,-1
 83 519 l 1,4,-1
 156 519 l 1,5,-1
 156 175 l 2,6,7
 156 110 156 110 196.5 80 c 128,-1,8
 237 50 237 50 288 50 c 0,9,10
 345 50 345 50 385.5 84.5 c 128,-1,11
 426 119 426 119 427 182 c 2,12,-1
 427 519 l 1,13,-1
 500 519 l 1,14,-1
 499 1 l 1,15,-1
 440 1 l 1,16,-1
 437 82 l 1,17,18
 421 46 421 46 375 18.5 c 128,-1,19
 329 -9 329 -9 279 -9 c 0,20,0
 232 -9 232 -9 187 9 c 128,-1,1
412 671 m 1,21,-1
 165 596 l 1,22,-1
 151 637 l 1,23,-1
 392 732 l 1,24,-1
 412 671 l 1,21,-1
EndSplineSet
EndChar

StartChar: ucircumflex
Encoding: 251 251 188
Width: 583
GlyphClass: 2
Flags: W
AnchorPoint: "Anchor-5" 0 0 basechar 0
AnchorPoint: "Anchor-4" 290 0 basechar 0
AnchorPoint: "Anchor-3" 282 517 basechar 0
AnchorPoint: "Anchor-2" 486 11 basechar 0
LayerCount: 2
Fore
SplineSet
187 9 m 128,-1,1
 142 27 142 27 112.5 67 c 128,-1,2
 83 107 83 107 83 169 c 2,3,-1
 83 519 l 1,4,-1
 156 519 l 1,5,-1
 156 175 l 2,6,7
 156 110 156 110 196.5 80 c 128,-1,8
 237 50 237 50 288 50 c 0,9,10
 345 50 345 50 385.5 84.5 c 128,-1,11
 426 119 426 119 427 182 c 2,12,-1
 427 519 l 1,13,-1
 500 519 l 1,14,-1
 499 1 l 1,15,-1
 440 1 l 1,16,-1
 437 82 l 1,17,18
 421 46 421 46 375 18.5 c 128,-1,19
 329 -9 329 -9 279 -9 c 0,20,0
 232 -9 232 -9 187 9 c 128,-1,1
281 682 m 1,21,-1
 205 618 l 1,22,-1
 132 618 l 1,23,-1
 255 725 l 1,24,-1
 309 725 l 1,25,-1
 430 618 l 1,26,-1
 353 618 l 1,27,-1
 281 682 l 1,21,-1
EndSplineSet
EndChar

StartChar: udieresis
Encoding: 252 252 189
Width: 583
GlyphClass: 2
Flags: W
AnchorPoint: "Anchor-5" 0 0 basechar 0
AnchorPoint: "Anchor-4" 290 0 basechar 0
AnchorPoint: "Anchor-3" 282 517 basechar 0
AnchorPoint: "Anchor-2" 486 11 basechar 0
LayerCount: 2
Fore
SplineSet
187 9 m 128,-1,1
 142 27 142 27 112.5 67 c 128,-1,2
 83 107 83 107 83 169 c 2,3,-1
 83 519 l 1,4,-1
 156 519 l 1,5,-1
 156 175 l 2,6,7
 156 110 156 110 196.5 80 c 128,-1,8
 237 50 237 50 288 50 c 0,9,10
 345 50 345 50 385.5 84.5 c 128,-1,11
 426 119 426 119 427 182 c 2,12,-1
 427 519 l 1,13,-1
 500 519 l 1,14,-1
 499 1 l 1,15,-1
 440 1 l 1,16,-1
 437 82 l 1,17,18
 421 46 421 46 375 18.5 c 128,-1,19
 329 -9 329 -9 279 -9 c 0,20,0
 232 -9 232 -9 187 9 c 128,-1,1
250 618 m 1,21,-1
 177 618 l 1,22,-1
 177 723 l 1,23,-1
 250 723 l 1,24,-1
 250 618 l 1,21,-1
387 618 m 1,25,-1
 312 618 l 1,26,-1
 312 723 l 1,27,-1
 387 723 l 1,28,-1
 387 618 l 1,25,-1
EndSplineSet
EndChar

StartChar: yacute
Encoding: 253 253 190
Width: 516
GlyphClass: 2
Flags: W
AnchorPoint: "Anchor-5" 0 0 basechar 0
AnchorPoint: "Anchor-4" 0 0 basechar 0
AnchorPoint: "Anchor-3" 265 517 basechar 0
AnchorPoint: "Anchor-2" 0 0 basechar 0
LayerCount: 2
Fore
SplineSet
76.5 -162.5 m 128,-1,1
 60 -160 60 -160 52.5 -157.5 c 128,-1,2
 45 -155 45 -155 44 -154 c 2,3,-1
 44 -106 l 1,4,-1
 98 -107 l 2,5,6
 147 -108 147 -108 170 -91.5 c 128,-1,7
 193 -75 193 -75 204 -47 c 2,8,-1
 225 9 l 1,9,-1
 23 517 l 1,10,-1
 98 517 l 1,11,-1
 260 95 l 1,12,-1
 422 517 l 1,13,-1
 493 517 l 1,14,-1
 272 -52 l 2,15,16
 247 -114 247 -114 209 -139.5 c 128,-1,17
 171 -165 171 -165 118 -165 c 0,18,0
 93 -165 93 -165 76.5 -162.5 c 128,-1,1
395 671 m 1,19,-1
 148 596 l 1,20,-1
 134 637 l 1,21,-1
 375 732 l 1,22,-1
 395 671 l 1,19,-1
EndSplineSet
EndChar

StartChar: thorn
Encoding: 254 254 191
Width: 588
GlyphClass: 2
Flags: W
LayerCount: 2
Fore
SplineSet
154 444 m 2,0,1
 157 447 157 447 177.5 470.5 c 128,-1,2
 198 494 198 494 236.5 510.5 c 128,-1,3
 275 527 275 527 320 527 c 0,4,5
 382 527 382 527 431 497.5 c 128,-1,6
 480 468 480 468 508 409.5 c 128,-1,7
 536 351 536 351 536 266 c 128,-1,8
 536 181 536 181 508 118.5 c 128,-1,9
 480 56 480 56 429 23 c 128,-1,10
 378 -10 378 -10 310 -10 c 0,11,12
 230 -10 230 -10 170 39 c 0,13,14
 163 45 163 45 160 45 c 0,15,16
 156 45 156 45 156 33 c 2,17,-1
 156 -161 l 1,18,-1
 83 -161 l 1,19,-1
 83 723 l 1,20,-1
 154 723 l 1,21,-1
 154 444 l 2,0,1
221 62 m 128,-1,23
 254 45 254 45 292 45 c 0,24,25
 368 45 368 45 414.5 102 c 128,-1,26
 461 159 461 159 461 264 c 0,27,28
 461 368 461 368 415 420 c 128,-1,29
 369 472 369 472 298 472 c 0,30,31
 258 472 258 472 225.5 454 c 128,-1,32
 193 436 193 436 174.5 409 c 128,-1,33
 156 382 156 382 156 355 c 2,34,-1
 156 111 l 1,35,22
 188 79 188 79 221 62 c 128,-1,23
EndSplineSet
EndChar

StartChar: ydieresis
Encoding: 255 255 192
Width: 516
GlyphClass: 2
Flags: W
AnchorPoint: "Anchor-5" 0 0 basechar 0
AnchorPoint: "Anchor-4" 0 0 basechar 0
AnchorPoint: "Anchor-3" 265 517 basechar 0
AnchorPoint: "Anchor-2" 0 0 basechar 0
LayerCount: 2
Fore
SplineSet
76.5 -162.5 m 128,-1,1
 60 -160 60 -160 52.5 -157.5 c 128,-1,2
 45 -155 45 -155 44 -154 c 2,3,-1
 44 -106 l 1,4,-1
 98 -107 l 2,5,6
 147 -108 147 -108 170 -91.5 c 128,-1,7
 193 -75 193 -75 204 -47 c 2,8,-1
 225 9 l 1,9,-1
 23 517 l 1,10,-1
 98 517 l 1,11,-1
 260 95 l 1,12,-1
 422 517 l 1,13,-1
 493 517 l 1,14,-1
 272 -52 l 2,15,16
 247 -114 247 -114 209 -139.5 c 128,-1,17
 171 -165 171 -165 118 -165 c 0,18,0
 93 -165 93 -165 76.5 -162.5 c 128,-1,1
233 618 m 1,19,-1
 160 618 l 1,20,-1
 160 723 l 1,21,-1
 233 723 l 1,22,-1
 233 618 l 1,19,-1
370 618 m 1,23,-1
 295 618 l 1,24,-1
 295 723 l 1,25,-1
 370 723 l 1,26,-1
 370 618 l 1,23,-1
EndSplineSet
EndChar

StartChar: Amacron
Encoding: 256 256 193
Width: 693
GlyphClass: 2
Flags: W
AnchorPoint: "Anchor-5" 0 0 basechar 0
AnchorPoint: "Anchor-4" 0 0 basechar 0
AnchorPoint: "Anchor-3" 350 723 basechar 0
AnchorPoint: "Anchor-2" 645 11 basechar 0
LayerCount: 2
Fore
SplineSet
304 723 m 1,0,-1
 390 723 l 1,1,-1
 652 0 l 1,2,-1
 577 0 l 1,3,-1
 501 209 l 1,4,-1
 193 209 l 1,5,-1
 116 0 l 1,6,-1
 41 0 l 1,7,-1
 304 723 l 1,0,-1
480 279 m 1,8,-1
 347 650 l 1,9,-1
 213 279 l 1,10,-1
 480 279 l 1,8,-1
489 859 m 1,11,-1
 211 859 l 1,12,-1
 211 914 l 1,13,-1
 489 914 l 1,14,-1
 489 859 l 1,11,-1
EndSplineSet
EndChar

StartChar: amacron
Encoding: 257 257 194
Width: 556
GlyphClass: 2
Flags: W
AnchorPoint: "Anchor-5" 0 0 basechar 0
AnchorPoint: "Anchor-4" 0 0 basechar 0
AnchorPoint: "Anchor-3" 277 517 basechar 0
AnchorPoint: "Anchor-2" 463 13 basechar 0
LayerCount: 2
Fore
SplineSet
98 29.5 m 128,-1,1
 52 69 52 69 52 137 c 0,2,3
 52 195 52 195 77.5 230 c 128,-1,4
 103 265 103 265 157 283 c 128,-1,5
 211 301 211 301 301 307 c 2,6,-1
 403 315 l 1,7,-1
 403 354 l 2,8,9
 403 408 403 408 369 439 c 128,-1,10
 335 470 335 470 277 470 c 0,11,12
 185 470 185 470 127 385 c 1,13,-1
 67 401 l 1,14,15
 93 460 93 460 148.5 493.5 c 128,-1,16
 204 527 204 527 280 527 c 0,17,18
 373 527 373 527 423.5 482.5 c 128,-1,19
 474 438 474 438 474 360 c 2,20,-1
 474 0 l 1,21,-1
 410 0 l 1,22,-1
 405 76 l 1,23,24
 331 -10 331 -10 221 -10 c 0,25,0
 144 -10 144 -10 98 29.5 c 128,-1,1
315.5 64 m 128,-1,27
 353 82 353 82 378 110.5 c 128,-1,28
 403 139 403 139 403 169 c 2,29,-1
 403 266 l 1,30,-1
 318 259 l 2,31,32
 247 254 247 254 205.5 242.5 c 128,-1,33
 164 231 164 231 144 207.5 c 128,-1,34
 124 184 124 184 124 144 c 0,35,36
 124 98 124 98 156 72 c 128,-1,37
 188 46 188 46 241 46 c 0,38,26
 278 46 278 46 315.5 64 c 128,-1,27
416 653 m 1,39,-1
 138 653 l 1,40,-1
 138 708 l 1,41,-1
 416 708 l 1,42,-1
 416 653 l 1,39,-1
EndSplineSet
EndChar

StartChar: Abreve
Encoding: 258 258 195
Width: 693
GlyphClass: 2
Flags: W
AnchorPoint: "Anchor-5" 0 0 basechar 0
AnchorPoint: "Anchor-4" 0 0 basechar 0
AnchorPoint: "Anchor-3" 350 723 basechar 0
AnchorPoint: "Anchor-2" 645 11 basechar 0
LayerCount: 2
Fore
SplineSet
304 723 m 1,0,-1
 390 723 l 1,1,-1
 652 0 l 1,2,-1
 577 0 l 1,3,-1
 501 209 l 1,4,-1
 193 209 l 1,5,-1
 116 0 l 1,6,-1
 41 0 l 1,7,-1
 304 723 l 1,0,-1
480 279 m 1,8,-1
 347 650 l 1,9,-1
 213 279 l 1,10,-1
 480 279 l 1,8,-1
444 858.5 m 128,-1,12
 406 828 406 828 350 828 c 0,13,14
 293 828 293 828 256.5 857 c 128,-1,15
 220 886 220 886 209 929 c 1,16,-1
 268 929 l 1,17,18
 281 908 281 908 299.5 893 c 128,-1,19
 318 878 318 878 350 878 c 0,20,21
 378 878 378 878 399 893 c 128,-1,22
 420 908 420 908 432 929 c 1,23,-1
 494 929 l 1,24,11
 482 889 482 889 444 858.5 c 128,-1,12
EndSplineSet
EndChar

StartChar: abreve
Encoding: 259 259 196
Width: 556
GlyphClass: 2
Flags: W
AnchorPoint: "Anchor-5" 0 0 basechar 0
AnchorPoint: "Anchor-4" 0 0 basechar 0
AnchorPoint: "Anchor-3" 277 517 basechar 0
AnchorPoint: "Anchor-2" 463 13 basechar 0
LayerCount: 2
Fore
SplineSet
98 29.5 m 128,-1,1
 52 69 52 69 52 137 c 0,2,3
 52 195 52 195 77.5 230 c 128,-1,4
 103 265 103 265 157 283 c 128,-1,5
 211 301 211 301 301 307 c 2,6,-1
 403 315 l 1,7,-1
 403 354 l 2,8,9
 403 408 403 408 369 439 c 128,-1,10
 335 470 335 470 277 470 c 0,11,12
 185 470 185 470 127 385 c 1,13,-1
 67 401 l 1,14,15
 93 460 93 460 148.5 493.5 c 128,-1,16
 204 527 204 527 280 527 c 0,17,18
 373 527 373 527 423.5 482.5 c 128,-1,19
 474 438 474 438 474 360 c 2,20,-1
 474 0 l 1,21,-1
 410 0 l 1,22,-1
 405 76 l 1,23,24
 331 -10 331 -10 221 -10 c 0,25,0
 144 -10 144 -10 98 29.5 c 128,-1,1
315.5 64 m 128,-1,27
 353 82 353 82 378 110.5 c 128,-1,28
 403 139 403 139 403 169 c 2,29,-1
 403 266 l 1,30,-1
 318 259 l 2,31,32
 247 254 247 254 205.5 242.5 c 128,-1,33
 164 231 164 231 144 207.5 c 128,-1,34
 124 184 124 184 124 144 c 0,35,36
 124 98 124 98 156 72 c 128,-1,37
 188 46 188 46 241 46 c 0,38,26
 278 46 278 46 315.5 64 c 128,-1,27
371 652.5 m 128,-1,40
 333 622 333 622 277 622 c 0,41,42
 220 622 220 622 183.5 651 c 128,-1,43
 147 680 147 680 136 723 c 1,44,-1
 195 723 l 1,45,46
 208 702 208 702 226.5 687 c 128,-1,47
 245 672 245 672 277 672 c 0,48,49
 305 672 305 672 326 687 c 128,-1,50
 347 702 347 702 359 723 c 1,51,-1
 421 723 l 1,52,39
 409 683 409 683 371 652.5 c 128,-1,40
EndSplineSet
EndChar

StartChar: Aogonek
Encoding: 260 260 197
Width: 693
GlyphClass: 2
Flags: W
AnchorPoint: "Anchor-5" 0 0 basechar 0
AnchorPoint: "Anchor-4" 0 0 basechar 0
AnchorPoint: "Anchor-3" 350 723 basechar 0
AnchorPoint: "Anchor-2" 645 11 basechar 0
LayerCount: 2
Fore
SplineSet
304 723 m 1,0,-1
 390 723 l 1,1,-1
 652 0 l 1,2,-1
 577 0 l 1,3,-1
 501 209 l 1,4,-1
 193 209 l 1,5,-1
 116 0 l 1,6,-1
 41 0 l 1,7,-1
 304 723 l 1,0,-1
480 279 m 1,8,-1
 347 650 l 1,9,-1
 213 279 l 1,10,-1
 480 279 l 1,8,-1
518 -32.5 m 128,-1,12
 541 -9 541 -9 599 9 c 1,13,-1
 654 2 l 1,14,15
 602 -20 602 -20 579.5 -39.5 c 128,-1,16
 557 -59 557 -59 557 -84 c 0,17,18
 557 -122 557 -122 607 -122 c 0,19,20
 626 -122 626 -122 642.5 -118 c 128,-1,21
 659 -114 659 -114 669 -109 c 0,22,23
 673 -107 673 -107 675 -107 c 0,24,25
 679 -107 679 -107 679 -114 c 2,26,-1
 679 -140 l 2,27,28
 679 -147 679 -147 672 -150 c 0,29,30
 661 -156 661 -156 638 -161 c 128,-1,31
 615 -166 615 -166 590 -166 c 0,32,33
 543 -166 543 -166 519 -145 c 128,-1,34
 495 -124 495 -124 495 -88 c 0,35,11
 495 -56 495 -56 518 -32.5 c 128,-1,12
EndSplineSet
EndChar

StartChar: aogonek
Encoding: 261 261 198
Width: 556
GlyphClass: 2
Flags: W
AnchorPoint: "Anchor-5" 0 0 basechar 0
AnchorPoint: "Anchor-4" 0 0 basechar 0
AnchorPoint: "Anchor-3" 277 517 basechar 0
AnchorPoint: "Anchor-2" 463 13 basechar 0
LayerCount: 2
Fore
SplineSet
98 29.5 m 128,-1,1
 52 69 52 69 52 137 c 0,2,3
 52 195 52 195 77.5 230 c 128,-1,4
 103 265 103 265 157 283 c 128,-1,5
 211 301 211 301 301 307 c 2,6,-1
 403 315 l 1,7,-1
 403 354 l 2,8,9
 403 408 403 408 369 439 c 128,-1,10
 335 470 335 470 277 470 c 0,11,12
 185 470 185 470 127 385 c 1,13,-1
 67 401 l 1,14,15
 93 460 93 460 148.5 493.5 c 128,-1,16
 204 527 204 527 280 527 c 0,17,18
 373 527 373 527 423.5 482.5 c 128,-1,19
 474 438 474 438 474 360 c 2,20,-1
 474 0 l 1,21,-1
 410 0 l 1,22,-1
 405 76 l 1,23,24
 331 -10 331 -10 221 -10 c 0,25,0
 144 -10 144 -10 98 29.5 c 128,-1,1
315.5 64 m 128,-1,27
 353 82 353 82 378 110.5 c 128,-1,28
 403 139 403 139 403 169 c 2,29,-1
 403 266 l 1,30,-1
 318 259 l 2,31,32
 247 254 247 254 205.5 242.5 c 128,-1,33
 164 231 164 231 144 207.5 c 128,-1,34
 124 184 124 184 124 144 c 0,35,36
 124 98 124 98 156 72 c 128,-1,37
 188 46 188 46 241 46 c 0,38,26
 278 46 278 46 315.5 64 c 128,-1,27
336 -30.5 m 128,-1,40
 359 -7 359 -7 417 11 c 1,41,-1
 472 4 l 1,42,43
 420 -18 420 -18 397.5 -37.5 c 128,-1,44
 375 -57 375 -57 375 -82 c 0,45,46
 375 -120 375 -120 425 -120 c 0,47,48
 444 -120 444 -120 460.5 -116 c 128,-1,49
 477 -112 477 -112 487 -107 c 0,50,51
 491 -105 491 -105 493 -105 c 0,52,53
 497 -105 497 -105 497 -112 c 2,54,-1
 497 -138 l 2,55,56
 497 -145 497 -145 490 -148 c 0,57,58
 479 -154 479 -154 456 -159 c 128,-1,59
 433 -164 433 -164 408 -164 c 0,60,61
 361 -164 361 -164 337 -143 c 128,-1,62
 313 -122 313 -122 313 -86 c 0,63,39
 313 -54 313 -54 336 -30.5 c 128,-1,40
EndSplineSet
EndChar

StartChar: Cacute
Encoding: 262 262 199
Width: 675
GlyphClass: 2
Flags: W
AnchorPoint: "Anchor-5" 0 0 basechar 0
AnchorPoint: "Anchor-4" 357 0 basechar 0
AnchorPoint: "Anchor-3" 357 723 basechar 0
AnchorPoint: "Anchor-2" 0 0 basechar 0
LayerCount: 2
Fore
SplineSet
484 704.5 m 128,-1,1
 543 676 543 676 578 627.5 c 128,-1,2
 613 579 613 579 620 521 c 1,3,-1
 542 516 l 1,4,5
 529 585 529 585 480 626 c 128,-1,6
 431 667 431 667 351 667 c 0,7,8
 245 667 245 667 190.5 590 c 128,-1,9
 136 513 136 513 136 361 c 0,10,11
 136 211 136 211 191.5 133.5 c 128,-1,12
 247 56 247 56 357 56 c 0,13,14
 426 56 426 56 475.5 95.5 c 128,-1,15
 525 135 525 135 540 203 c 1,16,-1
 617 194 l 1,17,18
 610 137 610 137 575.5 90.5 c 128,-1,19
 541 44 541 44 484 17 c 128,-1,20
 427 -10 427 -10 357 -10 c 0,21,22
 213 -10 213 -10 134 88.5 c 128,-1,23
 55 187 55 187 55 362 c 128,-1,24
 55 537 55 537 132.5 635 c 128,-1,25
 210 733 210 733 351 733 c 0,26,0
 425 733 425 733 484 704.5 c 128,-1,1
487 877 m 1,27,-1
 240 802 l 1,28,-1
 226 843 l 1,29,-1
 467 938 l 1,30,-1
 487 877 l 1,27,-1
EndSplineSet
EndChar

StartChar: cacute
Encoding: 263 263 200
Width: 537
GlyphClass: 2
Flags: W
AnchorPoint: "Anchor-5" 0 0 basechar 0
AnchorPoint: "Anchor-4" 285 0 basechar 0
AnchorPoint: "Anchor-3" 283 517 basechar 0
AnchorPoint: "Anchor-2" 0 0 basechar 0
LayerCount: 2
Fore
SplineSet
479 391 m 1,0,-1
 419 375 l 1,1,2
 382 426 382 426 355.5 446 c 128,-1,3
 329 466 329 466 288 466 c 0,4,5
 212 466 212 466 167.5 409.5 c 128,-1,6
 123 353 123 353 123 258 c 0,7,8
 123 162 123 162 167.5 105 c 128,-1,9
 212 48 212 48 288 48 c 0,10,11
 335 48 335 48 366 72.5 c 128,-1,12
 397 97 397 97 426 147 c 1,13,-1
 485 130 l 1,14,15
 456 63 456 63 405.5 26.5 c 128,-1,16
 355 -10 355 -10 284 -10 c 0,17,18
 214 -10 214 -10 161.5 23.5 c 128,-1,19
 109 57 109 57 80.5 117 c 128,-1,20
 52 177 52 177 52 256 c 128,-1,21
 52 335 52 335 80.5 396.5 c 128,-1,22
 109 458 109 458 161.5 492.5 c 128,-1,23
 214 527 214 527 284 527 c 0,24,25
 417 527 417 527 479 391 c 1,0,-1
413 671 m 1,26,-1
 166 596 l 1,27,-1
 152 637 l 1,28,-1
 393 732 l 1,29,-1
 413 671 l 1,26,-1
EndSplineSet
EndChar

StartChar: Ccircumflex
Encoding: 264 264 201
Width: 675
GlyphClass: 2
Flags: W
AnchorPoint: "Anchor-5" 0 0 basechar 0
AnchorPoint: "Anchor-4" 357 0 basechar 0
AnchorPoint: "Anchor-3" 357 723 basechar 0
AnchorPoint: "Anchor-2" 0 0 basechar 0
LayerCount: 2
Fore
SplineSet
484 704.5 m 128,-1,1
 543 676 543 676 578 627.5 c 128,-1,2
 613 579 613 579 620 521 c 1,3,-1
 542 516 l 1,4,5
 529 585 529 585 480 626 c 128,-1,6
 431 667 431 667 351 667 c 0,7,8
 245 667 245 667 190.5 590 c 128,-1,9
 136 513 136 513 136 361 c 0,10,11
 136 211 136 211 191.5 133.5 c 128,-1,12
 247 56 247 56 357 56 c 0,13,14
 426 56 426 56 475.5 95.5 c 128,-1,15
 525 135 525 135 540 203 c 1,16,-1
 617 194 l 1,17,18
 610 137 610 137 575.5 90.5 c 128,-1,19
 541 44 541 44 484 17 c 128,-1,20
 427 -10 427 -10 357 -10 c 0,21,22
 213 -10 213 -10 134 88.5 c 128,-1,23
 55 187 55 187 55 362 c 128,-1,24
 55 537 55 537 132.5 635 c 128,-1,25
 210 733 210 733 351 733 c 0,26,0
 425 733 425 733 484 704.5 c 128,-1,1
356 888 m 1,27,-1
 280 824 l 1,28,-1
 207 824 l 1,29,-1
 330 931 l 1,30,-1
 384 931 l 1,31,-1
 505 824 l 1,32,-1
 428 824 l 1,33,-1
 356 888 l 1,27,-1
EndSplineSet
EndChar

StartChar: ccircumflex
Encoding: 265 265 202
Width: 537
GlyphClass: 2
Flags: W
AnchorPoint: "Anchor-5" 0 0 basechar 0
AnchorPoint: "Anchor-4" 285 0 basechar 0
AnchorPoint: "Anchor-3" 283 517 basechar 0
AnchorPoint: "Anchor-2" 0 0 basechar 0
LayerCount: 2
Fore
SplineSet
479 391 m 1,0,-1
 419 375 l 1,1,2
 382 426 382 426 355.5 446 c 128,-1,3
 329 466 329 466 288 466 c 0,4,5
 212 466 212 466 167.5 409.5 c 128,-1,6
 123 353 123 353 123 258 c 0,7,8
 123 162 123 162 167.5 105 c 128,-1,9
 212 48 212 48 288 48 c 0,10,11
 335 48 335 48 366 72.5 c 128,-1,12
 397 97 397 97 426 147 c 1,13,-1
 485 130 l 1,14,15
 456 63 456 63 405.5 26.5 c 128,-1,16
 355 -10 355 -10 284 -10 c 0,17,18
 214 -10 214 -10 161.5 23.5 c 128,-1,19
 109 57 109 57 80.5 117 c 128,-1,20
 52 177 52 177 52 256 c 128,-1,21
 52 335 52 335 80.5 396.5 c 128,-1,22
 109 458 109 458 161.5 492.5 c 128,-1,23
 214 527 214 527 284 527 c 0,24,25
 417 527 417 527 479 391 c 1,0,-1
282 682 m 1,26,-1
 206 618 l 1,27,-1
 133 618 l 1,28,-1
 256 725 l 1,29,-1
 310 725 l 1,30,-1
 431 618 l 1,31,-1
 354 618 l 1,32,-1
 282 682 l 1,26,-1
EndSplineSet
EndChar

StartChar: Cdotaccent
Encoding: 266 266 203
Width: 675
GlyphClass: 2
Flags: W
AnchorPoint: "Anchor-5" 0 0 basechar 0
AnchorPoint: "Anchor-4" 357 0 basechar 0
AnchorPoint: "Anchor-3" 357 723 basechar 0
AnchorPoint: "Anchor-2" 0 0 basechar 0
LayerCount: 2
Fore
SplineSet
484 704.5 m 128,-1,1
 543 676 543 676 578 627.5 c 128,-1,2
 613 579 613 579 620 521 c 1,3,-1
 542 516 l 1,4,5
 529 585 529 585 480 626 c 128,-1,6
 431 667 431 667 351 667 c 0,7,8
 245 667 245 667 190.5 590 c 128,-1,9
 136 513 136 513 136 361 c 0,10,11
 136 211 136 211 191.5 133.5 c 128,-1,12
 247 56 247 56 357 56 c 0,13,14
 426 56 426 56 475.5 95.5 c 128,-1,15
 525 135 525 135 540 203 c 1,16,-1
 617 194 l 1,17,18
 610 137 610 137 575.5 90.5 c 128,-1,19
 541 44 541 44 484 17 c 128,-1,20
 427 -10 427 -10 357 -10 c 0,21,22
 213 -10 213 -10 134 88.5 c 128,-1,23
 55 187 55 187 55 362 c 128,-1,24
 55 537 55 537 132.5 635 c 128,-1,25
 210 733 210 733 351 733 c 0,26,0
 425 733 425 733 484 704.5 c 128,-1,1
398 819 m 1,27,-1
 318 819 l 1,28,-1
 318 929 l 1,29,-1
 398 929 l 1,30,-1
 398 819 l 1,27,-1
EndSplineSet
EndChar

StartChar: cdotaccent
Encoding: 267 267 204
Width: 537
GlyphClass: 2
Flags: W
AnchorPoint: "Anchor-5" 0 0 basechar 0
AnchorPoint: "Anchor-4" 285 0 basechar 0
AnchorPoint: "Anchor-3" 283 517 basechar 0
AnchorPoint: "Anchor-2" 0 0 basechar 0
LayerCount: 2
Fore
SplineSet
479 391 m 1,0,-1
 419 375 l 1,1,2
 382 426 382 426 355.5 446 c 128,-1,3
 329 466 329 466 288 466 c 0,4,5
 212 466 212 466 167.5 409.5 c 128,-1,6
 123 353 123 353 123 258 c 0,7,8
 123 162 123 162 167.5 105 c 128,-1,9
 212 48 212 48 288 48 c 0,10,11
 335 48 335 48 366 72.5 c 128,-1,12
 397 97 397 97 426 147 c 1,13,-1
 485 130 l 1,14,15
 456 63 456 63 405.5 26.5 c 128,-1,16
 355 -10 355 -10 284 -10 c 0,17,18
 214 -10 214 -10 161.5 23.5 c 128,-1,19
 109 57 109 57 80.5 117 c 128,-1,20
 52 177 52 177 52 256 c 128,-1,21
 52 335 52 335 80.5 396.5 c 128,-1,22
 109 458 109 458 161.5 492.5 c 128,-1,23
 214 527 214 527 284 527 c 0,24,25
 417 527 417 527 479 391 c 1,0,-1
324 613 m 1,26,-1
 244 613 l 1,27,-1
 244 723 l 1,28,-1
 324 723 l 1,29,-1
 324 613 l 1,26,-1
EndSplineSet
EndChar

StartChar: Ccaron
Encoding: 268 268 205
Width: 675
GlyphClass: 2
Flags: W
AnchorPoint: "Anchor-5" 0 0 basechar 0
AnchorPoint: "Anchor-4" 357 0 basechar 0
AnchorPoint: "Anchor-3" 357 723 basechar 0
AnchorPoint: "Anchor-2" 0 0 basechar 0
LayerCount: 2
Fore
SplineSet
484 704.5 m 128,-1,1
 543 676 543 676 578 627.5 c 128,-1,2
 613 579 613 579 620 521 c 1,3,-1
 542 516 l 1,4,5
 529 585 529 585 480 626 c 128,-1,6
 431 667 431 667 351 667 c 0,7,8
 245 667 245 667 190.5 590 c 128,-1,9
 136 513 136 513 136 361 c 0,10,11
 136 211 136 211 191.5 133.5 c 128,-1,12
 247 56 247 56 357 56 c 0,13,14
 426 56 426 56 475.5 95.5 c 128,-1,15
 525 135 525 135 540 203 c 1,16,-1
 617 194 l 1,17,18
 610 137 610 137 575.5 90.5 c 128,-1,19
 541 44 541 44 484 17 c 128,-1,20
 427 -10 427 -10 357 -10 c 0,21,22
 213 -10 213 -10 134 88.5 c 128,-1,23
 55 187 55 187 55 362 c 128,-1,24
 55 537 55 537 132.5 635 c 128,-1,25
 210 733 210 733 351 733 c 0,26,0
 425 733 425 733 484 704.5 c 128,-1,1
505 929 m 1,27,-1
 384 821 l 1,28,-1
 330 821 l 1,29,-1
 207 929 l 1,30,-1
 280 929 l 1,31,-1
 356 864 l 1,32,-1
 428 929 l 1,33,-1
 505 929 l 1,27,-1
EndSplineSet
EndChar

StartChar: ccaron
Encoding: 269 269 206
Width: 537
GlyphClass: 2
Flags: W
AnchorPoint: "Anchor-5" 0 0 basechar 0
AnchorPoint: "Anchor-4" 285 0 basechar 0
AnchorPoint: "Anchor-3" 283 517 basechar 0
AnchorPoint: "Anchor-2" 0 0 basechar 0
LayerCount: 2
Fore
SplineSet
479 391 m 1,0,-1
 419 375 l 1,1,2
 382 426 382 426 355.5 446 c 128,-1,3
 329 466 329 466 288 466 c 0,4,5
 212 466 212 466 167.5 409.5 c 128,-1,6
 123 353 123 353 123 258 c 0,7,8
 123 162 123 162 167.5 105 c 128,-1,9
 212 48 212 48 288 48 c 0,10,11
 335 48 335 48 366 72.5 c 128,-1,12
 397 97 397 97 426 147 c 1,13,-1
 485 130 l 1,14,15
 456 63 456 63 405.5 26.5 c 128,-1,16
 355 -10 355 -10 284 -10 c 0,17,18
 214 -10 214 -10 161.5 23.5 c 128,-1,19
 109 57 109 57 80.5 117 c 128,-1,20
 52 177 52 177 52 256 c 128,-1,21
 52 335 52 335 80.5 396.5 c 128,-1,22
 109 458 109 458 161.5 492.5 c 128,-1,23
 214 527 214 527 284 527 c 0,24,25
 417 527 417 527 479 391 c 1,0,-1
431 723 m 1,26,-1
 310 615 l 1,27,-1
 256 615 l 1,28,-1
 133 723 l 1,29,-1
 206 723 l 1,30,-1
 282 658 l 1,31,-1
 354 723 l 1,32,-1
 431 723 l 1,26,-1
EndSplineSet
EndChar

StartChar: Dcaron
Encoding: 270 270 207
Width: 680
GlyphClass: 2
Flags: W
AnchorPoint: "Anchor-5" 0 0 basechar 0
AnchorPoint: "Anchor-4" 0 0 basechar 0
AnchorPoint: "Anchor-3" 333 723 basechar 0
AnchorPoint: "Anchor-2" 0 0 basechar 0
LayerCount: 2
Fore
SplineSet
249 722 m 2,0,1
 446 720 446 720 536 632 c 128,-1,2
 626 544 626 544 626 366 c 0,3,4
 626 181 626 181 530.5 90.5 c 128,-1,5
 435 0 435 0 238 0 c 2,6,-1
 99 0 l 1,7,-1
 99 723 l 1,8,-1
 249 722 l 2,0,1
175 66 m 1,9,-1
 237 66 l 2,10,11
 392 66 392 66 470 135.5 c 128,-1,12
 548 205 548 205 548 364 c 0,13,14
 548 525 548 525 471.5 591.5 c 128,-1,15
 395 658 395 658 242 658 c 2,16,-1
 175 658 l 1,17,-1
 175 66 l 1,9,-1
481 929 m 1,18,-1
 360 821 l 1,19,-1
 306 821 l 1,20,-1
 183 929 l 1,21,-1
 256 929 l 1,22,-1
 332 864 l 1,23,-1
 404 929 l 1,24,-1
 481 929 l 1,18,-1
EndSplineSet
EndChar

StartChar: dcaron
Encoding: 271 271 208
Width: 579
GlyphClass: 2
Flags: W
AnchorPoint: "Anchor-5" 596 678 basechar 0
AnchorPoint: "Anchor-4" 287 0 basechar 0
AnchorPoint: "Anchor-3" 0 0 basechar 0
AnchorPoint: "Anchor-2" 0 0 basechar 0
LayerCount: 2
Fore
SplineSet
109 58 m 128,-1,1
 52 126 52 126 52 252 c 0,2,3
 52 377 52 377 109.5 452 c 128,-1,4
 167 527 167 527 270 527 c 0,5,6
 314 527 314 527 351 511 c 128,-1,7
 388 495 388 495 423 462 c 1,8,-1
 423 743 l 1,9,-1
 497 743 l 1,10,-1
 497 0 l 1,11,-1
 438 0 l 1,12,-1
 434 75 l 1,13,14
 367 -10 367 -10 265 -10 c 0,15,0
 166 -10 166 -10 109 58 c 128,-1,1
352 68.5 m 128,-1,17
 385 88 385 88 404 119 c 128,-1,18
 423 150 423 150 423 182 c 2,19,-1
 423 386 l 1,20,21
 369 467 369 467 285 467 c 0,22,23
 210 467 210 467 167.5 412.5 c 128,-1,24
 125 358 125 358 125 255 c 128,-1,25
 125 152 125 152 167.5 100.5 c 128,-1,26
 210 49 210 49 279 49 c 0,27,16
 319 49 319 49 352 68.5 c 128,-1,17
527 495.5 m 128,-1,29
 525 498 525 498 526 501 c 2,30,-1
 556 571 l 2,31,32
 558 577 558 577 557 579.5 c 128,-1,33
 556 582 556 582 552 583 c 2,34,-1
 545 584 l 2,35,36
 539 585 539 585 537 586.5 c 128,-1,37
 535 588 535 588 535 593 c 2,38,-1
 535 670 l 2,39,40
 535 678 535 678 543 678 c 2,41,-1
 596 678 l 2,42,43
 603 678 603 678 603 671 c 2,44,-1
 603 584 l 2,45,46
 603 582 603 582 602.5 581 c 128,-1,47
 602 580 602 580 602 579 c 2,48,-1
 569 501 l 2,49,50
 567 496 567 496 563 494.5 c 128,-1,51
 559 493 559 493 552 493 c 2,52,-1
 532 493 l 2,53,28
 529 493 529 493 527 495.5 c 128,-1,29
EndSplineSet
EndChar

StartChar: Dcroat
Encoding: 272 272 209
Width: 685
GlyphClass: 2
Flags: W
AnchorPoint: "Anchor-5" 0 0 basechar 0
AnchorPoint: "Anchor-4" 0 0 basechar 0
AnchorPoint: "Anchor-3" 339 723 basechar 0
AnchorPoint: "Anchor-2" 0 0 basechar 0
LayerCount: 2
Fore
SplineSet
542 632 m 128,-1,1
 632 544 632 544 632 366 c 0,2,3
 632 181 632 181 536.5 90.5 c 128,-1,4
 441 0 441 0 244 0 c 2,5,-1
 105 0 l 1,6,-1
 105 331 l 1,7,-1
 47 331 l 2,8,9
 39 331 39 331 36 334 c 128,-1,10
 33 337 33 337 33 344 c 2,11,-1
 33 381 l 2,12,13
 33 393 33 393 43 393 c 2,14,-1
 105 393 l 1,15,-1
 105 723 l 1,16,-1
 255 722 l 2,17,0
 452 720 452 720 542 632 c 128,-1,1
476 135.5 m 128,-1,19
 554 205 554 205 554 364 c 0,20,21
 554 525 554 525 477.5 591.5 c 128,-1,22
 401 658 401 658 248 658 c 2,23,-1
 181 658 l 1,24,-1
 181 393 l 1,25,-1
 345 393 l 2,26,27
 354 393 354 393 354 383 c 2,28,-1
 354 346 l 2,29,30
 354 338 354 338 350 334.5 c 128,-1,31
 346 331 346 331 337 331 c 2,32,-1
 181 331 l 1,33,-1
 181 66 l 1,34,-1
 243 66 l 2,35,18
 398 66 398 66 476 135.5 c 128,-1,19
EndSplineSet
EndChar

StartChar: dcroat
Encoding: 273 273 210
Width: 596
GlyphClass: 2
Flags: W
AnchorPoint: "Anchor-5" 596 678 basechar 0
AnchorPoint: "Anchor-4" 287 0 basechar 0
AnchorPoint: "Anchor-3" 0 0 basechar 0
AnchorPoint: "Anchor-2" 0 0 basechar 0
LayerCount: 2
Fore
SplineSet
570 601 m 1,0,-1
 497 601 l 1,1,-1
 497 0 l 1,2,-1
 438 0 l 1,3,-1
 434 75 l 1,4,5
 367 -10 367 -10 265 -10 c 0,6,7
 166 -10 166 -10 109 58 c 128,-1,8
 52 126 52 126 52 252 c 0,9,10
 52 377 52 377 109.5 452 c 128,-1,11
 167 527 167 527 270 527 c 0,12,13
 314 527 314 527 351 511 c 128,-1,14
 388 495 388 495 423 462 c 1,15,-1
 423 601 l 1,16,-1
 271 601 l 1,17,-1
 271 650 l 1,18,-1
 423 650 l 1,19,-1
 423 743 l 1,20,-1
 497 743 l 1,21,-1
 497 650 l 1,22,-1
 570 650 l 1,23,-1
 570 601 l 1,0,-1
423 386 m 1,24,25
 369 467 369 467 285 467 c 0,26,27
 210 467 210 467 167.5 412.5 c 128,-1,28
 125 358 125 358 125 255 c 128,-1,29
 125 152 125 152 167.5 100.5 c 128,-1,30
 210 49 210 49 279 49 c 0,31,32
 319 49 319 49 352 68.5 c 128,-1,33
 385 88 385 88 404 119 c 128,-1,34
 423 150 423 150 423 182 c 2,35,-1
 423 386 l 1,24,25
EndSplineSet
EndChar

StartChar: Emacron
Encoding: 274 274 211
Width: 617
GlyphClass: 2
Flags: W
AnchorPoint: "Anchor-5" 0 0 basechar 0
AnchorPoint: "Anchor-4" 345 0 basechar 0
AnchorPoint: "Anchor-3" 330 723 basechar 0
AnchorPoint: "Anchor-2" 544 10 basechar 0
LayerCount: 2
Fore
SplineSet
99 723 m 1,0,-1
 540 723 l 1,1,-1
 539 657 l 1,2,-1
 172 657 l 1,3,-1
 172 398 l 1,4,-1
 507 398 l 1,5,-1
 507 332 l 1,6,-1
 172 332 l 1,7,-1
 172 68 l 1,8,-1
 551 67 l 1,9,-1
 551 0 l 1,10,-1
 99 0 l 1,11,-1
 99 723 l 1,0,-1
469 859 m 1,12,-1
 191 859 l 1,13,-1
 191 914 l 1,14,-1
 469 914 l 1,15,-1
 469 859 l 1,12,-1
EndSplineSet
EndChar

StartChar: emacron
Encoding: 275 275 212
Width: 555
GlyphClass: 2
Flags: W
AnchorPoint: "Anchor-5" 0 0 basechar 0
AnchorPoint: "Anchor-4" 277 0 basechar 0
AnchorPoint: "Anchor-3" 283 517 basechar 0
AnchorPoint: "Anchor-2" 384 20 basechar 0
LayerCount: 2
Fore
SplineSet
169.5 104 m 128,-1,1
 212 50 212 50 292 50 c 0,2,3
 395 50 395 50 428 134 c 1,4,-1
 495 121 l 1,5,6
 477 60 477 60 422 25 c 128,-1,7
 367 -10 367 -10 293 -10 c 0,8,9
 222 -10 222 -10 167.5 21.5 c 128,-1,10
 113 53 113 53 82.5 112.5 c 128,-1,11
 52 172 52 172 52 254 c 0,12,13
 52 380 52 380 113 453.5 c 128,-1,14
 174 527 174 527 283 527 c 0,15,16
 387 527 387 527 445 459.5 c 128,-1,17
 503 392 503 392 503 273 c 2,18,-1
 503 241 l 1,19,-1
 127 241 l 1,20,0
 127 158 127 158 169.5 104 c 128,-1,1
432 295 m 1,21,22
 432 372 432 372 394 420 c 128,-1,23
 356 468 356 468 282 468 c 0,24,25
 231 468 231 468 196 443 c 128,-1,26
 161 418 161 418 144 378.5 c 128,-1,27
 127 339 127 339 127 295 c 1,28,-1
 432 295 l 1,21,22
422 653 m 1,29,-1
 144 653 l 1,30,-1
 144 708 l 1,31,-1
 422 708 l 1,32,-1
 422 653 l 1,29,-1
EndSplineSet
EndChar

StartChar: Ebreve
Encoding: 276 276 213
Width: 617
GlyphClass: 2
Flags: W
AnchorPoint: "Anchor-5" 0 0 basechar 0
AnchorPoint: "Anchor-4" 345 0 basechar 0
AnchorPoint: "Anchor-3" 330 723 basechar 0
AnchorPoint: "Anchor-2" 544 10 basechar 0
LayerCount: 2
Fore
SplineSet
99 723 m 1,0,-1
 540 723 l 1,1,-1
 539 657 l 1,2,-1
 172 657 l 1,3,-1
 172 398 l 1,4,-1
 507 398 l 1,5,-1
 507 332 l 1,6,-1
 172 332 l 1,7,-1
 172 68 l 1,8,-1
 551 67 l 1,9,-1
 551 0 l 1,10,-1
 99 0 l 1,11,-1
 99 723 l 1,0,-1
424 858.5 m 128,-1,13
 386 828 386 828 330 828 c 0,14,15
 273 828 273 828 236.5 857 c 128,-1,16
 200 886 200 886 189 929 c 1,17,-1
 248 929 l 1,18,19
 261 908 261 908 279.5 893 c 128,-1,20
 298 878 298 878 330 878 c 0,21,22
 358 878 358 878 379 893 c 128,-1,23
 400 908 400 908 412 929 c 1,24,-1
 474 929 l 1,25,12
 462 889 462 889 424 858.5 c 128,-1,13
EndSplineSet
EndChar

StartChar: ebreve
Encoding: 277 277 214
Width: 555
GlyphClass: 2
Flags: W
AnchorPoint: "Anchor-5" 0 0 basechar 0
AnchorPoint: "Anchor-4" 277 0 basechar 0
AnchorPoint: "Anchor-3" 283 517 basechar 0
AnchorPoint: "Anchor-2" 384 20 basechar 0
LayerCount: 2
Fore
SplineSet
169.5 104 m 128,-1,1
 212 50 212 50 292 50 c 0,2,3
 395 50 395 50 428 134 c 1,4,-1
 495 121 l 1,5,6
 477 60 477 60 422 25 c 128,-1,7
 367 -10 367 -10 293 -10 c 0,8,9
 222 -10 222 -10 167.5 21.5 c 128,-1,10
 113 53 113 53 82.5 112.5 c 128,-1,11
 52 172 52 172 52 254 c 0,12,13
 52 380 52 380 113 453.5 c 128,-1,14
 174 527 174 527 283 527 c 0,15,16
 387 527 387 527 445 459.5 c 128,-1,17
 503 392 503 392 503 273 c 2,18,-1
 503 241 l 1,19,-1
 127 241 l 1,20,0
 127 158 127 158 169.5 104 c 128,-1,1
432 295 m 1,21,22
 432 372 432 372 394 420 c 128,-1,23
 356 468 356 468 282 468 c 0,24,25
 231 468 231 468 196 443 c 128,-1,26
 161 418 161 418 144 378.5 c 128,-1,27
 127 339 127 339 127 295 c 1,28,-1
 432 295 l 1,21,22
377 652.5 m 128,-1,30
 339 622 339 622 283 622 c 0,31,32
 226 622 226 622 189.5 651 c 128,-1,33
 153 680 153 680 142 723 c 1,34,-1
 201 723 l 1,35,36
 214 702 214 702 232.5 687 c 128,-1,37
 251 672 251 672 283 672 c 0,38,39
 311 672 311 672 332 687 c 128,-1,40
 353 702 353 702 365 723 c 1,41,-1
 427 723 l 1,42,29
 415 683 415 683 377 652.5 c 128,-1,30
EndSplineSet
EndChar

StartChar: Edotaccent
Encoding: 278 278 215
Width: 617
GlyphClass: 2
Flags: W
AnchorPoint: "Anchor-5" 0 0 basechar 0
AnchorPoint: "Anchor-4" 345 0 basechar 0
AnchorPoint: "Anchor-3" 330 723 basechar 0
AnchorPoint: "Anchor-2" 544 10 basechar 0
LayerCount: 2
Fore
SplineSet
99 723 m 1,0,-1
 540 723 l 1,1,-1
 539 657 l 1,2,-1
 172 657 l 1,3,-1
 172 398 l 1,4,-1
 507 398 l 1,5,-1
 507 332 l 1,6,-1
 172 332 l 1,7,-1
 172 68 l 1,8,-1
 551 67 l 1,9,-1
 551 0 l 1,10,-1
 99 0 l 1,11,-1
 99 723 l 1,0,-1
371 819 m 1,12,-1
 291 819 l 1,13,-1
 291 929 l 1,14,-1
 371 929 l 1,15,-1
 371 819 l 1,12,-1
EndSplineSet
EndChar

StartChar: edotaccent
Encoding: 279 279 216
Width: 555
GlyphClass: 2
Flags: W
AnchorPoint: "Anchor-5" 0 0 basechar 0
AnchorPoint: "Anchor-4" 277 0 basechar 0
AnchorPoint: "Anchor-3" 283 517 basechar 0
AnchorPoint: "Anchor-2" 384 20 basechar 0
LayerCount: 2
Fore
SplineSet
169.5 104 m 128,-1,1
 212 50 212 50 292 50 c 0,2,3
 395 50 395 50 428 134 c 1,4,-1
 495 121 l 1,5,6
 477 60 477 60 422 25 c 128,-1,7
 367 -10 367 -10 293 -10 c 0,8,9
 222 -10 222 -10 167.5 21.5 c 128,-1,10
 113 53 113 53 82.5 112.5 c 128,-1,11
 52 172 52 172 52 254 c 0,12,13
 52 380 52 380 113 453.5 c 128,-1,14
 174 527 174 527 283 527 c 0,15,16
 387 527 387 527 445 459.5 c 128,-1,17
 503 392 503 392 503 273 c 2,18,-1
 503 241 l 1,19,-1
 127 241 l 1,20,0
 127 158 127 158 169.5 104 c 128,-1,1
432 295 m 1,21,22
 432 372 432 372 394 420 c 128,-1,23
 356 468 356 468 282 468 c 0,24,25
 231 468 231 468 196 443 c 128,-1,26
 161 418 161 418 144 378.5 c 128,-1,27
 127 339 127 339 127 295 c 1,28,-1
 432 295 l 1,21,22
324 613 m 1,29,-1
 244 613 l 1,30,-1
 244 723 l 1,31,-1
 324 723 l 1,32,-1
 324 613 l 1,29,-1
EndSplineSet
EndChar

StartChar: Eogonek
Encoding: 280 280 217
Width: 617
GlyphClass: 2
Flags: W
AnchorPoint: "Anchor-5" 0 0 basechar 0
AnchorPoint: "Anchor-4" 345 0 basechar 0
AnchorPoint: "Anchor-3" 330 723 basechar 0
AnchorPoint: "Anchor-2" 544 10 basechar 0
LayerCount: 2
Fore
SplineSet
99 723 m 1,0,-1
 540 723 l 1,1,-1
 539 657 l 1,2,-1
 172 657 l 1,3,-1
 172 398 l 1,4,-1
 507 398 l 1,5,-1
 507 332 l 1,6,-1
 172 332 l 1,7,-1
 172 68 l 1,8,-1
 551 67 l 1,9,-1
 551 0 l 1,10,-1
 99 0 l 1,11,-1
 99 723 l 1,0,-1
417 -33.5 m 128,-1,13
 440 -10 440 -10 498 8 c 1,14,-1
 553 1 l 1,15,16
 501 -21 501 -21 478.5 -40.5 c 128,-1,17
 456 -60 456 -60 456 -85 c 0,18,19
 456 -123 456 -123 506 -123 c 0,20,21
 525 -123 525 -123 541.5 -119 c 128,-1,22
 558 -115 558 -115 568 -110 c 0,23,24
 572 -108 572 -108 574 -108 c 0,25,26
 578 -108 578 -108 578 -115 c 2,27,-1
 578 -141 l 2,28,29
 578 -148 578 -148 571 -151 c 0,30,31
 560 -157 560 -157 537 -162 c 128,-1,32
 514 -167 514 -167 489 -167 c 0,33,34
 442 -167 442 -167 418 -146 c 128,-1,35
 394 -125 394 -125 394 -89 c 0,36,12
 394 -57 394 -57 417 -33.5 c 128,-1,13
EndSplineSet
EndChar

StartChar: eogonek
Encoding: 281 281 218
Width: 555
GlyphClass: 2
Flags: W
AnchorPoint: "Anchor-5" 0 0 basechar 0
AnchorPoint: "Anchor-4" 277 0 basechar 0
AnchorPoint: "Anchor-3" 283 517 basechar 0
AnchorPoint: "Anchor-2" 384 20 basechar 0
LayerCount: 2
Fore
SplineSet
169.5 104 m 128,-1,1
 212 50 212 50 292 50 c 0,2,3
 395 50 395 50 428 134 c 1,4,-1
 495 121 l 1,5,6
 477 60 477 60 422 25 c 128,-1,7
 367 -10 367 -10 293 -10 c 0,8,9
 222 -10 222 -10 167.5 21.5 c 128,-1,10
 113 53 113 53 82.5 112.5 c 128,-1,11
 52 172 52 172 52 254 c 0,12,13
 52 380 52 380 113 453.5 c 128,-1,14
 174 527 174 527 283 527 c 0,15,16
 387 527 387 527 445 459.5 c 128,-1,17
 503 392 503 392 503 273 c 2,18,-1
 503 241 l 1,19,-1
 127 241 l 1,20,0
 127 158 127 158 169.5 104 c 128,-1,1
432 295 m 1,21,22
 432 372 432 372 394 420 c 128,-1,23
 356 468 356 468 282 468 c 0,24,25
 231 468 231 468 196 443 c 128,-1,26
 161 418 161 418 144 378.5 c 128,-1,27
 127 339 127 339 127 295 c 1,28,-1
 432 295 l 1,21,22
257 -23.5 m 128,-1,30
 280 0 280 0 338 18 c 1,31,-1
 393 11 l 1,32,33
 341 -11 341 -11 318.5 -30.5 c 128,-1,34
 296 -50 296 -50 296 -75 c 0,35,36
 296 -113 296 -113 346 -113 c 0,37,38
 365 -113 365 -113 381.5 -109 c 128,-1,39
 398 -105 398 -105 408 -100 c 0,40,41
 412 -98 412 -98 414 -98 c 0,42,43
 418 -98 418 -98 418 -105 c 2,44,-1
 418 -131 l 2,45,46
 418 -138 418 -138 411 -141 c 0,47,48
 400 -147 400 -147 377 -152 c 128,-1,49
 354 -157 354 -157 329 -157 c 0,50,51
 282 -157 282 -157 258 -136 c 128,-1,52
 234 -115 234 -115 234 -79 c 0,53,29
 234 -47 234 -47 257 -23.5 c 128,-1,30
EndSplineSet
EndChar

StartChar: Ecaron
Encoding: 282 282 219
Width: 617
GlyphClass: 2
Flags: W
AnchorPoint: "Anchor-5" 0 0 basechar 0
AnchorPoint: "Anchor-4" 345 0 basechar 0
AnchorPoint: "Anchor-3" 330 723 basechar 0
AnchorPoint: "Anchor-2" 544 10 basechar 0
LayerCount: 2
Fore
SplineSet
99 723 m 1,0,-1
 540 723 l 1,1,-1
 539 657 l 1,2,-1
 172 657 l 1,3,-1
 172 398 l 1,4,-1
 507 398 l 1,5,-1
 507 332 l 1,6,-1
 172 332 l 1,7,-1
 172 68 l 1,8,-1
 551 67 l 1,9,-1
 551 0 l 1,10,-1
 99 0 l 1,11,-1
 99 723 l 1,0,-1
478 929 m 1,12,-1
 357 821 l 1,13,-1
 303 821 l 1,14,-1
 180 929 l 1,15,-1
 253 929 l 1,16,-1
 329 864 l 1,17,-1
 401 929 l 1,18,-1
 478 929 l 1,12,-1
EndSplineSet
EndChar

StartChar: ecaron
Encoding: 283 283 220
Width: 555
GlyphClass: 2
Flags: W
AnchorPoint: "Anchor-5" 0 0 basechar 0
AnchorPoint: "Anchor-4" 277 0 basechar 0
AnchorPoint: "Anchor-3" 283 517 basechar 0
AnchorPoint: "Anchor-2" 384 20 basechar 0
LayerCount: 2
Fore
SplineSet
169.5 104 m 128,-1,1
 212 50 212 50 292 50 c 0,2,3
 395 50 395 50 428 134 c 1,4,-1
 495 121 l 1,5,6
 477 60 477 60 422 25 c 128,-1,7
 367 -10 367 -10 293 -10 c 0,8,9
 222 -10 222 -10 167.5 21.5 c 128,-1,10
 113 53 113 53 82.5 112.5 c 128,-1,11
 52 172 52 172 52 254 c 0,12,13
 52 380 52 380 113 453.5 c 128,-1,14
 174 527 174 527 283 527 c 0,15,16
 387 527 387 527 445 459.5 c 128,-1,17
 503 392 503 392 503 273 c 2,18,-1
 503 241 l 1,19,-1
 127 241 l 1,20,0
 127 158 127 158 169.5 104 c 128,-1,1
432 295 m 1,21,22
 432 372 432 372 394 420 c 128,-1,23
 356 468 356 468 282 468 c 0,24,25
 231 468 231 468 196 443 c 128,-1,26
 161 418 161 418 144 378.5 c 128,-1,27
 127 339 127 339 127 295 c 1,28,-1
 432 295 l 1,21,22
431 723 m 1,29,-1
 310 615 l 1,30,-1
 256 615 l 1,31,-1
 133 723 l 1,32,-1
 206 723 l 1,33,-1
 282 658 l 1,34,-1
 354 723 l 1,35,-1
 431 723 l 1,29,-1
EndSplineSet
EndChar

StartChar: Gcircumflex
Encoding: 284 284 221
Width: 720
GlyphClass: 2
Flags: W
AnchorPoint: "Anchor-5" 0 0 basechar 0
AnchorPoint: "Anchor-4" 360 0 basechar 0
AnchorPoint: "Anchor-3" 356 723 basechar 0
AnchorPoint: "Anchor-2" 0 0 basechar 0
LayerCount: 2
Fore
SplineSet
194.5 34.5 m 128,-1,1
 127 79 127 79 91 162 c 128,-1,2
 55 245 55 245 55 359 c 0,3,4
 55 476 55 476 92 560 c 128,-1,5
 129 644 129 644 197.5 688.5 c 128,-1,6
 266 733 266 733 358 733 c 0,7,8
 425 733 425 733 483.5 704 c 128,-1,9
 542 675 542 675 579.5 626.5 c 128,-1,10
 617 578 617 578 621 523 c 1,11,-1
 541 516 l 1,12,13
 530 580 530 580 479 623 c 128,-1,14
 428 666 428 666 357 666 c 0,15,16
 252 666 252 666 192.5 587.5 c 128,-1,17
 133 509 133 509 133 365 c 0,18,19
 133 213 133 213 193 135 c 128,-1,20
 253 57 253 57 359 57 c 0,21,22
 421 57 421 57 465.5 86 c 128,-1,23
 510 115 510 115 532.5 158 c 128,-1,24
 555 201 555 201 557 244 c 2,25,-1
 559 316 l 1,26,-1
 373 316 l 1,27,-1
 373 372 l 1,28,-1
 634 371 l 1,29,-1
 634 0 l 1,30,-1
 575 0 l 1,31,-1
 575 116 l 1,32,33
 543 60 543 60 488.5 25 c 128,-1,34
 434 -10 434 -10 355 -10 c 0,35,0
 262 -10 262 -10 194.5 34.5 c 128,-1,1
355 888 m 1,36,-1
 279 824 l 1,37,-1
 206 824 l 1,38,-1
 329 931 l 1,39,-1
 383 931 l 1,40,-1
 504 824 l 1,41,-1
 427 824 l 1,42,-1
 355 888 l 1,36,-1
EndSplineSet
EndChar

StartChar: gcircumflex
Encoding: 285 285 222
Width: 595
GlyphClass: 2
Flags: W
AnchorPoint: "Anchor-5" 0 0 basechar 0
AnchorPoint: "Anchor-4" 0 0 basechar 0
AnchorPoint: "Anchor-3" 293 517 basechar 0
AnchorPoint: "Anchor-2" 0 0 basechar 0
LayerCount: 2
Fore
SplineSet
102.5 -134 m 128,-1,1
 38 -97 38 -97 38 -32 c 0,2,3
 38 9 38 9 63 34 c 128,-1,4
 88 59 88 59 109 71 c 128,-1,5
 130 83 130 83 135 86 c 1,6,7
 132 88 132 88 117.5 96 c 128,-1,8
 103 104 103 104 94 117 c 128,-1,9
 85 130 85 130 85 147 c 0,10,11
 85 171 85 171 107.5 190 c 128,-1,12
 130 209 130 209 171 219 c 1,13,14
 122 245 122 245 100 279 c 128,-1,15
 78 313 78 313 78 361 c 0,16,17
 78 438 78 438 137 481.5 c 128,-1,18
 196 525 196 525 295 525 c 0,19,20
 343 525 343 525 377.5 513.5 c 128,-1,21
 412 502 412 502 443 479 c 1,22,-1
 568 531 l 1,23,-1
 568 455 l 1,24,-1
 477 437 l 1,25,26
 484 422 484 422 490 399.5 c 128,-1,27
 496 377 496 377 496 361 c 0,28,29
 496 291 496 291 442.5 245.5 c 128,-1,30
 389 200 389 200 287 200 c 1,31,-1
 264 201 l 2,32,33
 206 200 206 200 181 188.5 c 128,-1,34
 156 177 156 177 156 161 c 0,35,36
 156 146 156 146 177.5 140 c 128,-1,37
 199 134 199 134 258 130 c 2,38,-1
 372 123 l 2,39,40
 454 118 454 118 494 82 c 128,-1,41
 534 46 534 46 534 -14 c 0,42,43
 534 -88 534 -88 469.5 -129.5 c 128,-1,44
 405 -171 405 -171 287 -171 c 0,45,0
 167 -171 167 -171 102.5 -134 c 128,-1,1
391 280 m 128,-1,47
 426 308 426 308 426 361 c 0,48,49
 426 415 426 415 390.5 445 c 128,-1,50
 355 475 355 475 289 475 c 0,51,52
 224 475 224 475 187.5 444.5 c 128,-1,53
 151 414 151 414 151 361 c 0,54,55
 151 309 151 309 187 280.5 c 128,-1,56
 223 252 223 252 289 252 c 0,57,46
 356 252 356 252 391 280 c 128,-1,47
421.5 -96 m 128,-1,59
 461 -72 461 -72 461 -23 c 0,60,61
 461 14 461 14 437.5 34 c 128,-1,62
 414 54 414 54 362 57 c 2,63,-1
 207 67 l 2,64,65
 189 69 189 69 166 57 c 128,-1,66
 143 45 143 45 127 23 c 128,-1,67
 111 1 111 1 111 -24 c 0,68,69
 111 -71 111 -71 160 -95.5 c 128,-1,70
 209 -120 209 -120 301 -120 c 0,71,58
 382 -120 382 -120 421.5 -96 c 128,-1,59
292 682 m 1,72,-1
 216 618 l 1,73,-1
 143 618 l 1,74,-1
 266 725 l 1,75,-1
 320 725 l 1,76,-1
 441 618 l 1,77,-1
 364 618 l 1,78,-1
 292 682 l 1,72,-1
EndSplineSet
EndChar

StartChar: Gbreve
Encoding: 286 286 223
Width: 720
GlyphClass: 2
Flags: W
AnchorPoint: "Anchor-5" 0 0 basechar 0
AnchorPoint: "Anchor-4" 360 0 basechar 0
AnchorPoint: "Anchor-3" 356 723 basechar 0
AnchorPoint: "Anchor-2" 0 0 basechar 0
LayerCount: 2
Fore
SplineSet
194.5 34.5 m 128,-1,1
 127 79 127 79 91 162 c 128,-1,2
 55 245 55 245 55 359 c 0,3,4
 55 476 55 476 92 560 c 128,-1,5
 129 644 129 644 197.5 688.5 c 128,-1,6
 266 733 266 733 358 733 c 0,7,8
 425 733 425 733 483.5 704 c 128,-1,9
 542 675 542 675 579.5 626.5 c 128,-1,10
 617 578 617 578 621 523 c 1,11,-1
 541 516 l 1,12,13
 530 580 530 580 479 623 c 128,-1,14
 428 666 428 666 357 666 c 0,15,16
 252 666 252 666 192.5 587.5 c 128,-1,17
 133 509 133 509 133 365 c 0,18,19
 133 213 133 213 193 135 c 128,-1,20
 253 57 253 57 359 57 c 0,21,22
 421 57 421 57 465.5 86 c 128,-1,23
 510 115 510 115 532.5 158 c 128,-1,24
 555 201 555 201 557 244 c 2,25,-1
 559 316 l 1,26,-1
 373 316 l 1,27,-1
 373 372 l 1,28,-1
 634 371 l 1,29,-1
 634 0 l 1,30,-1
 575 0 l 1,31,-1
 575 116 l 1,32,33
 543 60 543 60 488.5 25 c 128,-1,34
 434 -10 434 -10 355 -10 c 0,35,0
 262 -10 262 -10 194.5 34.5 c 128,-1,1
450 858.5 m 128,-1,37
 412 828 412 828 356 828 c 0,38,39
 299 828 299 828 262.5 857 c 128,-1,40
 226 886 226 886 215 929 c 1,41,-1
 274 929 l 1,42,43
 287 908 287 908 305.5 893 c 128,-1,44
 324 878 324 878 356 878 c 0,45,46
 384 878 384 878 405 893 c 128,-1,47
 426 908 426 908 438 929 c 1,48,-1
 500 929 l 1,49,36
 488 889 488 889 450 858.5 c 128,-1,37
EndSplineSet
EndChar

